<svg width="22" height="22" viewBox="0 0 22 22" fill="none" xmlns="http://www.w3.org/2000/svg">
<path d="M11 4.71429C10.223 4.71429 9.46344 4.9447 8.81739 5.37638C8.17134 5.80806 7.6678 6.42161 7.37046 7.13947C7.07311 7.85732 6.99531 8.64722 7.1469 9.40929C7.29848 10.1714 7.67264 10.8714 8.22207 11.4208C8.77149 11.9702 9.47149 12.3444 10.2336 12.496C10.9956 12.6475 11.7855 12.5697 12.5034 12.2724C13.2212 11.975 13.8348 11.4715 14.2665 10.8255C14.6982 10.1794 14.9286 9.41986 14.9286 8.64287C14.9286 7.60094 14.5147 6.6017 13.7779 5.86495C13.0412 5.1282 12.0419 4.71429 11 4.71429ZM11 11C10.5338 11 10.0781 10.8618 9.69043 10.6028C9.3028 10.3438 9.00068 9.97562 8.82227 9.54491C8.64386 9.11419 8.59718 8.64025 8.68813 8.18301C8.77908 7.72577 9.00358 7.30577 9.33323 6.97611C9.66289 6.64646 10.0829 6.42197 10.5401 6.33101C10.9974 6.24006 11.4713 6.28674 11.902 6.46515C12.3327 6.64356 12.7009 6.94568 12.9599 7.33331C13.2189 7.72094 13.3571 8.17667 13.3571 8.64287C13.3565 9.26783 13.108 9.86701 12.666 10.3089C12.2241 10.7508 11.6249 10.9994 11 11Z" fill="black"/>
<path d="M11 0C8.82441 0 6.69767 0.645139 4.88873 1.85383C3.07979 3.06253 1.66989 4.7805 0.83733 6.79048C0.00476612 8.80047 -0.213071 11.0122 0.211367 13.146C0.635804 15.2798 1.68345 17.2398 3.22183 18.7782C4.76021 20.3166 6.72022 21.3642 8.85401 21.7886C10.9878 22.2131 13.1995 21.9952 15.2095 21.1627C17.2195 20.3301 18.9375 18.9202 20.1462 17.1113C21.3549 15.3023 22 13.1756 22 11C21.9967 8.08364 20.8367 5.28768 18.7745 3.2255C16.7123 1.16332 13.9164 0.00332728 11 0V0ZM6.28572 19.1534V18.0714C6.28634 17.4465 6.53489 16.8473 6.9768 16.4054C7.41871 15.9635 8.0179 15.7149 8.64286 15.7143H13.3571C13.9821 15.7149 14.5813 15.9635 15.0232 16.4054C15.4651 16.8473 15.7137 17.4465 15.7143 18.0714V19.1534C14.2836 19.9887 12.6567 20.429 11 20.429C9.34331 20.429 7.71637 19.9887 6.28572 19.1534V19.1534ZM17.2794 18.0133C17.2638 16.9827 16.8439 15.9995 16.1102 15.2755C15.3766 14.5516 14.3879 14.1448 13.3571 14.1429H8.64286C7.61215 14.1448 6.62345 14.5516 5.88979 15.2755C5.15613 15.9995 4.73624 16.9827 4.72058 18.0133C3.29573 16.741 2.29094 15.066 1.83923 13.21C1.38753 11.3539 1.51023 9.40448 2.19108 7.61975C2.87193 5.83501 4.07882 4.29917 5.65194 3.21559C7.22506 2.13201 9.0902 1.55181 11.0004 1.55181C12.9106 1.55181 14.7757 2.13201 16.3489 3.21559C17.922 4.29917 19.1289 5.83501 19.8097 7.61975C20.4906 9.40448 20.6133 11.3539 20.1616 13.21C19.7099 15.066 18.7051 16.741 17.2802 18.0133H17.2794Z" fill="black"/>
</svg>
