<svg width="19" height="17" viewBox="0 0 19 17" fill="none" xmlns="http://www.w3.org/2000/svg">
<path d="M16.9395 2.0227L16.9391 2.02231C16.4529 1.54632 15.8797 1.16802 15.2505 0.908022L15.2499 0.907755C14.5972 0.63699 13.8972 0.49839 13.1905 0.500014L13.1894 0.500017C12.1964 0.500015 11.2286 0.771528 10.3881 1.28367L10.388 1.28368C10.1869 1.40621 9.99625 1.54055 9.81582 1.68671L9.50109 1.94168L9.18635 1.68671C9.00592 1.54055 8.81524 1.40621 8.61414 1.28368L8.61412 1.28367C7.77356 0.771528 6.80576 0.500015 5.81282 0.500015C5.09693 0.500015 4.40554 0.636751 3.75231 0.907757L3.75177 0.907981C3.12029 1.1691 2.5517 1.54433 2.06291 2.02246L2.06223 2.02313C1.57684 2.49613 1.18913 3.05963 0.921047 3.68167L16.9395 2.0227ZM16.9395 2.0227C17.4245 2.4965 17.8124 3.06017 18.0813 3.68214C18.3601 4.3292 18.502 5.0147 18.5 5.72072V5.72214C18.5 6.38506 18.3645 7.08673 18.0866 7.81242L18.0861 7.81356C17.8558 8.4194 17.5167 9.05786 17.0782 9.7116C16.3841 10.745 15.4206 11.8359 14.2097 12.9524C12.1979 14.8061 10.2069 16.0861 10.131 16.1346L10.1309 16.1347L9.61065 16.468C9.61052 16.4681 9.61039 16.4681 9.61026 16.4682C9.54343 16.5106 9.45654 16.5106 9.38972 16.4682C9.38958 16.4681 9.38945 16.4681 9.38932 16.468L8.86906 16.1347L8.8691 16.1346L8.86123 16.1298C8.86127 16.1298 8.86121 16.1298 8.86104 16.1297C8.86037 16.1293 8.85808 16.1278 8.85368 16.125L8.83165 16.1109C8.81303 16.099 8.78719 16.0822 8.75458 16.0608C8.68938 16.018 8.59769 15.957 8.48323 15.8792C8.2543 15.7235 7.93489 15.5008 7.55479 15.2213C6.79383 14.6618 5.79359 13.8779 4.79043 12.9526L4.79038 12.9526M16.9395 2.0227L4.79038 12.9526M4.79038 12.9526C3.57942 11.836 2.61588 10.7451 1.92178 9.7116L4.79038 12.9526ZM0.5 5.72214C0.5 5.01499 0.642182 4.32888 0.921031 3.6817L1.92162 9.71136C1.48379 9.05857 1.1463 8.41967 0.913306 7.81217C0.635494 7.08657 0.5 6.38498 0.5 5.72214Z" fill="white" stroke="url(#paint0_linear_71_162)"/>
<defs>
<linearGradient id="paint0_linear_71_162" x1="0" y1="8.5" x2="19" y2="8.5" gradientUnits="userSpaceOnUse">
<stop stop-color="#FF0844"/>
<stop offset="1" stop-color="#FFB199"/>
</linearGradient>
</defs>
</svg>
