<svg width="24" height="22" viewBox="0 0 24 22" fill="none" xmlns="http://www.w3.org/2000/svg">
<path d="M23.7935 4.9684C23.6552 4.404 23.4417 3.86258 23.1593 3.35996C22.888 2.83709 22.5411 2.36089 22.1308 1.9481C21.5359 1.32999 20.8315 0.838334 20.0566 0.500507C18.497 -0.166836 16.748 -0.166836 15.1884 0.500507C14.456 0.823693 13.7832 1.27724 13.1999 1.84087L13.1142 1.9481L12 3.10976L10.8858 1.9481L10.8001 1.84087C10.2168 1.27724 9.54398 0.823693 8.81162 0.500507C7.25199 -0.166836 5.50299 -0.166836 3.94336 0.500507C3.16852 0.838334 2.46407 1.32999 1.8692 1.9481C1.05559 2.77347 0.479641 3.81965 0.206451 4.9684C0.0611141 5.55176 -0.00807697 6.1529 0.000749228 6.75555C0.000749228 7.32208 0.0693164 7.88682 0.206451 8.43548C0.350157 8.98958 0.55735 9.52361 0.823555 10.0261C1.11105 10.5426 1.46263 11.0173 1.8692 11.4379L12 22L22.1308 11.4379C22.537 11.0215 22.885 10.5443 23.1593 10.0261C23.716 9.03437 24.0062 7.9046 23.9992 6.75555C24.0081 6.1529 23.9389 5.55175 23.7935 4.9684V4.9684ZM22.0794 7.88146C21.874 8.69805 21.4661 9.44387 20.8966 10.0439L11.9657 19.3371L3.03484 10.0439C2.74382 9.73835 2.49045 9.39615 2.28061 9.02524C2.08314 8.6583 1.9278 8.2684 1.81778 7.86359C1.72994 7.45883 1.68397 7.04543 1.68064 6.63045C1.68297 6.20361 1.72894 5.77825 1.81778 5.36157C1.92457 4.9556 2.08008 4.5653 2.28061 4.19992C2.48631 3.82462 2.74001 3.48506 3.03484 3.18124C3.47521 2.72828 3.99255 2.36466 4.56046 2.10895C5.70487 1.63164 6.98154 1.63164 8.12595 2.10895C8.69163 2.35379 9.20246 2.71301 9.63443 3.16337L11.9657 5.61177L14.297 3.16337C14.7287 2.71221 15.2412 2.35394 15.8055 2.10895C16.9499 1.63164 18.2266 1.63164 19.371 2.10895C19.9384 2.36451 20.456 2.72909 20.8966 3.18124C21.1948 3.47612 21.4451 3.81926 21.6337 4.19992C22.0307 4.92991 22.2376 5.75554 22.2336 6.59471C22.257 7.02653 22.2223 7.45963 22.1308 7.88146H22.0794V7.88146Z" fill="black"/>
</svg>
