<svg width="16" height="16" viewBox="0 0 16 16" fill="none" xmlns="http://www.w3.org/2000/svg">
<path d="M12.4794 2.07129C11.7665 2.07129 11.1866 2.65124 11.1866 3.364C11.1866 4.07688 11.7665 4.65683 12.4794 4.65683C13.1922 4.65683 13.7722 4.07688 13.7722 3.364C13.7722 2.65112 13.1922 2.07129 12.4794 2.07129ZM12.4794 3.71873C12.2838 3.71873 12.1246 3.55955 12.1246 3.364C12.1246 3.16832 12.2838 3.00927 12.4794 3.00927C12.675 3.00927 12.8342 3.16832 12.8342 3.364C12.8342 3.55955 12.675 3.71873 12.4794 3.71873Z" fill="black"/>
<path d="M7.99995 3.625C5.58762 3.625 3.62512 5.5875 3.62512 7.99983C3.62512 10.4122 5.58762 12.3747 7.99995 12.3747C10.4123 12.3747 12.3748 10.4122 12.3748 7.99983C12.3748 5.5875 10.4123 3.625 7.99995 3.625V3.625ZM7.99995 11.4367C6.10495 11.4367 4.5631 9.89495 4.5631 7.99983C4.5631 6.10483 6.10495 4.56298 7.99995 4.56298C9.89507 4.56298 11.4368 6.10483 11.4368 7.99983C11.4368 9.89495 9.89507 11.4367 7.99995 11.4367V11.4367Z" fill="black"/>
<path d="M11.6688 0H4.33101C1.94285 0 0 1.94285 0 4.33101V11.6689C0 14.057 1.94285 15.9998 4.33101 15.9998H11.6689C14.057 15.9998 15.9998 14.057 15.9998 11.6689V4.33101C15.9998 1.94285 14.057 0 11.6688 0V0ZM15.0618 11.6689C15.0618 13.5398 13.5398 15.0618 11.6688 15.0618H4.33101C2.46005 15.0618 0.937978 13.5398 0.937978 11.6689V4.33101C0.937978 2.46005 2.46005 0.937978 4.33101 0.937978H11.6689C13.5398 0.937978 15.0618 2.46005 15.0618 4.33101V11.6689Z" fill="black"/>
</svg>
