<svg width="23" height="23" viewBox="0 0 23 23" fill="none" xmlns="http://www.w3.org/2000/svg">
<path d="M13.7593 11.3223C13.519 11.3223 13.3239 11.5174 13.3239 11.7578C13.3239 11.9981 13.519 12.1932 13.7593 12.1932C13.9997 12.1932 14.1948 11.9981 14.1948 11.7578C14.1948 11.5174 13.9997 11.3223 13.7593 11.3223Z" fill="black"/>
<path d="M4.44907 16.103L0.0943798 21.5899C-0.00955445 21.7207 -0.0292866 21.8995 0.0433482 22.0499C0.115983 22.2004 0.268397 22.296 0.43544 22.296H21.8605C22.0276 22.296 22.18 22.2004 22.2526 22.0499C22.3254 21.8995 22.3055 21.7207 22.2016 21.5899L17.8469 16.103C17.7644 15.9989 17.6387 15.9382 17.5058 15.9382H13.6912L16.9479 10.8302C17.7118 9.68493 18.1155 8.34927 18.1155 6.9675C18.1155 3.12568 14.99 0 11.148 0C7.30598 0 4.18047 3.12568 4.18047 6.9675C4.18047 8.34927 4.58413 9.68476 5.34807 10.8302L8.60474 15.9382H4.79013C4.65728 15.9382 4.53174 15.9989 4.44907 16.103ZM2.82321 19.5526H5.45626L3.97022 21.4251H1.337L2.82321 19.5526ZM9.16013 16.8091L10.3539 18.6816H7.25938L8.74558 16.8091H9.16013ZM13.136 16.8091H13.5505L15.0366 18.6816H11.9422L13.136 16.8091ZM15.7279 19.5526L17.2139 21.4251H5.08203L6.56824 19.5526H15.7279ZM18.3259 21.4251L16.8397 19.5526H19.4729L20.959 21.4251H18.3259ZM18.7816 18.6816H16.1486L14.6623 16.8091H17.2956L18.7816 18.6816ZM6.0751 10.3506C5.4054 9.34795 5.05141 8.17814 5.05141 6.9675C5.05141 3.60589 7.78636 0.870938 11.148 0.870938C14.5096 0.870938 17.2445 3.60589 17.2445 6.9675C17.2445 8.17814 16.8906 9.34795 16.221 10.3506C16.2192 10.3531 16.2176 10.3557 16.2159 10.3582C15.93 10.8068 11.3683 17.9617 11.148 18.307C10.5939 17.438 6.64428 11.2431 6.08004 10.3582C6.07851 10.3557 6.07681 10.3531 6.0751 10.3506ZM7.63361 16.8091L6.14757 18.6816H3.51434L5.00055 16.8091H7.63361Z" fill="black"/>
<path d="M11.1485 11.3227C13.5392 11.3227 15.5032 9.38669 15.5032 6.96797C15.5032 4.56677 13.5497 2.61328 11.1485 2.61328C8.74731 2.61328 6.79382 4.56677 6.79382 6.96797C6.79382 9.38738 8.75854 11.3227 11.1485 11.3227ZM11.1485 3.48422C13.0695 3.48422 14.6323 5.04697 14.6323 6.96797C14.6323 8.90683 13.0569 10.4517 11.1485 10.4517C9.23959 10.4517 7.66476 8.90683 7.66476 6.96797C7.66476 5.04697 9.22752 3.48422 11.1485 3.48422Z" fill="black"/>
<path d="M12.9856 12.8092C12.7797 12.685 12.512 12.7513 12.3878 12.9573L10.7783 15.6276C10.6541 15.8336 10.7205 16.1012 10.9264 16.2254C11.1333 16.3501 11.4005 16.2824 11.5242 16.0772L13.1337 13.4069C13.2579 13.2009 13.1916 12.9333 12.9856 12.8092Z" fill="black"/>
</svg>
