<svg width="16" height="16" viewBox="0 0 16 16" fill="none" xmlns="http://www.w3.org/2000/svg">
<path d="M12.0155 1.07299C10.7899 0.357616 9.4513 0 7.99999 0C6.54848 0 5.20991 0.357616 3.98427 1.07299C2.75864 1.78838 1.78814 2.75893 1.07294 3.98445C0.357601 5.21027 0 6.5489 0 8.00033C0 9.61845 0.440785 11.0873 1.32285 12.4066C2.20475 13.7263 3.3609 14.7019 4.79161 15.3338C4.76371 14.5907 4.80888 13.9762 4.92704 13.4901L5.95823 9.13573C5.7846 8.79552 5.69785 8.37195 5.69785 7.86487C5.69785 7.2746 5.84714 6.78139 6.14573 6.38573C6.44416 5.98974 6.80886 5.79173 7.23948 5.79173C7.58658 5.79173 7.85406 5.90619 8.04159 6.13564C8.22909 6.36473 8.32294 6.65303 8.32294 7.00017C8.32294 7.21559 8.28286 7.47783 8.20321 7.78674C8.12323 8.09581 8.01908 8.4534 7.89075 8.85973C7.76226 9.26588 7.67029 9.59051 7.61465 9.83367C7.51726 10.2572 7.59724 10.62 7.85423 10.9222C8.11102 11.2243 8.45141 11.3753 8.87509 11.3753C9.61819 11.3753 10.2276 10.9622 10.7033 10.1358C11.179 9.30932 11.4168 8.30581 11.4168 7.12508C11.4168 6.21543 11.1235 5.47566 10.5366 4.90622C9.9498 4.33692 9.13194 4.05202 8.08353 4.05202C6.90978 4.05202 5.96008 4.42892 5.23458 5.18217C4.50891 5.93578 4.14606 6.83697 4.14606 7.88529C4.14606 8.51037 4.32325 9.03486 4.67729 9.45845C4.79531 9.59739 4.83352 9.74656 4.79191 9.90616C4.77788 9.94794 4.75017 10.0521 4.70856 10.2186C4.66699 10.3852 4.63908 10.4931 4.62521 10.5415C4.56957 10.7639 4.43771 10.8334 4.22924 10.7499C3.69447 10.5277 3.28816 10.1424 3.01054 9.59366C2.73275 9.04514 2.59393 8.40975 2.59393 7.68745C2.59393 7.22214 2.66849 6.7568 2.81779 6.29149C2.96708 5.82618 3.19956 5.37659 3.51575 4.94236C3.83158 4.50866 4.21015 4.12469 4.65127 3.79141C5.09222 3.45797 5.6287 3.19083 6.26069 2.98909C6.89254 2.78788 7.57324 2.68712 8.30242 2.68712C9.2885 2.68712 10.174 2.90591 10.9586 3.34331C11.7433 3.78091 12.3423 4.34701 12.7555 5.04141C13.1686 5.73584 13.3754 6.47878 13.3754 7.27076C13.3754 8.31247 13.1947 9.25005 12.8337 10.0835C12.4726 10.9169 11.9621 11.5714 11.3023 12.0471C10.6424 12.5227 9.89242 12.7606 9.05229 12.7606C8.6286 12.7606 8.23277 12.6617 7.86473 12.4636C7.49646 12.2656 7.24304 12.0313 7.10422 11.7604C6.79176 12.9895 6.60426 13.7225 6.54171 13.9584C6.40965 14.4516 6.1388 15.0208 5.72912 15.6668C6.4722 15.889 7.22915 16 7.99999 16C9.45133 16 10.7899 15.6424 12.0155 14.9272C13.2411 14.2118 14.2116 13.2413 14.927 12.0154C15.6422 10.7897 16 9.45124 16 7.99964C16 6.54807 15.6422 5.20963 14.927 3.98378C14.2118 2.75893 13.2411 1.78838 12.0155 1.07299Z" fill="black"/>
</svg>
