<svg width="40" height="40" viewBox="0 0 40 40" fill="none" xmlns="http://www.w3.org/2000/svg">
<circle cx="20" cy="20" r="20" fill="black"/>
<circle cx="20" cy="20" r="20" fill="url(#paint0_linear_71_52)"/>
<path d="M19.27 26.5392C20.883 26.5389 22.4495 25.9989 23.7202 25.0053L27.715 29L29 27.7151L25.0051 23.7204C25.9993 22.4498 26.5396 20.883 26.54 19.2696C26.54 15.2613 23.2785 12 19.27 12C15.2615 12 12 15.2613 12 19.2696C12 23.2779 15.2615 26.5392 19.27 26.5392ZM19.27 13.8174C22.2771 13.8174 24.7225 16.2627 24.7225 19.2696C24.7225 22.2765 22.2771 24.7218 19.27 24.7218C16.2629 24.7218 13.8175 22.2765 13.8175 19.2696C13.8175 16.2627 16.2629 13.8174 19.27 13.8174Z" fill="white"/>
<defs>
<linearGradient id="paint0_linear_71_52" x1="0" y1="20" x2="40" y2="20" gradientUnits="userSpaceOnUse">
<stop stop-color="#FF0844"/>
<stop offset="1" stop-color="#FFB199"/>
</linearGradient>
</defs>
</svg>
