<svg width="19" height="15" viewBox="0 0 19 15" fill="none" xmlns="http://www.w3.org/2000/svg">
<path d="M18.0383 1.73506C17.3675 2.02931 16.6527 2.22435 15.9075 2.31905C16.6741 1.86133 17.2593 1.14205 17.5343 0.275084C16.8196 0.701238 16.0304 1.00225 15.1894 1.17023C14.5107 0.447575 13.5434 0 12.4881 0C10.4408 0 8.79254 1.66178 8.79254 3.69898C8.79254 3.9921 8.81734 4.27395 8.87822 4.54227C5.80382 4.39232 3.08342 2.91882 1.25592 0.674181C0.936864 1.22773 0.749716 1.86133 0.749716 2.5434C0.749716 3.82412 1.40924 4.9594 2.39233 5.61667C1.79819 5.6054 1.21533 5.43291 0.721532 5.16121C0.721532 5.17248 0.721532 5.18714 0.721532 5.20179C0.721532 6.99886 2.00338 8.49152 3.68432 8.83538C3.38331 8.91768 3.05524 8.95714 2.71476 8.95714C2.47801 8.95714 2.239 8.94361 2.01465 8.894C2.49379 10.3585 3.85343 11.4351 5.47011 11.4701C4.21194 12.4543 2.61442 13.0473 0.885004 13.0473C0.581735 13.0473 0.290867 13.0338 0 12.9966C1.6381 14.053 3.57947 14.6561 5.67304 14.6561C12.478 14.6561 16.1984 9.01915 16.1984 4.13302C16.1984 3.96955 16.1927 3.81172 16.1849 3.65501C16.9188 3.13415 17.5355 2.48365 18.0383 1.73506Z" fill="black"/>
</svg>
