<svg width="343" height="249" viewBox="0 0 343 249" fill="none" xmlns="http://www.w3.org/2000/svg">
<path d="M149.297 94.5789L87.229 86.2823L230.527 56L288.43 63.8817L149.297 94.5789Z" fill="url(#paint0_linear_72_836)"/>
<path d="M135.551 169.248L53.9038 167.174L248.023 124.032L343 126.935L135.551 169.248Z" fill="url(#paint1_linear_72_836)"/>
<path d="M252.781 0L87.7248 35.7378V86.02L252.781 51.1133V0Z" fill="url(#paint2_linear_72_836)"/>
<path d="M288.536 63.58L51.1382 116.356V167.884L288.536 114.693V63.58Z" fill="url(#paint3_linear_72_836)"/>
<path d="M0 196.973V248.087L343 177.858V126.744L0 196.973Z" fill="url(#paint4_linear_72_836)"/>
<g filter="url(#filter0_d_72_836)">
<path d="M123.419 57.6141C123.856 57.5197 124.199 57.3875 124.449 57.2175C124.705 57.0462 124.892 56.8556 125.011 56.6458C125.129 56.4361 125.193 56.2141 125.204 55.9799C125.215 55.7456 125.196 55.5145 125.146 55.2864C125.09 55.0258 125.003 54.799 124.887 54.606C124.776 54.4115 124.621 54.261 124.42 54.1543C124.227 54.0462 123.984 53.9826 123.694 53.9636C123.403 53.9446 123.049 53.9802 122.632 54.0704L120.326 54.5693L121.093 58.1173L123.419 57.6141ZM119.087 48.8418L119.848 52.3604L121.568 51.9883C121.933 51.9094 122.256 51.8122 122.538 51.6966C122.82 51.5811 123.048 51.4363 123.222 51.2623C123.402 51.0869 123.52 50.8738 123.575 50.6232C123.636 50.3712 123.63 50.0725 123.555 49.7272C123.482 49.3884 123.379 49.1173 123.246 48.9141C123.112 48.7044 122.942 48.5501 122.737 48.4513C122.531 48.3526 122.285 48.3034 121.999 48.304C121.719 48.3031 121.393 48.3429 121.022 48.4232L119.087 48.8418ZM120.487 45.9504C121.471 45.7376 122.328 45.6477 123.058 45.6807C123.788 45.7138 124.408 45.8493 124.916 46.0871C125.425 46.325 125.828 46.6607 126.126 47.094C126.431 47.526 126.647 48.0352 126.774 48.6217C126.843 48.9409 126.864 49.2603 126.838 49.5798C126.81 49.8927 126.727 50.2007 126.588 50.5036C126.447 50.8 126.247 51.0888 125.987 51.3701C125.728 51.6514 125.4 51.9167 125.003 52.1661C125.991 52.1912 126.765 52.4093 127.324 52.8203C127.884 53.2313 128.251 53.8408 128.426 54.6487C128.557 55.2547 128.561 55.8437 128.439 56.4157C128.318 56.9878 128.071 57.5186 127.699 58.0082C127.333 58.4899 126.841 58.9134 126.225 59.2787C125.607 59.6375 124.871 59.9092 124.017 60.0938L118.329 61.3242L115.248 47.0835L120.487 45.9504ZM132.217 46.0734L132.936 49.3966L137.412 48.4283L137.941 50.8718L133.464 51.8401L134.198 55.2316L140.043 53.9674L140.592 56.5086L131.424 58.4917L128.344 44.251L137.512 42.2679L138.062 44.8092L132.217 46.0734ZM148.043 43.0184C147.98 43.196 147.901 43.3358 147.807 43.4379C147.719 43.5387 147.591 43.6074 147.422 43.644C147.272 43.6764 147.099 43.6661 146.903 43.6129C146.713 43.5518 146.494 43.4866 146.247 43.4172C146.007 43.3464 145.737 43.2957 145.437 43.2651C145.135 43.228 144.806 43.2482 144.447 43.3257C143.828 43.4596 143.394 43.6932 143.146 44.0266C142.903 44.3521 142.83 44.7396 142.927 45.1892C142.989 45.4759 143.131 45.694 143.355 45.8435C143.578 45.993 143.851 46.1045 144.174 46.1779C144.503 46.2499 144.87 46.3037 145.273 46.3392C145.681 46.3668 146.1 46.4093 146.528 46.4667C146.955 46.5176 147.378 46.5966 147.797 46.7038C148.222 46.8096 148.613 46.9774 148.97 47.2072C149.333 47.4356 149.652 47.7419 149.926 48.1259C150.198 48.5035 150.399 48.9887 150.527 49.5817C150.67 50.2398 150.689 50.8802 150.585 51.503C150.481 52.1257 150.257 52.6993 149.913 53.2238C149.575 53.7404 149.113 54.1915 148.528 54.5772C147.948 54.955 147.254 55.2313 146.446 55.4061C146.003 55.5019 145.54 55.5543 145.058 55.5631C144.582 55.5706 144.112 55.5393 143.646 55.4694C143.18 55.3931 142.733 55.2817 142.305 55.1354C141.878 54.9891 141.494 54.8061 141.153 54.5865L141.797 52.8308C141.851 52.7032 141.932 52.5901 142.041 52.4916C142.154 52.3853 142.286 52.3159 142.435 52.2834C142.631 52.2412 142.84 52.2608 143.062 52.3423C143.291 52.4224 143.545 52.5106 143.825 52.6069C144.112 52.7018 144.431 52.776 144.784 52.8293C145.137 52.8826 145.534 52.8614 145.977 52.7655C146.577 52.6359 147.015 52.4048 147.291 52.0722C147.565 51.7332 147.64 51.277 147.516 50.7036C147.444 50.3713 147.295 50.1206 147.067 49.9515C146.84 49.7825 146.561 49.662 146.232 49.59C145.909 49.5166 145.547 49.4686 145.147 49.4461C144.746 49.4236 144.334 49.3934 143.91 49.3556C143.484 49.3112 143.063 49.2387 142.645 49.138C142.226 49.0308 141.835 48.8597 141.47 48.6248C141.111 48.382 140.791 48.0555 140.511 47.6454C140.23 47.2287 140.018 46.6881 139.874 46.0234C139.759 45.4891 139.753 44.9446 139.858 44.3898C139.963 43.8351 140.182 43.3139 140.513 42.8262C140.844 42.3385 141.287 41.9118 141.842 41.5462C142.396 41.174 143.064 40.9034 143.846 40.7343C144.282 40.6398 144.714 40.5841 145.14 40.5669C145.571 40.5419 145.987 40.5576 146.388 40.6141C146.787 40.6641 147.167 40.749 147.527 40.8689C147.893 40.9809 148.228 41.1267 148.533 41.3063L148.043 43.0184ZM161.173 39.8919L157.166 40.7587L159.68 52.38L156.376 53.0945L153.863 41.4733L149.855 42.3401L149.289 39.7206L160.607 37.2725L161.173 39.8919ZM181.734 40.1511C181.957 41.1806 181.985 42.1772 181.818 43.1409C181.658 44.1032 181.326 44.9832 180.824 45.7808C180.319 46.5719 179.651 47.2519 178.819 47.8206C177.994 48.3879 177.028 48.7914 175.92 49.031C174.812 49.2706 173.762 49.3033 172.769 49.1292C171.777 48.9551 170.884 48.6128 170.092 48.1021C169.304 47.5835 168.636 46.9199 168.085 46.1112C167.542 45.3012 167.159 44.3814 166.936 43.3519C166.713 42.3223 166.682 41.3264 166.842 40.3641C167.009 39.4005 167.345 38.523 167.849 37.7319C168.359 36.9394 169.031 36.2587 169.862 35.69C170.694 35.1213 171.664 34.7171 172.772 34.4775C173.88 34.2379 174.927 34.2091 175.915 34.3912C176.907 34.5652 177.797 34.9083 178.583 35.4204C179.369 35.9325 180.033 36.5935 180.577 37.4036C181.127 38.2123 181.513 39.1281 181.734 40.1511ZM178.352 40.8826C178.2 40.1788 177.972 39.5665 177.668 39.0456C177.363 38.5182 176.996 38.0963 176.566 37.7801C176.142 37.4624 175.661 37.2529 175.12 37.1515C174.58 37.0501 173.994 37.0677 173.362 37.2045C172.723 37.3426 172.176 37.5702 171.719 37.8872C171.269 38.2028 170.913 38.5935 170.653 39.0591C170.398 39.5234 170.241 40.0587 170.181 40.665C170.12 41.2649 170.166 41.9166 170.318 42.6204C170.472 43.3306 170.701 43.9494 171.006 44.4769C171.31 44.9978 171.673 45.4171 172.097 45.7347C172.526 46.051 173.012 46.2598 173.552 46.3612C174.097 46.4547 174.689 46.4324 175.328 46.2943C175.96 46.1575 176.502 45.9346 176.953 45.6255C177.403 45.3099 177.756 44.92 178.01 44.4557C178.271 43.9901 178.432 43.4573 178.493 42.8575C178.553 42.2511 178.506 41.5928 178.352 40.8826ZM186.012 34.4376L186.792 38.0442L191.659 36.9913L192.211 39.5423L187.344 40.5952L188.542 46.137L185.219 46.8558L182.139 32.6151L191.307 30.6321L191.857 33.1733L186.012 34.4376ZM197.084 32.0427L197.864 35.6493L202.731 34.5965L203.283 37.1475L198.416 38.2003L199.614 43.7421L196.291 44.4609L193.211 30.2202L202.379 28.2372L202.929 30.7784L197.084 32.0427ZM208.156 29.6478L208.875 32.9709L213.351 32.0027L213.88 34.4462L209.403 35.4144L210.137 38.806L215.982 37.5418L216.531 40.083L207.363 42.066L204.283 27.8254L213.451 25.8423L214.001 28.3836L208.156 29.6478ZM221.57 31.0947C222.019 30.9974 222.389 30.8596 222.677 30.6811C222.971 30.4948 223.198 30.2788 223.356 30.0331C223.514 29.7874 223.61 29.5211 223.643 29.2342C223.675 28.9408 223.658 28.6377 223.59 28.325C223.455 27.6994 223.144 27.2551 222.657 26.9921C222.177 26.7276 221.51 26.6877 220.657 26.8723L219.327 27.1598L220.241 31.3822L221.57 31.0947ZM230.22 37.1222L227.229 37.7692C226.675 37.889 226.232 37.7664 225.901 37.4015L222.642 33.7788C222.493 33.6268 222.341 33.5265 222.188 33.4779C222.033 33.4228 221.828 33.4227 221.574 33.4777L220.733 33.6595L221.873 38.9277L218.569 39.6423L215.489 25.4016L220.122 24.3995C221.151 24.1768 222.051 24.0947 222.821 24.1533C223.596 24.204 224.252 24.369 224.79 24.6482C225.334 24.9261 225.766 25.2998 226.086 25.7695C226.406 26.2392 226.631 26.777 226.763 27.383C226.863 27.8456 226.895 28.2956 226.86 28.7329C226.825 29.1701 226.725 29.5908 226.56 29.9948C226.394 30.3923 226.161 30.7666 225.862 31.1178C225.569 31.4676 225.21 31.7805 224.786 32.0565C225.025 32.1208 225.257 32.2172 225.483 32.3457C225.707 32.4677 225.919 32.6266 226.118 32.8222L230.22 37.1222Z" fill="white"/>
</g>
<g filter="url(#filter1_d_72_836)">
<path d="M93.5553 144.25L88.5819 145.379L83.7432 124.066L88.7166 122.937L93.5553 144.25ZM109.034 122.447L103.036 123.808L106.985 141.201L102.041 142.323L98.0921 124.931L92.0947 126.292L91.2047 122.372L108.144 118.526L109.034 122.447ZM112.868 115.977C113.585 116.696 114.137 117.478 114.523 118.324C114.91 119.169 115.119 120.045 115.15 120.95C115.189 121.844 115.05 122.742 114.732 123.645C114.414 124.548 113.913 125.415 113.23 126.247L111.604 125.724C111.462 125.684 111.355 125.621 111.285 125.535C111.211 125.439 111.164 125.342 111.142 125.244C111.127 125.135 111.129 125.032 111.148 124.935C111.175 124.827 111.215 124.73 111.267 124.647C111.348 124.505 111.429 124.318 111.509 124.084C111.589 123.851 111.652 123.585 111.697 123.288C111.743 122.99 111.758 122.674 111.743 122.339C111.736 121.992 111.682 121.64 111.581 121.284C111.477 120.918 111.322 120.553 111.117 120.189C110.909 119.816 110.627 119.455 110.271 119.105C109.979 118.812 109.854 118.533 109.896 118.267C109.948 117.999 110.108 117.778 110.376 117.604L112.868 115.977ZM130.042 118.107C129.949 118.375 129.833 118.586 129.694 118.74C129.564 118.893 129.373 118.998 129.119 119.055C128.895 119.106 128.636 119.093 128.342 119.017C128.055 118.928 127.726 118.833 127.354 118.733C126.993 118.631 126.587 118.559 126.136 118.517C125.684 118.466 125.189 118.502 124.653 118.624C123.727 118.834 123.08 119.191 122.712 119.695C122.352 120.187 122.248 120.769 122.401 121.442C122.499 121.871 122.716 122.196 123.053 122.417C123.39 122.638 123.802 122.801 124.287 122.906C124.782 123.009 125.332 123.084 125.938 123.131C126.551 123.166 127.179 123.223 127.823 123.303C128.464 123.373 129.1 123.485 129.729 123.639C130.369 123.791 130.958 124.037 131.496 124.376C132.045 124.713 132.527 125.168 132.944 125.739C133.359 126.302 133.667 127.026 133.869 127.914C134.092 128.899 134.131 129.859 133.984 130.795C133.838 131.73 133.511 132.594 133.004 133.386C132.504 134.166 131.818 134.85 130.947 135.437C130.083 136.013 129.046 136.438 127.837 136.713C127.174 136.863 126.481 136.949 125.757 136.969C125.044 136.988 124.337 136.948 123.638 136.851C122.937 136.743 122.265 136.583 121.622 136.37C120.979 136.157 120.4 135.889 119.885 135.565L120.823 132.921C120.903 132.729 121.023 132.558 121.184 132.409C121.352 132.247 121.549 132.141 121.773 132.09C122.066 132.024 122.379 132.05 122.714 132.169C123.058 132.286 123.441 132.414 123.863 132.554C124.294 132.692 124.774 132.798 125.304 132.873C125.834 132.948 126.43 132.91 127.093 132.759C127.99 132.555 128.643 132.202 129.052 131.699C129.459 131.186 129.565 130.501 129.37 129.643C129.257 129.145 129.028 128.772 128.684 128.522C128.341 128.272 127.921 128.095 127.426 127.992C126.941 127.887 126.398 127.821 125.796 127.793C125.195 127.765 124.576 127.726 123.94 127.676C123.3 127.616 122.667 127.514 122.039 127.369C121.41 127.215 120.819 126.964 120.269 126.618C119.726 126.259 119.242 125.774 118.816 125.163C118.388 124.543 118.061 123.735 117.835 122.74C117.654 121.941 117.637 121.124 117.787 120.29C117.936 119.456 118.255 118.671 118.744 117.935C119.233 117.198 119.891 116.551 120.718 115.994C121.543 115.428 122.541 115.012 123.711 114.746C124.364 114.597 125.01 114.507 125.649 114.475C126.295 114.431 126.92 114.448 127.522 114.527C128.122 114.595 128.693 114.717 129.235 114.891C129.785 115.054 130.29 115.267 130.75 115.532L130.042 118.107ZM152.672 126.906C153.325 126.757 153.838 126.554 154.21 126.295C154.591 126.034 154.869 125.745 155.044 125.429C155.218 125.112 155.311 124.778 155.324 124.427C155.336 124.075 155.304 123.729 155.226 123.388C155.138 122.998 155.004 122.659 154.826 122.371C154.658 122.081 154.423 121.858 154.12 121.701C153.828 121.542 153.463 121.45 153.027 121.426C152.591 121.402 152.061 121.461 151.437 121.602L147.985 122.386L149.19 127.696L152.672 126.906ZM146.039 113.814L147.234 119.08L149.809 118.496C150.355 118.372 150.838 118.221 151.26 118.043C151.681 117.866 152.02 117.645 152.278 117.381C152.546 117.116 152.719 116.794 152.798 116.417C152.886 116.039 152.871 115.591 152.754 115.074C152.639 114.567 152.48 114.162 152.278 113.859C152.074 113.546 151.817 113.318 151.507 113.173C151.197 113.028 150.828 112.958 150.398 112.963C149.979 112.966 149.491 113.031 148.935 113.157L146.039 113.814ZM148.095 109.456C149.567 109.122 150.851 108.974 151.947 109.012C153.043 109.05 153.974 109.244 154.74 109.593C155.506 109.942 156.117 110.439 156.571 111.085C157.035 111.728 157.366 112.488 157.565 113.366C157.674 113.844 157.711 114.323 157.676 114.802C157.639 115.272 157.519 115.735 157.315 116.192C157.109 116.639 156.813 117.075 156.428 117.501C156.042 117.927 155.554 118.33 154.964 118.71C156.446 118.732 157.609 119.047 158.455 119.655C159.301 120.263 159.861 121.172 160.135 122.381C160.341 123.288 160.357 124.171 160.183 125.031C160.009 125.891 159.647 126.691 159.097 127.431C158.555 128.159 157.824 128.802 156.905 129.359C155.983 129.907 154.884 130.326 153.606 130.616L145.093 132.549L140.254 111.236L148.095 109.456ZM165.69 109.46L166.819 114.434L173.519 112.913L174.349 116.57L167.649 118.091L168.802 123.167L177.549 121.181L178.413 124.984L164.692 128.099L159.853 106.786L173.574 103.671L174.437 107.474L165.69 109.46ZM190.876 113.587L187.576 108.199C187.346 107.861 187.091 107.463 186.812 107.003C186.531 106.533 186.242 106.025 185.943 105.478C185.932 106.106 185.901 106.692 185.85 107.237C185.8 107.781 185.743 108.256 185.681 108.659L185.039 114.912L190.876 113.587ZM200.581 119.951L196.748 120.821C196.319 120.918 195.951 120.899 195.643 120.764C195.334 120.619 195.075 120.406 194.868 120.125L192.766 116.695L184.662 118.535L184.248 122.536C184.203 122.834 184.064 123.127 183.832 123.415C183.608 123.692 183.291 123.876 182.881 123.969L179.02 124.846L182.431 101.66L187.492 100.511L200.581 119.951ZM209.725 113.768C210.388 113.617 210.954 113.376 211.422 113.044C211.898 112.7 212.27 112.283 212.537 111.791C212.805 111.3 212.965 110.74 213.018 110.113C213.078 109.474 213.023 108.779 212.852 108.028L209.986 95.4044L214.93 94.2819L217.796 106.906C218.093 108.212 218.151 109.461 217.97 110.65C217.798 111.838 217.407 112.916 216.797 113.885C216.186 114.854 215.365 115.687 214.334 116.382C213.302 117.078 212.079 117.586 210.665 117.907C209.241 118.231 207.914 118.301 206.683 118.119C205.452 117.937 204.352 117.541 203.383 116.93C202.414 116.32 201.596 115.516 200.928 114.519C200.261 113.522 199.779 112.37 199.482 111.064L196.616 98.4398L201.56 97.3173L204.423 109.926C204.594 110.677 204.839 111.329 205.159 111.882C205.487 112.423 205.879 112.862 206.335 113.199C206.789 113.527 207.3 113.744 207.868 113.851C208.443 113.946 209.062 113.918 209.725 113.768ZM234.998 93.8481L229.001 95.2097L232.949 112.602L228.005 113.725L224.056 96.3322L218.059 97.6938L217.169 93.7736L234.108 89.9278L234.998 93.8481ZM249.829 100.248L251.669 108.352L246.725 109.474L244.885 101.371L234.163 89.9154L238.522 88.9257C238.951 88.8283 239.311 88.8543 239.601 89.0037C239.899 89.1412 240.166 89.3472 240.403 89.6216L244.824 95.1396C245.188 95.5696 245.521 95.9759 245.824 96.3585C246.124 96.7314 246.398 97.1049 246.647 97.479C246.698 97.0265 246.769 96.5695 246.859 96.1081C246.957 95.6347 247.078 95.1304 247.223 94.595L248.799 87.7153C248.838 87.573 248.892 87.4274 248.961 87.2785C249.03 87.1296 249.117 86.992 249.221 86.8657C249.333 86.7274 249.466 86.6102 249.618 86.5141C249.778 86.406 249.961 86.3287 250.165 86.2822L254.554 85.2859L249.829 100.248Z" fill="white"/>
</g>
<g filter="url(#filter2_d_72_836)">
<path d="M74.124 206.078L83.2702 204.265L85.4222 215.124C84.2951 216.351 83.0273 217.33 81.6187 218.062C80.2218 218.791 78.7112 219.317 77.0868 219.639C74.968 220.059 72.9722 220.112 71.0995 219.798C69.2362 219.47 67.571 218.845 66.1041 217.925C64.6349 216.993 63.4062 215.793 62.4179 214.325C61.4274 212.845 60.7455 211.164 60.3723 209.28C59.992 207.362 59.9611 205.539 60.2794 203.812C60.5955 202.073 61.2266 200.505 62.1727 199.106C63.1307 197.705 64.3812 196.515 65.9244 195.537C67.4794 194.556 69.2927 193.86 71.3644 193.449C72.4356 193.237 73.4595 193.126 74.4362 193.116C75.4129 193.106 76.3259 193.176 77.1752 193.325C78.0363 193.473 78.8384 193.693 79.5815 193.986C80.3247 194.279 81.0042 194.622 81.6201 195.014L80.4112 197.987C80.2221 198.453 79.9191 198.776 79.5022 198.956C79.0972 199.135 78.6171 199.12 78.062 198.912C77.5352 198.722 77.0401 198.57 76.5767 198.454C76.1227 198.323 75.6651 198.237 75.2039 198.194C74.7427 198.15 74.265 198.147 73.7707 198.184C73.2764 198.221 72.7291 198.299 72.1288 198.418C71.0106 198.639 70.0438 199.039 69.2285 199.616C68.4109 200.182 67.7554 200.887 67.2621 201.731C66.7805 202.573 66.4694 203.533 66.3286 204.613C66.1856 205.682 66.2365 206.834 66.4814 208.07C66.752 209.435 67.1807 210.61 67.7673 211.595C68.3539 212.58 69.0609 213.369 69.8883 213.964C70.7274 214.556 71.6622 214.952 72.6926 215.151C73.7325 215.337 74.8351 215.314 76.0004 215.083C76.7185 214.941 77.3519 214.742 77.9007 214.486C78.4612 214.228 78.9948 213.927 79.5014 213.582L78.7281 209.68L76.1855 210.183C75.8088 210.258 75.4947 210.216 75.2432 210.058C74.9917 209.9 74.8356 209.668 74.7749 209.362L74.124 206.078ZM91.7403 194.476L92.9301 200.479L101.017 198.877L101.892 203.291L93.8049 204.893L95.0191 211.02L105.578 208.928L106.488 213.518L89.9256 216.801L84.8273 191.075L101.389 187.793L102.299 192.383L91.7403 194.476ZM124.495 188.131L117.255 189.566L121.416 210.56L115.448 211.743L111.287 190.749L104.048 192.184L103.11 187.452L123.557 183.399L124.495 188.131ZM140.838 189.388C141.302 189.198 141.754 189.041 142.195 188.917C142.635 188.794 143.067 188.69 143.491 188.606C144.844 188.337 146.08 188.307 147.198 188.513C148.315 188.72 149.298 189.112 150.147 189.69C150.993 190.257 151.688 190.987 152.233 191.883C152.787 192.764 153.172 193.752 153.389 194.846C153.662 196.224 153.664 197.532 153.396 198.772C153.137 199.998 152.654 201.109 151.946 202.105C151.239 203.102 150.324 203.95 149.203 204.649C148.091 205.334 146.817 205.819 145.381 206.104C144.545 206.27 143.727 206.34 142.927 206.315C142.138 206.288 141.38 206.194 140.65 206.032C139.931 205.857 139.25 205.631 138.608 205.354C137.963 205.066 137.367 204.744 136.82 204.388L138.067 201.792C138.197 201.521 138.368 201.304 138.58 201.139C138.789 200.963 139.03 200.848 139.3 200.795C139.654 200.725 140.003 200.759 140.349 200.899C140.704 201.024 141.087 201.168 141.499 201.332C141.92 201.481 142.396 201.6 142.928 201.691C143.46 201.781 144.09 201.754 144.82 201.609C145.55 201.465 146.15 201.223 146.622 200.885C147.091 200.535 147.443 200.123 147.679 199.648C147.925 199.159 148.064 198.624 148.095 198.043C148.136 197.447 148.094 196.832 147.968 196.196C147.721 194.948 147.18 194.071 146.345 193.563C145.508 193.044 144.442 192.913 143.147 193.169C141.994 193.398 140.907 193.84 139.887 194.495L136.315 194.248L135.953 180.943L149.125 178.332L149.573 180.592C149.648 180.969 149.657 181.322 149.599 181.651C149.542 181.981 149.408 182.289 149.195 182.576C148.993 182.848 148.698 183.09 148.312 183.301C147.923 183.501 147.44 183.657 146.863 183.772L140.719 184.989L140.838 189.388ZM174.011 186.759C174.457 189.007 174.601 191.003 174.445 192.747C174.289 194.491 173.889 195.989 173.244 197.242C172.611 198.493 171.759 199.5 170.687 200.263C169.626 201.024 168.413 201.539 167.048 201.81C165.683 202.081 164.365 202.066 163.094 201.768C161.836 201.467 160.675 200.859 159.613 199.944C158.551 199.029 157.616 197.795 156.806 196.243C156.009 194.688 155.387 192.787 154.942 190.538C154.496 188.29 154.346 186.295 154.49 184.554C154.646 182.81 155.04 181.313 155.673 180.062C156.306 178.811 157.148 177.813 158.199 177.066C159.259 176.305 160.472 175.79 161.838 175.519C163.203 175.249 164.521 175.263 165.791 175.561C167.071 175.846 168.242 176.446 169.304 177.361C170.378 178.274 171.32 179.506 172.129 181.058C172.938 182.611 173.565 184.511 174.011 186.759ZM168.361 187.879C168.009 186.102 167.609 184.67 167.161 183.584C166.711 182.487 166.234 181.652 165.729 181.079C165.235 180.504 164.73 180.145 164.213 180.003C163.693 179.849 163.192 179.82 162.709 179.916C162.226 180.011 161.774 180.229 161.352 180.57C160.94 180.896 160.615 181.419 160.379 182.139C160.154 182.857 160.043 183.808 160.045 184.994C160.058 186.166 160.24 187.641 160.592 189.419C160.947 191.208 161.342 192.646 161.778 193.734C162.225 194.82 162.691 195.658 163.175 196.247C163.668 196.822 164.168 197.188 164.677 197.344C165.194 197.486 165.694 197.509 166.177 197.413C166.659 197.318 167.113 197.106 167.537 196.777C167.959 196.436 168.288 195.906 168.525 195.187C168.771 194.453 168.893 193.499 168.893 192.324C168.893 191.15 168.715 189.668 168.361 187.879ZM186.933 177.317C187.119 178.259 187.119 179.152 186.932 179.996C186.744 180.841 186.424 181.602 185.971 182.279C185.516 182.944 184.942 183.504 184.249 183.96C183.568 184.413 182.821 184.72 182.009 184.88C181.115 185.058 180.26 185.068 179.446 184.911C178.644 184.752 177.911 184.451 177.249 184.007C176.595 183.55 176.038 182.963 175.578 182.246C175.118 181.53 174.795 180.701 174.608 179.76C174.415 178.783 174.393 177.869 174.543 177.02C174.69 176.159 174.978 175.392 175.408 174.72C175.849 174.045 176.41 173.481 177.091 173.028C177.782 172.561 178.574 172.239 179.469 172.062C180.363 171.885 181.219 171.88 182.035 172.049C182.861 172.203 183.6 172.509 184.254 172.967C184.919 173.422 185.484 174.02 185.949 174.76C186.411 175.488 186.739 176.34 186.933 177.317ZM182.73 178.15C182.611 177.55 182.461 177.066 182.278 176.698C182.104 176.317 181.906 176.026 181.683 175.825C181.459 175.625 181.215 175.502 180.949 175.457C180.695 175.409 180.427 175.414 180.144 175.47C179.862 175.526 179.612 175.624 179.395 175.765C179.178 175.906 179.011 176.11 178.893 176.378C178.775 176.646 178.708 176.99 178.693 177.409C178.676 177.816 178.727 178.319 178.846 178.92C178.958 179.485 179.098 179.946 179.267 180.304C179.436 180.662 179.625 180.937 179.834 181.128C180.043 181.319 180.275 181.438 180.529 181.485C180.783 181.533 181.051 181.529 181.334 181.473C181.616 181.417 181.866 181.318 182.083 181.178C182.311 181.034 182.492 180.833 182.624 180.575C182.756 180.316 182.832 179.989 182.851 179.594C182.883 179.196 182.842 178.715 182.73 178.15ZM193.945 170.294C194.082 170.059 194.264 169.833 194.49 169.617C194.714 169.389 195.055 169.23 195.515 169.139L199.505 168.348L185.062 197.139C184.93 197.397 184.744 197.63 184.503 197.837C184.272 198.029 183.969 198.163 183.592 198.238L179.496 199.049L193.945 170.294ZM204.395 187.839C204.582 188.781 204.583 189.68 204.398 190.536C204.21 191.381 203.89 192.141 203.437 192.818C202.982 193.484 202.408 194.044 201.715 194.499C201.034 194.952 200.287 195.259 199.475 195.42C198.581 195.597 197.726 195.608 196.912 195.451C196.11 195.292 195.378 194.991 194.715 194.547C194.061 194.089 193.505 193.502 193.045 192.786C192.582 192.058 192.258 191.223 192.071 190.281C191.877 189.304 191.855 188.391 192.005 187.542C192.153 186.681 192.441 185.914 192.871 185.242C193.312 184.567 193.873 184.003 194.554 183.55C195.244 183.083 196.037 182.761 196.931 182.584C197.826 182.406 198.681 182.402 199.498 182.571C200.324 182.725 201.063 183.031 201.717 183.489C202.382 183.944 202.947 184.542 203.411 185.282C203.874 186.01 204.202 186.862 204.395 187.839ZM200.193 188.672C200.076 188.083 199.927 187.605 199.744 187.238C199.57 186.856 199.372 186.565 199.149 186.365C198.925 186.164 198.681 186.042 198.415 185.996C198.161 185.949 197.893 185.953 197.61 186.009C197.328 186.065 197.078 186.164 196.861 186.304C196.645 186.445 196.477 186.65 196.359 186.918C196.241 187.186 196.174 187.529 196.159 187.948C196.142 188.355 196.192 188.853 196.309 189.442C196.421 190.007 196.561 190.468 196.73 190.826C196.899 191.184 197.088 191.459 197.297 191.65C197.506 191.841 197.737 191.96 197.992 192.007C198.246 192.055 198.514 192.051 198.796 191.995C199.079 191.939 199.329 191.84 199.545 191.7C199.774 191.556 199.954 191.355 200.086 191.097C200.219 190.838 200.295 190.511 200.314 190.116C200.345 189.718 200.305 189.237 200.193 188.672ZM240.151 173.651C240.52 175.511 240.539 177.306 240.209 179.035C239.89 180.762 239.266 182.335 238.337 183.755C237.405 185.163 236.181 186.366 234.666 187.363C233.163 188.358 231.411 189.054 229.41 189.451C227.409 189.848 225.518 189.874 223.737 189.529C221.956 189.185 220.36 188.541 218.95 187.597C217.549 186.639 216.366 185.424 215.401 183.951C214.448 182.476 213.788 180.809 213.419 178.949C213.051 177.089 213.025 175.296 213.344 173.569C213.674 171.84 214.305 170.271 215.237 168.863C216.181 167.453 217.41 166.249 218.925 165.251C220.44 164.254 222.198 163.557 224.199 163.16C226.2 162.764 228.087 162.745 229.858 163.103C231.639 163.447 233.229 164.093 234.628 165.039C236.026 165.985 237.202 167.196 238.155 168.67C239.119 170.143 239.785 171.803 240.151 173.651ZM234.042 174.862C233.79 173.591 233.399 172.482 232.869 171.535C232.336 170.576 231.688 169.805 230.924 169.223C230.172 168.638 229.311 168.246 228.342 168.046C227.373 167.847 226.317 167.86 225.176 168.086C224.022 168.315 223.029 168.708 222.198 169.264C221.378 169.818 220.726 170.51 220.242 171.34C219.77 172.167 219.47 173.126 219.344 174.215C219.215 175.293 219.276 176.467 219.528 177.738C219.783 179.022 220.176 180.142 220.709 181.101C221.239 182.048 221.88 182.814 222.632 183.399C223.396 183.982 224.262 184.373 225.232 184.572C226.21 184.757 227.276 184.736 228.43 184.507C229.572 184.281 230.554 183.897 231.376 183.354C232.196 182.8 232.842 182.11 233.314 181.282C233.798 180.452 234.105 179.498 234.233 178.421C234.36 177.331 234.296 176.145 234.042 174.862ZM248.029 163.502L249.32 170.018L258.113 168.275L259.026 172.883L250.233 174.626L252.217 184.637L246.214 185.827L241.116 160.101L257.678 156.819L258.587 161.41L248.029 163.502ZM268.03 159.538L269.322 166.054L278.115 164.311L279.028 168.919L270.235 170.662L272.219 180.673L266.216 181.863L261.117 156.137L277.679 152.855L278.589 157.446L268.03 159.538Z" fill="white"/>
</g>
<defs>
<filter id="filter0_d_72_836" x="111.214" y="22.7252" width="123.039" height="46.7554" filterUnits="userSpaceOnUse" color-interpolation-filters="sRGB">
<feFlood flood-opacity="0" result="BackgroundImageFix"/>
<feColorMatrix in="SourceAlpha" type="matrix" values="0 0 0 0 0 0 0 0 0 0 0 0 0 0 0 0 0 0 127 0" result="hardAlpha"/>
<feOffset dy="4"/>
<feGaussianBlur stdDeviation="2"/>
<feComposite in2="hardAlpha" operator="out"/>
<feColorMatrix type="matrix" values="0 0 0 0 0 0 0 0 0 0 0 0 0 0 0 0 0 0 0.25 0"/>
<feBlend mode="normal" in2="BackgroundImageFix" result="effect1_dropShadow_72_836"/>
<feBlend mode="normal" in="SourceGraphic" in2="effect1_dropShadow_72_836" result="shape"/>
</filter>
<filter id="filter1_d_72_836" x="79.4243" y="83.8816" width="184.021" height="69.7312" filterUnits="userSpaceOnUse" color-interpolation-filters="sRGB">
<feFlood flood-opacity="0" result="BackgroundImageFix"/>
<feColorMatrix in="SourceAlpha" type="matrix" values="0 0 0 0 0 0 0 0 0 0 0 0 0 0 0 0 0 0 127 0" result="hardAlpha"/>
<feOffset dy="4"/>
<feGaussianBlur stdDeviation="2"/>
<feComposite in2="hardAlpha" operator="out"/>
<feColorMatrix type="matrix" values="0 0 0 0 0 0 0 0 0 0 0 0 0 0 0 0 0 0 0.25 0"/>
<feBlend mode="normal" in2="BackgroundImageFix" result="effect1_dropShadow_72_836"/>
<feBlend mode="normal" in="SourceGraphic" in2="effect1_dropShadow_72_836" result="shape"/>
</filter>
<filter id="filter2_d_72_836" x="53.7688" y="152.573" width="233.072" height="77.8972" filterUnits="userSpaceOnUse" color-interpolation-filters="sRGB">
<feFlood flood-opacity="0" result="BackgroundImageFix"/>
<feColorMatrix in="SourceAlpha" type="matrix" values="0 0 0 0 0 0 0 0 0 0 0 0 0 0 0 0 0 0 127 0" result="hardAlpha"/>
<feOffset dy="4"/>
<feGaussianBlur stdDeviation="2"/>
<feComposite in2="hardAlpha" operator="out"/>
<feColorMatrix type="matrix" values="0 0 0 0 0 0 0 0 0 0 0 0 0 0 0 0 0 0 0.25 0"/>
<feBlend mode="normal" in2="BackgroundImageFix" result="effect1_dropShadow_72_836"/>
<feBlend mode="normal" in="SourceGraphic" in2="effect1_dropShadow_72_836" result="shape"/>
</filter>
<linearGradient id="paint0_linear_72_836" x1="0.999996" y1="187.5" x2="343" y2="187.5" gradientUnits="userSpaceOnUse">
<stop stop-color="#C891F4"/>
<stop offset="1" stop-color="#EFEFF5"/>
</linearGradient>
<linearGradient id="paint1_linear_72_836" x1="0.999996" y1="187.5" x2="343" y2="187.5" gradientUnits="userSpaceOnUse">
<stop stop-color="#C891F4"/>
<stop offset="1" stop-color="#EFEFF5"/>
</linearGradient>
<linearGradient id="paint2_linear_72_836" x1="0" y1="187" x2="343" y2="187" gradientUnits="userSpaceOnUse">
<stop stop-color="#C471F5"/>
<stop offset="1" stop-color="#FA71CD"/>
</linearGradient>
<linearGradient id="paint3_linear_72_836" x1="0" y1="187" x2="343" y2="187" gradientUnits="userSpaceOnUse">
<stop stop-color="#C471F5"/>
<stop offset="1" stop-color="#FA71CD"/>
</linearGradient>
<linearGradient id="paint4_linear_72_836" x1="0" y1="187" x2="343" y2="187" gradientUnits="userSpaceOnUse">
<stop stop-color="#C471F5"/>
<stop offset="1" stop-color="#FA71CD"/>
</linearGradient>
</defs>
</svg>
