<svg width="72" height="32" viewBox="0 0 72 32" fill="none" xmlns="http://www.w3.org/2000/svg">
<rect x="1.72864" y="0.0578613" width="67.1392" height="9.39949" rx="4.69975" transform="rotate(-0.049402 1.72864 0.0578613)" fill="url(#paint0_linear_71_265)"/>
<rect x="2.67334" y="21.9683" width="67.1392" height="9.39949" rx="4.69975" transform="rotate(-0.049402 2.67334 21.9683)" fill="#C4C4C4"/>
<rect x="2.67334" y="21.9683" width="67.1392" height="9.39949" rx="4.69975" transform="rotate(-0.049402 2.67334 21.9683)" fill="url(#paint1_linear_71_265)"/>
<rect y="10.0015" width="67.1392" height="9.39949" rx="4.69975" transform="rotate(-7.26126 0 10.0015)" fill="url(#paint2_linear_71_265)"/>
<rect x="0.489624" y="21.3564" width="67.1392" height="9.39949" rx="4.69975" transform="rotate(-7.26126 0.489624 21.3564)" fill="url(#paint3_linear_71_265)"/>
<rect x="4.50024" y="10.5129" width="67.1392" height="9.39949" rx="4.69975" transform="rotate(1.71317 4.50024 10.5129)" fill="url(#paint4_linear_71_265)"/>
<path d="M16.3754 25V15.112L15.5594 14.944C15.2794 14.88 15.0514 14.78 14.8754 14.644C14.7074 14.508 14.6234 14.308 14.6234 14.044V12.58H16.3754V11.872C16.3754 11.16 16.4874 10.516 16.7114 9.94C16.9434 9.364 17.2714 8.872 17.6954 8.464C18.1274 8.056 18.6514 7.74 19.2674 7.516C19.8834 7.292 20.5834 7.18 21.3674 7.18C21.6714 7.18 21.9514 7.2 22.2074 7.24C22.4634 7.272 22.7314 7.328 23.0114 7.408L22.9394 9.22C22.9314 9.348 22.8994 9.456 22.8434 9.544C22.7874 9.624 22.7114 9.692 22.6154 9.748C22.5274 9.796 22.4314 9.832 22.3274 9.856C22.2234 9.88 22.1194 9.892 22.0154 9.892C21.6874 9.892 21.3954 9.924 21.1394 9.988C20.8834 10.052 20.6674 10.168 20.4914 10.336C20.3234 10.496 20.1954 10.712 20.1074 10.984C20.0194 11.248 19.9754 11.584 19.9754 11.992V12.58H22.8914V15.124H20.0954V25H16.3754ZM27.7205 14.476C28.1045 13.804 28.5445 13.276 29.0405 12.892C29.5445 12.508 30.1205 12.316 30.7685 12.316C31.3285 12.316 31.7845 12.448 32.1365 12.712L31.8965 15.448C31.8565 15.624 31.7885 15.744 31.6925 15.808C31.6045 15.872 31.4805 15.904 31.3205 15.904C31.2565 15.904 31.1725 15.9 31.0685 15.892C30.9645 15.884 30.8565 15.876 30.7445 15.868C30.6325 15.852 30.5165 15.84 30.3965 15.832C30.2845 15.816 30.1805 15.808 30.0845 15.808C29.5405 15.808 29.1045 15.952 28.7765 16.24C28.4565 16.528 28.1845 16.928 27.9605 17.44V25H24.2405V12.556H26.4485C26.6325 12.556 26.7845 12.572 26.9045 12.604C27.0325 12.636 27.1365 12.688 27.2165 12.76C27.3045 12.824 27.3685 12.912 27.4085 13.024C27.4565 13.136 27.4965 13.272 27.5285 13.432L27.7205 14.476ZM40.9336 17.284C40.9336 16.988 40.8936 16.7 40.8136 16.42C40.7416 16.14 40.6176 15.892 40.4416 15.676C40.2736 15.452 40.0496 15.272 39.7696 15.136C39.4896 15 39.1496 14.932 38.7496 14.932C38.0456 14.932 37.4936 15.136 37.0936 15.544C36.6936 15.944 36.4296 16.524 36.3016 17.284H40.9336ZM36.2536 19.444C36.3736 20.484 36.6896 21.24 37.2016 21.712C37.7136 22.176 38.3736 22.408 39.1816 22.408C39.6136 22.408 39.9856 22.356 40.2976 22.252C40.6096 22.148 40.8856 22.032 41.1256 21.904C41.3736 21.776 41.5976 21.66 41.7976 21.556C42.0056 21.452 42.2216 21.4 42.4456 21.4C42.7416 21.4 42.9656 21.508 43.1176 21.724L44.1976 23.056C43.8136 23.496 43.3976 23.856 42.9496 24.136C42.5096 24.408 42.0536 24.624 41.5816 24.784C41.1176 24.936 40.6496 25.04 40.1776 25.096C39.7136 25.16 39.2696 25.192 38.8456 25.192C37.9736 25.192 37.1536 25.052 36.3856 24.772C35.6256 24.484 34.9576 24.06 34.3816 23.5C33.8136 22.94 33.3616 22.244 33.0256 21.412C32.6976 20.58 32.5336 19.612 32.5336 18.508C32.5336 17.676 32.6736 16.888 32.9536 16.144C33.2416 15.4 33.6496 14.748 34.1776 14.188C34.7136 13.628 35.3576 13.184 36.1096 12.856C36.8696 12.528 37.7256 12.364 38.6776 12.364C39.5016 12.364 40.2536 12.492 40.9336 12.748C41.6216 13.004 42.2096 13.376 42.6976 13.864C43.1936 14.352 43.5776 14.952 43.8496 15.664C44.1296 16.368 44.2696 17.168 44.2696 18.064C44.2696 18.344 44.2576 18.572 44.2336 18.748C44.2096 18.924 44.1656 19.064 44.1016 19.168C44.0376 19.272 43.9496 19.344 43.8376 19.384C43.7336 19.424 43.5976 19.444 43.4296 19.444H36.2536ZM53.8711 17.284C53.8711 16.988 53.8311 16.7 53.7511 16.42C53.6791 16.14 53.5551 15.892 53.3791 15.676C53.2111 15.452 52.9871 15.272 52.7071 15.136C52.4271 15 52.0871 14.932 51.6871 14.932C50.9831 14.932 50.4311 15.136 50.0311 15.544C49.6311 15.944 49.3671 16.524 49.2391 17.284H53.8711ZM49.1911 19.444C49.3111 20.484 49.6271 21.24 50.1391 21.712C50.6511 22.176 51.3111 22.408 52.1191 22.408C52.5511 22.408 52.9231 22.356 53.2351 22.252C53.5471 22.148 53.8231 22.032 54.0631 21.904C54.3111 21.776 54.5351 21.66 54.7351 21.556C54.9431 21.452 55.1591 21.4 55.3831 21.4C55.6791 21.4 55.9031 21.508 56.0551 21.724L57.1351 23.056C56.7511 23.496 56.3351 23.856 55.8871 24.136C55.4471 24.408 54.9911 24.624 54.5191 24.784C54.0551 24.936 53.5871 25.04 53.1151 25.096C52.6511 25.16 52.2071 25.192 51.7831 25.192C50.9111 25.192 50.0911 25.052 49.3231 24.772C48.5631 24.484 47.8951 24.06 47.3191 23.5C46.7511 22.94 46.2991 22.244 45.9631 21.412C45.6351 20.58 45.4711 19.612 45.4711 18.508C45.4711 17.676 45.6111 16.888 45.8911 16.144C46.1791 15.4 46.5871 14.748 47.1151 14.188C47.6511 13.628 48.2951 13.184 49.0471 12.856C49.8071 12.528 50.6631 12.364 51.6151 12.364C52.4391 12.364 53.1911 12.492 53.8711 12.748C54.5591 13.004 55.1471 13.376 55.6351 13.864C56.1311 14.352 56.5151 14.952 56.7871 15.664C57.0671 16.368 57.2071 17.168 57.2071 18.064C57.2071 18.344 57.1951 18.572 57.1711 18.748C57.1471 18.924 57.1031 19.064 57.0391 19.168C56.9751 19.272 56.8871 19.344 56.7751 19.384C56.6711 19.424 56.5351 19.444 56.3671 19.444H49.1911Z" fill="black"/>
<defs>
<linearGradient id="paint0_linear_71_265" x1="1.72864" y1="4.75761" x2="68.8679" y2="4.75761" gradientUnits="userSpaceOnUse">
<stop stop-color="#4FACFE"/>
<stop offset="1" stop-color="#00F2FE"/>
</linearGradient>
<linearGradient id="paint1_linear_71_265" x1="2.67334" y1="26.668" x2="69.8126" y2="26.668" gradientUnits="userSpaceOnUse">
<stop stop-color="#4FACFE"/>
<stop offset="1" stop-color="#00F2FE"/>
</linearGradient>
<linearGradient id="paint2_linear_71_265" x1="0" y1="14.7012" x2="67.1392" y2="14.7012" gradientUnits="userSpaceOnUse">
<stop stop-color="#00F2FE"/>
<stop offset="1" stop-color="#4FACFE"/>
</linearGradient>
<linearGradient id="paint3_linear_71_265" x1="0.489624" y1="26.0562" x2="67.6289" y2="26.0562" gradientUnits="userSpaceOnUse">
<stop stop-color="#00F2FE"/>
<stop offset="1" stop-color="#4FACFE"/>
</linearGradient>
<linearGradient id="paint4_linear_71_265" x1="4.50024" y1="15.2127" x2="71.6395" y2="15.2127" gradientUnits="userSpaceOnUse">
<stop stop-color="#4FACFE"/>
<stop offset="1" stop-color="#00F2FE"/>
</linearGradient>
</defs>
</svg>
