<svg width="350" height="141" viewBox="0 0 350 141" fill="none" xmlns="http://www.w3.org/2000/svg">
<g filter="url(#filter0_f_71_214)">
<path d="M47.2855 57.02H37.0855V13.31H47.2855V57.02ZM64.948 57.5C63.468 57.5 62.158 57.29 61.018 56.87C59.898 56.43 58.948 55.82 58.168 55.04C57.408 54.24 56.828 53.28 56.428 52.16C56.028 51.04 55.828 49.79 55.828 48.41V32.33H53.188C52.708 32.33 52.298 32.18 51.958 31.88C51.618 31.56 51.448 31.1 51.448 30.5V26.87L56.398 25.91L58.228 18.32C58.468 17.36 59.148 16.88 60.268 16.88H65.128V25.97H72.838V32.33H65.128V47.78C65.128 48.5 65.298 49.1 65.638 49.58C65.998 50.04 66.508 50.27 67.168 50.27C67.508 50.27 67.788 50.24 68.008 50.18C68.248 50.1 68.448 50.02 68.608 49.94C68.788 49.84 68.948 49.76 69.088 49.7C69.248 49.62 69.428 49.58 69.628 49.58C69.908 49.58 70.128 49.65 70.288 49.79C70.468 49.91 70.648 50.11 70.828 50.39L73.648 54.8C72.448 55.7 71.098 56.38 69.598 56.84C68.098 57.28 66.548 57.5 64.948 57.5ZM83.1153 10.43C84.1953 12.15 84.9253 13.92 85.3053 15.74C85.6853 17.56 85.7053 19.36 85.3653 21.14C85.0453 22.9 84.3753 24.59 83.3553 26.21C82.3353 27.83 80.9753 29.3 79.2753 30.62L76.3353 28.88C76.0753 28.74 75.8953 28.57 75.7953 28.37C75.6953 28.15 75.6453 27.94 75.6453 27.74C75.6653 27.52 75.7153 27.32 75.7953 27.14C75.8953 26.94 76.0153 26.77 76.1553 26.63C76.3753 26.39 76.6153 26.06 76.8753 25.64C77.1353 25.22 77.3753 24.73 77.5953 24.17C77.8153 23.61 77.9853 23 78.1053 22.34C78.2453 21.66 78.2953 20.95 78.2553 20.21C78.2153 19.45 78.0753 18.67 77.8353 17.87C77.5953 17.05 77.2053 16.22 76.6653 15.38C76.2253 14.68 76.1053 14.08 76.3053 13.58C76.5253 13.08 76.9353 12.72 77.5353 12.5L83.1153 10.43ZM108.744 32.72C108.504 33.1 108.244 33.37 107.964 33.53C107.704 33.69 107.364 33.77 106.944 33.77C106.504 33.77 106.064 33.68 105.624 33.5C105.184 33.3 104.704 33.09 104.184 32.87C103.684 32.65 103.114 32.45 102.474 32.27C101.834 32.07 101.104 31.97 100.284 31.97C99.1042 31.97 98.1942 32.2 97.5542 32.66C96.9342 33.1 96.6242 33.72 96.6242 34.52C96.6242 35.1 96.8242 35.58 97.2242 35.96C97.6442 36.34 98.1942 36.68 98.8742 36.98C99.5542 37.26 100.324 37.53 101.184 37.79C102.044 38.05 102.924 38.34 103.824 38.66C104.724 38.98 105.604 39.36 106.464 39.8C107.324 40.22 108.094 40.75 108.774 41.39C109.454 42.01 109.994 42.77 110.394 43.67C110.814 44.57 111.024 45.65 111.024 46.91C111.024 48.45 110.744 49.87 110.184 51.17C109.624 52.47 108.784 53.59 107.664 54.53C106.564 55.47 105.194 56.2 103.554 56.72C101.934 57.24 100.064 57.5 97.9442 57.5C96.8842 57.5 95.8242 57.4 94.7642 57.2C93.7042 57 92.6742 56.73 91.6742 56.39C90.6942 56.05 89.7842 55.65 88.9442 55.19C88.1042 54.71 87.3842 54.2 86.7842 53.66L88.9442 50.24C89.1842 49.84 89.4842 49.53 89.8442 49.31C90.2242 49.07 90.7042 48.95 91.2842 48.95C91.8242 48.95 92.3042 49.07 92.7242 49.31C93.1642 49.55 93.6342 49.81 94.1342 50.09C94.6342 50.37 95.2142 50.63 95.8742 50.87C96.5542 51.11 97.4042 51.23 98.4242 51.23C99.1442 51.23 99.7542 51.16 100.254 51.02C100.754 50.86 101.154 50.65 101.454 50.39C101.754 50.13 101.974 49.84 102.114 49.52C102.254 49.2 102.324 48.87 102.324 48.53C102.324 47.91 102.114 47.4 101.694 47C101.274 46.6 100.724 46.26 100.044 45.98C99.3642 45.68 98.5842 45.41 97.7042 45.17C96.8442 44.91 95.9642 44.62 95.0642 44.3C94.1642 43.98 93.2742 43.6 92.3942 43.16C91.5342 42.7 90.7642 42.13 90.0842 41.45C89.4042 40.75 88.8542 39.9 88.4342 38.9C88.0142 37.9 87.8042 36.69 87.8042 35.27C87.8042 33.95 88.0542 32.7 88.5542 31.52C89.0742 30.32 89.8442 29.27 90.8642 28.37C91.8842 27.47 93.1642 26.76 94.7042 26.24C96.2442 25.7 98.0442 25.43 100.104 25.43C101.224 25.43 102.304 25.53 103.344 25.73C104.404 25.93 105.394 26.21 106.314 26.57C107.234 26.93 108.074 27.36 108.834 27.86C109.594 28.34 110.264 28.87 110.844 29.45L108.744 32.72ZM147.94 49.37C149.28 49.37 150.37 49.2 151.21 48.86C152.07 48.52 152.74 48.08 153.22 47.54C153.7 47 154.03 46.39 154.21 45.71C154.39 45.03 154.48 44.34 154.48 43.64C154.48 42.84 154.37 42.12 154.15 41.48C153.95 40.84 153.59 40.3 153.07 39.86C152.57 39.42 151.9 39.08 151.06 38.84C150.22 38.6 149.16 38.48 147.88 38.48H140.8V49.37H147.94ZM140.8 20.9V31.7H146.08C147.2 31.7 148.21 31.62 149.11 31.46C150.01 31.3 150.77 31.02 151.39 30.62C152.03 30.22 152.51 29.67 152.83 28.97C153.17 28.27 153.34 27.39 153.34 26.33C153.34 25.29 153.21 24.43 152.95 23.75C152.69 23.05 152.29 22.49 151.75 22.07C151.21 21.65 150.52 21.35 149.68 21.17C148.86 20.99 147.88 20.9 146.74 20.9H140.8ZM146.74 13.31C149.76 13.31 152.33 13.59 154.45 14.15C156.57 14.71 158.3 15.5 159.64 16.52C160.98 17.54 161.95 18.78 162.55 20.24C163.17 21.7 163.48 23.33 163.48 25.13C163.48 26.11 163.34 27.06 163.06 27.98C162.78 28.88 162.34 29.73 161.74 30.53C161.14 31.31 160.37 32.03 159.43 32.69C158.49 33.35 157.36 33.92 156.04 34.4C158.92 35.1 161.05 36.23 162.43 37.79C163.81 39.35 164.5 41.37 164.5 43.85C164.5 45.71 164.14 47.44 163.42 49.04C162.7 50.64 161.64 52.04 160.24 53.24C158.86 54.42 157.15 55.35 155.11 56.03C153.07 56.69 150.74 57.02 148.12 57.02H130.66V13.31H146.74ZM188.715 37.73C188.715 36.99 188.615 36.27 188.415 35.57C188.235 34.87 187.925 34.25 187.485 33.71C187.065 33.15 186.505 32.7 185.805 32.36C185.105 32.02 184.255 31.85 183.255 31.85C181.495 31.85 180.115 32.36 179.115 33.38C178.115 34.38 177.455 35.83 177.135 37.73H188.715ZM177.015 43.13C177.315 45.73 178.105 47.62 179.385 48.8C180.665 49.96 182.315 50.54 184.335 50.54C185.415 50.54 186.345 50.41 187.125 50.15C187.905 49.89 188.595 49.6 189.195 49.28C189.815 48.96 190.375 48.67 190.875 48.41C191.395 48.15 191.935 48.02 192.495 48.02C193.235 48.02 193.795 48.29 194.175 48.83L196.875 52.16C195.915 53.26 194.875 54.16 193.755 54.86C192.655 55.54 191.515 56.08 190.335 56.48C189.175 56.86 188.005 57.12 186.825 57.26C185.665 57.42 184.555 57.5 183.495 57.5C181.315 57.5 179.265 57.15 177.345 56.45C175.445 55.73 173.775 54.67 172.335 53.27C170.915 51.87 169.785 50.13 168.945 48.05C168.125 45.97 167.715 43.55 167.715 40.79C167.715 38.71 168.065 36.74 168.765 34.88C169.485 33.02 170.505 31.39 171.825 29.99C173.165 28.59 174.775 27.48 176.655 26.66C178.555 25.84 180.695 25.43 183.075 25.43C185.135 25.43 187.015 25.75 188.715 26.39C190.435 27.03 191.905 27.96 193.125 29.18C194.365 30.4 195.325 31.9 196.005 33.68C196.705 35.44 197.055 37.44 197.055 39.68C197.055 40.38 197.025 40.95 196.965 41.39C196.905 41.83 196.795 42.18 196.635 42.44C196.475 42.7 196.255 42.88 195.975 42.98C195.715 43.08 195.375 43.13 194.955 43.13H177.015ZM217.759 44.36C215.899 44.44 214.369 44.6 213.169 44.84C211.969 45.08 211.019 45.38 210.319 45.74C209.619 46.1 209.129 46.51 208.849 46.97C208.589 47.43 208.459 47.93 208.459 48.47C208.459 49.53 208.749 50.28 209.329 50.72C209.909 51.14 210.759 51.35 211.879 51.35C213.079 51.35 214.129 51.14 215.029 50.72C215.929 50.3 216.839 49.62 217.759 48.68V44.36ZM201.019 30.23C202.899 28.57 204.979 27.34 207.259 26.54C209.559 25.72 212.019 25.31 214.639 25.31C216.519 25.31 218.209 25.62 219.709 26.24C221.229 26.84 222.509 27.69 223.549 28.79C224.609 29.87 225.419 31.16 225.979 32.66C226.539 34.16 226.819 35.8 226.819 37.58V57.02H222.559C221.679 57.02 221.009 56.9 220.549 56.66C220.109 56.42 219.739 55.92 219.439 55.16L218.779 53.45C217.999 54.11 217.249 54.69 216.529 55.19C215.809 55.69 215.059 56.12 214.279 56.48C213.519 56.82 212.699 57.07 211.819 57.23C210.959 57.41 209.999 57.5 208.939 57.5C207.519 57.5 206.229 57.32 205.069 56.96C203.909 56.58 202.919 56.03 202.099 55.31C201.299 54.59 200.679 53.7 200.239 52.64C199.799 51.56 199.579 50.32 199.579 48.92C199.579 47.8 199.859 46.67 200.419 45.53C200.979 44.37 201.949 43.32 203.329 42.38C204.709 41.42 206.569 40.62 208.909 39.98C211.249 39.34 214.199 38.98 217.759 38.9V37.58C217.759 35.76 217.379 34.45 216.619 33.65C215.879 32.83 214.819 32.42 213.439 32.42C212.339 32.42 211.439 32.54 210.739 32.78C210.039 33.02 209.409 33.29 208.849 33.59C208.309 33.89 207.779 34.16 207.259 34.4C206.739 34.64 206.119 34.76 205.399 34.76C204.759 34.76 204.219 34.6 203.779 34.28C203.339 33.96 202.979 33.58 202.699 33.14L201.019 30.23ZM260.663 25.91V57.02H254.903C253.743 57.02 252.983 56.5 252.623 55.46L252.083 53.66C251.483 54.24 250.863 54.77 250.223 55.25C249.583 55.71 248.893 56.11 248.153 56.45C247.433 56.77 246.643 57.02 245.783 57.2C244.943 57.4 244.023 57.5 243.023 57.5C241.323 57.5 239.813 57.21 238.493 56.63C237.193 56.03 236.093 55.2 235.193 54.14C234.293 53.08 233.613 51.83 233.153 50.39C232.693 48.95 232.463 47.37 232.463 45.65V25.91H241.763V45.65C241.763 47.19 242.113 48.38 242.813 49.22C243.513 50.06 244.543 50.48 245.903 50.48C246.923 50.48 247.873 50.27 248.753 49.85C249.653 49.41 250.523 48.82 251.363 48.08V25.91H260.663ZM278.112 57.5C276.632 57.5 275.322 57.29 274.182 56.87C273.062 56.43 272.112 55.82 271.332 55.04C270.572 54.24 269.992 53.28 269.592 52.16C269.192 51.04 268.992 49.79 268.992 48.41V32.33H266.352C265.872 32.33 265.462 32.18 265.122 31.88C264.782 31.56 264.612 31.1 264.612 30.5V26.87L269.562 25.91L271.392 18.32C271.632 17.36 272.312 16.88 273.432 16.88H278.292V25.97H286.002V32.33H278.292V47.78C278.292 48.5 278.462 49.1 278.802 49.58C279.162 50.04 279.672 50.27 280.332 50.27C280.672 50.27 280.952 50.24 281.172 50.18C281.412 50.1 281.612 50.02 281.772 49.94C281.952 49.84 282.112 49.76 282.252 49.7C282.412 49.62 282.592 49.58 282.792 49.58C283.072 49.58 283.292 49.65 283.452 49.79C283.632 49.91 283.812 50.11 283.992 50.39L286.812 54.8C285.612 55.7 284.262 56.38 282.762 56.84C281.262 57.28 279.712 57.5 278.112 57.5ZM319.559 25.91L302.939 65.09C302.659 65.71 302.319 66.16 301.919 66.44C301.519 66.74 300.879 66.89 299.999 66.89H293.039L299.039 54.29L286.619 25.91H294.839C295.559 25.91 296.109 26.07 296.489 26.39C296.889 26.71 297.179 27.09 297.359 27.53L302.459 40.94C302.939 42.16 303.329 43.41 303.629 44.69C303.849 44.05 304.069 43.41 304.289 42.77C304.509 42.13 304.739 41.5 304.979 40.88L309.599 27.53C309.779 27.07 310.099 26.69 310.559 26.39C311.019 26.07 311.519 25.91 312.059 25.91H319.559ZM26.6443 89.43C29.0043 89.43 31.1543 89.8 33.0943 90.54C35.0343 91.28 36.6943 92.34 38.0743 93.72C39.4743 95.1 40.5543 96.78 41.3143 98.76C42.0943 100.72 42.4843 102.93 42.4843 105.39C42.4843 107.87 42.0943 110.11 41.3143 112.11C40.5543 114.09 39.4743 115.78 38.0743 117.18C36.6943 118.56 35.0343 119.63 33.0943 120.39C31.1543 121.13 29.0043 121.5 26.6443 121.5C24.2643 121.5 22.0943 121.13 20.1343 120.39C18.1943 119.63 16.5143 118.56 15.0943 117.18C13.6943 115.78 12.6043 114.09 11.8243 112.11C11.0643 110.11 10.6843 107.87 10.6843 105.39C10.6843 102.93 11.0643 100.72 11.8243 98.76C12.6043 96.78 13.6943 95.1 15.0943 93.72C16.5143 92.34 18.1943 91.28 20.1343 90.54C22.0943 89.8 24.2643 89.43 26.6443 89.43ZM26.6443 114.6C28.7843 114.6 30.3543 113.85 31.3543 112.35C32.3743 110.83 32.8843 108.53 32.8843 105.45C32.8843 102.37 32.3743 100.08 31.3543 98.58C30.3543 97.08 28.7843 96.33 26.6443 96.33C24.4443 96.33 22.8343 97.08 21.8143 98.58C20.7943 100.08 20.2843 102.37 20.2843 105.45C20.2843 108.53 20.7943 110.83 21.8143 112.35C22.8343 113.85 24.4443 114.6 26.6443 114.6ZM48.5987 121.02V96.3L46.5587 95.88C45.8587 95.72 45.2887 95.47 44.8487 95.13C44.4287 94.79 44.2187 94.29 44.2187 93.63V89.97H48.5987V88.8C48.5987 87.02 48.8787 85.41 49.4387 83.97C50.0187 82.51 50.8387 81.27 51.8987 80.25C52.9787 79.23 54.2887 78.45 55.8287 77.91C57.3687 77.35 59.1187 77.07 61.0787 77.07C61.8387 77.07 62.5387 77.12 63.1787 77.22C63.8187 77.3 64.4887 77.43 65.1887 77.61L65.0087 82.14C64.9687 82.78 64.6987 83.23 64.1987 83.49C63.7187 83.73 63.2187 83.85 62.6987 83.85C61.8787 83.85 61.1487 83.93 60.5087 84.09C59.8687 84.25 59.3287 84.53 58.8887 84.93C58.4687 85.33 58.1487 85.87 57.9287 86.55C57.7087 87.21 57.5987 88.05 57.5987 89.07V89.97H68.5187V87.63C68.5187 85.85 68.7987 84.24 69.3587 82.8C69.9387 81.36 70.7587 80.13 71.8187 79.11C72.8987 78.09 74.2087 77.3 75.7487 76.74C77.2887 76.18 79.0387 75.9 80.9987 75.9C81.7587 75.9 82.4587 75.95 83.0987 76.05C83.7387 76.13 84.4087 76.27 85.1087 76.47L84.9287 81C84.9087 81.32 84.8287 81.59 84.6887 81.81C84.5487 82.01 84.3587 82.18 84.1187 82.32C83.8987 82.44 83.6587 82.53 83.3987 82.59C83.1387 82.65 82.8787 82.68 82.6187 82.68C81.7987 82.68 81.0687 82.76 80.4287 82.92C79.7887 83.08 79.2487 83.37 78.8087 83.79C78.3887 84.19 78.0687 84.73 77.8487 85.41C77.6287 86.07 77.5187 86.91 77.5187 87.93V89.97H84.8087V96.33H77.8187V121.02H68.5187V96.33H57.8987V121.02H48.5987ZM106.889 101.73C106.889 100.99 106.789 100.27 106.589 99.57C106.409 98.87 106.099 98.25 105.659 97.71C105.239 97.15 104.679 96.7 103.979 96.36C103.279 96.02 102.429 95.85 101.429 95.85C99.6687 95.85 98.2887 96.36 97.2887 97.38C96.2887 98.38 95.6287 99.83 95.3087 101.73H106.889ZM95.1887 107.13C95.4887 109.73 96.2787 111.62 97.5587 112.8C98.8387 113.96 100.489 114.54 102.509 114.54C103.589 114.54 104.519 114.41 105.299 114.15C106.079 113.89 106.769 113.6 107.369 113.28C107.989 112.96 108.549 112.67 109.049 112.41C109.569 112.15 110.109 112.02 110.669 112.02C111.409 112.02 111.969 112.29 112.349 112.83L115.049 116.16C114.089 117.26 113.049 118.16 111.929 118.86C110.829 119.54 109.689 120.08 108.509 120.48C107.349 120.86 106.179 121.12 104.999 121.26C103.839 121.42 102.729 121.5 101.669 121.5C99.4887 121.5 97.4387 121.15 95.5187 120.45C93.6187 119.73 91.9487 118.67 90.5087 117.27C89.0887 115.87 87.9587 114.13 87.1187 112.05C86.2987 109.97 85.8887 107.55 85.8887 104.79C85.8887 102.71 86.2387 100.74 86.9387 98.88C87.6587 97.02 88.6787 95.39 89.9987 93.99C91.3387 92.59 92.9487 91.48 94.8287 90.66C96.7287 89.84 98.8687 89.43 101.249 89.43C103.309 89.43 105.189 89.75 106.889 90.39C108.609 91.03 110.079 91.96 111.299 93.18C112.539 94.4 113.499 95.9 114.179 97.68C114.879 99.44 115.229 101.44 115.229 103.68C115.229 104.38 115.199 104.95 115.139 105.39C115.079 105.83 114.969 106.18 114.809 106.44C114.649 106.7 114.429 106.88 114.149 106.98C113.889 107.08 113.549 107.13 113.129 107.13H95.1887ZM128.582 94.71C129.542 93.03 130.642 91.71 131.882 90.75C133.142 89.79 134.582 89.31 136.202 89.31C137.602 89.31 138.742 89.64 139.622 90.3L139.022 97.14C138.922 97.58 138.752 97.88 138.512 98.04C138.292 98.2 137.982 98.28 137.582 98.28C137.422 98.28 137.212 98.27 136.952 98.25C136.692 98.23 136.422 98.21 136.142 98.19C135.862 98.15 135.572 98.12 135.272 98.1C134.992 98.06 134.732 98.04 134.492 98.04C133.132 98.04 132.042 98.4 131.222 99.12C130.422 99.84 129.742 100.84 129.182 102.12V121.02H119.882V89.91H125.402C125.862 89.91 126.242 89.95 126.542 90.03C126.862 90.11 127.122 90.24 127.322 90.42C127.542 90.58 127.702 90.8 127.802 91.08C127.922 91.36 128.022 91.7 128.102 92.1L128.582 94.71ZM157.759 121.02V96.3L155.719 95.88C155.019 95.72 154.449 95.47 154.009 95.13C153.589 94.79 153.379 94.29 153.379 93.63V89.97H157.759V88.2C157.759 86.42 158.039 84.81 158.599 83.37C159.179 81.93 159.999 80.7 161.059 79.68C162.139 78.66 163.449 77.87 164.989 77.31C166.529 76.75 168.279 76.47 170.239 76.47C170.999 76.47 171.699 76.52 172.339 76.62C172.979 76.7 173.649 76.84 174.349 77.04L174.169 81.57C174.149 81.89 174.069 82.16 173.929 82.38C173.789 82.58 173.599 82.75 173.359 82.89C173.139 83.01 172.899 83.1 172.639 83.16C172.379 83.22 172.119 83.25 171.859 83.25C171.039 83.25 170.309 83.33 169.669 83.49C169.029 83.65 168.489 83.94 168.049 84.36C167.629 84.76 167.309 85.3 167.089 85.98C166.869 86.64 166.759 87.48 166.759 88.5V89.97H174.049V96.33H167.059V121.02H157.759ZM191.117 89.43C193.477 89.43 195.627 89.8 197.567 90.54C199.507 91.28 201.167 92.34 202.547 93.72C203.947 95.1 205.027 96.78 205.787 98.76C206.567 100.72 206.957 102.93 206.957 105.39C206.957 107.87 206.567 110.11 205.787 112.11C205.027 114.09 203.947 115.78 202.547 117.18C201.167 118.56 199.507 119.63 197.567 120.39C195.627 121.13 193.477 121.5 191.117 121.5C188.737 121.5 186.567 121.13 184.607 120.39C182.667 119.63 180.987 118.56 179.567 117.18C178.167 115.78 177.077 114.09 176.297 112.11C175.537 110.11 175.157 107.87 175.157 105.39C175.157 102.93 175.537 100.72 176.297 98.76C177.077 96.78 178.167 95.1 179.567 93.72C180.987 92.34 182.667 91.28 184.607 90.54C186.567 89.8 188.737 89.43 191.117 89.43ZM191.117 114.6C193.257 114.6 194.827 113.85 195.827 112.35C196.847 110.83 197.357 108.53 197.357 105.45C197.357 102.37 196.847 100.08 195.827 98.58C194.827 97.08 193.257 96.33 191.117 96.33C188.917 96.33 187.307 97.08 186.287 98.58C185.267 100.08 184.757 102.37 184.757 105.45C184.757 108.53 185.267 110.83 186.287 112.35C187.307 113.85 188.917 114.6 191.117 114.6ZM220.34 94.71C221.3 93.03 222.4 91.71 223.64 90.75C224.9 89.79 226.34 89.31 227.96 89.31C229.36 89.31 230.5 89.64 231.38 90.3L230.78 97.14C230.68 97.58 230.51 97.88 230.27 98.04C230.05 98.2 229.74 98.28 229.34 98.28C229.18 98.28 228.97 98.27 228.71 98.25C228.45 98.23 228.18 98.21 227.9 98.19C227.62 98.15 227.33 98.12 227.03 98.1C226.75 98.06 226.49 98.04 226.25 98.04C224.89 98.04 223.8 98.4 222.98 99.12C222.18 99.84 221.5 100.84 220.94 102.12V121.02H211.64V89.91H217.16C217.62 89.91 218 89.95 218.3 90.03C218.62 90.11 218.88 90.24 219.08 90.42C219.3 90.58 219.46 90.8 219.56 91.08C219.68 91.36 219.78 91.7 219.86 92.1L220.34 94.71ZM275.233 89.91L258.613 129.09C258.333 129.71 257.993 130.16 257.593 130.44C257.193 130.74 256.553 130.89 255.673 130.89H248.713L254.713 118.29L242.293 89.91H250.513C251.233 89.91 251.783 90.07 252.163 90.39C252.563 90.71 252.853 91.09 253.033 91.53L258.133 104.94C258.613 106.16 259.003 107.41 259.303 108.69C259.523 108.05 259.743 107.41 259.963 106.77C260.183 106.13 260.413 105.5 260.653 104.88L265.273 91.53C265.453 91.07 265.773 90.69 266.233 90.39C266.693 90.07 267.193 89.91 267.733 89.91H275.233ZM291.254 89.43C293.614 89.43 295.764 89.8 297.704 90.54C299.644 91.28 301.304 92.34 302.684 93.72C304.084 95.1 305.164 96.78 305.924 98.76C306.704 100.72 307.094 102.93 307.094 105.39C307.094 107.87 306.704 110.11 305.924 112.11C305.164 114.09 304.084 115.78 302.684 117.18C301.304 118.56 299.644 119.63 297.704 120.39C295.764 121.13 293.614 121.5 291.254 121.5C288.874 121.5 286.704 121.13 284.744 120.39C282.804 119.63 281.124 118.56 279.704 117.18C278.304 115.78 277.214 114.09 276.434 112.11C275.674 110.11 275.294 107.87 275.294 105.39C275.294 102.93 275.674 100.72 276.434 98.76C277.214 96.78 278.304 95.1 279.704 93.72C281.124 92.34 282.804 91.28 284.744 90.54C286.704 89.8 288.874 89.43 291.254 89.43ZM291.254 114.6C293.394 114.6 294.964 113.85 295.964 112.35C296.984 110.83 297.494 108.53 297.494 105.45C297.494 102.37 296.984 100.08 295.964 98.58C294.964 97.08 293.394 96.33 291.254 96.33C289.054 96.33 287.444 97.08 286.424 98.58C285.404 100.08 284.894 102.37 284.894 105.45C284.894 108.53 285.404 110.83 286.424 112.35C287.444 113.85 289.054 114.6 291.254 114.6ZM339.677 89.91V121.02H333.917C332.757 121.02 331.997 120.5 331.637 119.46L331.097 117.66C330.497 118.24 329.877 118.77 329.237 119.25C328.597 119.71 327.907 120.11 327.167 120.45C326.447 120.77 325.657 121.02 324.797 121.2C323.957 121.4 323.037 121.5 322.037 121.5C320.337 121.5 318.827 121.21 317.507 120.63C316.207 120.03 315.107 119.2 314.207 118.14C313.307 117.08 312.627 115.83 312.167 114.39C311.707 112.95 311.477 111.37 311.477 109.65V89.91H320.777V109.65C320.777 111.19 321.127 112.38 321.827 113.22C322.527 114.06 323.557 114.48 324.917 114.48C325.937 114.48 326.887 114.27 327.767 113.85C328.667 113.41 329.537 112.82 330.377 112.08V89.91H339.677Z" fill="url(#paint0_linear_71_214)"/>
</g>
<defs>
<filter id="filter0_f_71_214" x="0.684326" y="0.429932" width="348.993" height="140.46" filterUnits="userSpaceOnUse" color-interpolation-filters="sRGB">
<feFlood flood-opacity="0" result="BackgroundImageFix"/>
<feBlend mode="normal" in="SourceGraphic" in2="BackgroundImageFix" result="shape"/>
<feGaussianBlur stdDeviation="5" result="effect1_foregroundBlur_71_214"/>
</filter>
<linearGradient id="paint0_linear_71_214" x1="9" y1="66.02" x2="343" y2="66.02" gradientUnits="userSpaceOnUse">
<stop stop-color="#4FACFE"/>
<stop offset="1" stop-color="#00F2FE"/>
</linearGradient>
</defs>
</svg>
