<svg width="204" height="37" viewBox="0 0 204 37" fill="none" xmlns="http://www.w3.org/2000/svg">
<path d="M8.93164 27.7891C8.33398 28.1641 7.6543 28.3516 6.89258 28.3516C6.13086 28.3516 5.45117 28.1641 4.85352 27.7891C4.25586 28.1641 3.69922 28.3516 3.18359 28.3516C2.67969 28.3516 2.26367 28.3047 1.93555 28.2109C1.60742 28.1289 1.32031 28.0117 1.07422 27.8594C0.570312 27.5547 0.318359 27.1738 0.318359 26.7168C0.318359 26.4824 0.382812 26.2773 0.511719 26.1016C0.769531 26.3008 1.09766 26.4004 1.49609 26.4004C2.53906 26.4004 3.25977 25.9551 3.6582 25.0645V16.4688C3.6582 15.9297 3.54688 15.5312 3.32422 15.2734C2.97266 14.8398 2.36914 14.4121 1.51367 13.9902C2.31055 13.627 2.82617 13.3047 3.06055 13.0234C3.45898 12.5664 3.6582 12.0508 3.6582 11.4766V4.05859C3.25977 3.15625 2.53906 2.70508 1.49609 2.70508C1.09766 2.70508 0.769531 2.80469 0.511719 3.00391C0.382812 2.82812 0.318359 2.62891 0.318359 2.40625C0.318359 2.17188 0.382812 1.95508 0.511719 1.75586C0.652344 1.55664 0.839844 1.38672 1.07422 1.24609C1.61328 0.917969 2.22852 0.753906 2.91992 0.753906C3.62305 0.753906 4.26758 0.947266 4.85352 1.33398C5.46289 0.947266 6.14258 0.753906 6.89258 0.753906C7.64258 0.753906 8.32227 0.947266 8.93164 1.33398C9.51758 0.947266 10.0684 0.753906 10.584 0.753906C11.0996 0.753906 11.5215 0.800781 11.8496 0.894531C12.1777 0.976563 12.4648 1.09375 12.7109 1.24609C13.2148 1.55078 13.4668 1.93164 13.4668 2.38867C13.4668 2.62305 13.4023 2.82812 13.2734 3.00391C13.0156 2.80469 12.6875 2.70508 12.2891 2.70508C11.2461 2.70508 10.5254 3.15625 10.127 4.05859V11.4766C10.127 12.0508 10.25 12.4785 10.4961 12.7598C10.8828 13.2168 11.4746 13.627 12.2715 13.9902C11.416 14.4121 10.8711 14.7578 10.6367 15.0273C10.2969 15.4492 10.127 15.9297 10.127 16.4688V25.0645C10.5254 25.9551 11.2461 26.4004 12.2891 26.4004C12.6875 26.4004 13.0156 26.3008 13.2734 26.1016C13.4023 26.2773 13.4668 26.4824 13.4668 26.7168C13.4668 26.9395 13.3965 27.1504 13.2559 27.3496C13.127 27.5488 12.9453 27.7188 12.7109 27.8594C12.1719 28.1875 11.5566 28.3516 10.8652 28.3516C10.1738 28.3516 9.5293 28.1641 8.93164 27.7891ZM5.3457 23.3418C5.93164 23.1191 6.25391 22.3516 6.3125 21.0391C6.38281 19.7266 6.41797 17.9102 6.41797 15.5898C6.41797 13.2695 6.41211 11.7285 6.40039 10.9668C6.40039 10.1934 6.39453 9.57227 6.38281 9.10352C6.34766 7.7207 6.21289 6.88867 5.97852 6.60742C5.75586 6.31445 5.54492 6.12109 5.3457 6.02734C5.3457 10.1055 5.27539 12.4258 5.13477 12.9883C4.9707 13.457 4.57227 13.791 3.93945 13.9902C4.64258 14.2363 5.04102 14.5352 5.13477 14.8867C5.27539 15.4492 5.3457 17.5059 5.3457 21.0566V23.3418ZM27.6875 25.4336C27.9102 25.1992 28.0859 24.9062 28.2148 24.5547C28.3438 24.1914 28.4082 23.8164 28.4082 23.4297C28.4082 23.0312 28.3848 22.668 28.3379 22.3398C28.4199 22.1641 28.6426 22.0293 29.0059 21.9355C29.3691 21.8301 29.6094 21.7773 29.7266 21.7773C30.1719 21.7773 30.5293 21.9473 30.7988 22.2871C31.0684 22.6152 31.2031 23.0781 31.2031 23.6758C31.2031 24.2617 31.0273 24.8418 30.6758 25.416C30.3359 25.9902 29.8789 26.5 29.3047 26.9453C28.0273 27.9414 26.5391 28.4395 24.8398 28.4395C21.6055 28.4395 19.4609 27.2148 18.4062 24.7656C18.0195 23.8633 17.8262 22.7324 17.8262 21.373V19.2285C17.8262 18.6777 17.2227 18.0977 16.0156 17.4883C17.2227 16.7969 17.8262 15.8652 17.8262 14.6934V12.6191C17.8262 11.2832 17.2812 10.6152 16.1914 10.6152C15.793 10.6152 15.4648 10.7148 15.207 10.9141C15.043 10.6914 14.9609 10.4629 14.9609 10.2285C14.9609 9.98242 15.002 9.71875 15.084 9.4375C15.1777 9.14453 15.3359 8.88086 15.5586 8.64648C16.1211 8.03711 16.9941 7.82617 18.1777 8.01367V7.45117C18.1777 6.2207 18.4883 5.13672 19.1094 4.19922C19.6602 3.35547 20.1465 2.93359 20.5684 2.93359C21.002 2.93359 21.3359 3.08008 21.5703 3.37305C21.7695 2.44727 22.0332 1.7793 22.3613 1.36914C22.6895 0.958984 23.1582 0.753906 23.7676 0.753906V8.08398H29.4805C29.5742 8.27148 29.6211 8.58789 29.6211 9.0332C29.6211 9.4668 29.4512 9.81836 29.1113 10.0879C28.7715 10.3457 28.3613 10.4746 27.8809 10.4746H23.7676V22.375C23.7676 24.4141 24.2305 25.6094 25.1562 25.9609C25.4258 26.0547 25.7129 26.1016 26.0176 26.1016C26.334 26.1016 26.6328 26.0488 26.9141 25.9434C27.207 25.8262 27.4648 25.6562 27.6875 25.4336ZM19.5137 23.3418C20.0645 22.9902 20.375 22.2578 20.4453 21.1445C20.4922 20.3477 20.5156 19.7266 20.5156 19.2812C20.5273 18.8359 20.5332 18.4785 20.5332 18.209C20.5449 17.9277 20.5508 17.7109 20.5508 17.5586V16.8555C20.5508 16.5156 20.5449 16.082 20.5332 15.5547C20.5332 15.0156 20.5273 14.4355 20.5156 13.8145C20.5156 13.1816 20.5039 12.5781 20.4805 12.0039C20.4453 10.6211 20.3926 9.77734 20.3223 9.47266C20.1816 8.79297 19.9121 8.32422 19.5137 8.06641V13.5508C19.5137 15.1797 19.4844 16.041 19.4258 16.1348C19.3789 16.2285 19.3379 16.3398 19.3027 16.4688C19.1973 16.8203 18.7988 17.1133 18.1074 17.3477C18.8105 17.5938 19.209 17.8926 19.3027 18.2441C19.4434 18.8066 19.5137 20.125 19.5137 22.1992V23.3418ZM31.9414 4.04102C32.7148 3.64258 33.2715 3.15625 33.6113 2.58203C34.3379 1.36328 35.3633 0.753906 36.6875 0.753906C38.0234 0.753906 39.0547 1.36914 39.7812 2.59961C40.1328 3.17383 40.6895 3.6543 41.4512 4.04102C40.5488 4.33398 39.916 4.99023 39.5527 6.00977C39.1895 7.0293 38.7852 7.91406 38.3398 8.66406C37.9062 9.41406 37.4434 10.0293 36.9512 10.5098C36.0137 11.4121 34.9766 11.8633 33.8398 11.8633C33.6055 11.8633 33.4004 11.793 33.2246 11.6523C33.0488 11.5117 32.9609 11.3242 32.9609 11.0898C34.1094 10.5625 34.9648 9.64258 35.5273 8.33008C35.7266 7.89648 35.8555 7.43359 35.9141 6.94141C34.9414 6.84766 34.168 6.33203 33.5938 5.39453C33.1836 4.73828 32.6328 4.28711 31.9414 4.04102ZM35.9668 5.76367C35.7207 5.29492 35.5977 4.84961 35.5977 4.42773C35.5977 3.99414 35.6035 3.70703 35.6152 3.56641C35.627 3.42578 35.6445 3.2793 35.668 3.12695C35.7266 2.76367 35.8203 2.48242 35.9492 2.2832C35.5391 2.42383 35.2285 2.59961 35.0176 2.81055C34.8184 3.02148 34.6602 3.19727 34.543 3.33789C34.3438 3.5957 34.0332 3.83008 33.6113 4.04102C33.916 4.2168 34.2031 4.45703 34.4727 4.76172C34.9531 5.3125 35.4512 5.64648 35.9668 5.76367ZM48.0078 27.5781C47.2109 28.3398 46.4434 28.7207 45.7051 28.7207C45.2949 28.7207 45.0137 28.5684 44.8613 28.2637C45.1309 27.9941 45.2656 27.7246 45.2656 27.4551C45.2656 27.1855 45.2246 26.9805 45.1426 26.8398L44.9141 26.4355L45.1953 26.9629C44.9141 26.834 44.6973 26.6172 44.5449 26.3125C44.3926 26.0078 44.3164 25.6387 44.3164 25.2051C44.3164 24.7598 44.5625 24.2559 45.0547 23.6934C44.8203 23.3652 44.7031 23.002 44.7031 22.6035C44.7031 22.2051 44.7676 21.877 44.8965 21.6191C45.0371 21.3496 45.2129 21.1094 45.4238 20.8984C45.8926 20.4531 46.3906 20.2305 46.918 20.2305C47.2695 20.2305 47.5215 20.3535 47.6738 20.5996C47.3574 20.9395 47.1992 21.4785 47.1992 22.2168C47.1992 22.9434 47.3223 23.5645 47.5684 24.0801C47.8262 24.5957 48.1719 25.0352 48.6055 25.3984C49.5195 26.1719 50.6445 26.5586 51.9805 26.5586C53.4688 26.5586 54.5 26.0137 55.0742 24.9238C55.2383 24.5957 55.3203 24.2676 55.3203 23.9395C55.3203 23.5996 55.2441 23.3008 55.0918 23.043C54.9395 22.7734 54.7402 22.5156 54.4941 22.2695C54.084 21.8711 53.457 21.4141 52.6133 20.8984C51.8047 20.3242 50.8496 20.0371 49.748 20.0371C49.0332 20.0371 48.5527 20.0957 48.3066 20.2129C48.459 19.8613 48.5352 19.5098 48.5352 19.1582C48.5352 18.8066 48.3008 18.4258 47.832 18.0156C47.3633 17.5938 46.9414 17.1719 46.5664 16.75C46.2031 16.3281 45.9102 15.9062 45.6875 15.4844C45.2422 14.6875 45.0195 13.8438 45.0195 12.9531C45.0195 12.0625 45.2012 11.2773 45.5645 10.5977C45.9395 9.90625 46.4609 9.31445 47.1289 8.82227C48.5234 7.7793 50.3105 7.25781 52.4902 7.25781C53.5449 7.25781 54.2656 7.30469 54.6523 7.39844C55.0508 7.49219 55.3672 7.58008 55.6016 7.66211C55.918 7.7793 56.3047 7.83789 56.7617 7.83789C57.2188 7.83789 57.5352 7.73828 57.7109 7.53906C57.8984 7.33984 57.9922 7.1582 57.9922 6.99414C57.9922 6.81836 57.9746 6.68359 57.9395 6.58984C58.0098 6.56641 58.1152 6.55469 58.2559 6.55469C58.3965 6.55469 58.5547 6.5957 58.7305 6.67773C58.918 6.75977 59.082 6.87109 59.2227 7.01172C59.5039 7.32812 59.6445 7.66797 59.6445 8.03125C59.6445 8.38281 59.5742 8.65234 59.4336 8.83984C59.7617 9.14453 59.9258 9.57812 59.9258 10.1406C59.9258 10.7031 59.6914 11.1777 59.2227 11.5645C59.3281 11.7754 59.3809 12.0332 59.3809 12.3379C59.3809 12.6426 59.2168 12.9355 58.8887 13.2168C58.5605 13.498 58.25 13.6387 57.957 13.6387C57.4531 13.6387 57.1133 13.5742 56.9375 13.4453C57.0898 13.0703 57.166 12.666 57.166 12.2324C57.166 11.7871 57.0488 11.3652 56.8145 10.9668C56.5801 10.5684 56.2812 10.2461 55.918 10C55.2383 9.53125 54.4297 9.29688 53.4922 9.29688C52.3086 9.29688 51.5117 9.67187 51.1016 10.4219C50.9727 10.6562 50.9082 10.9141 50.9082 11.1953C50.9082 11.4648 50.9434 11.7168 51.0137 11.9512C51.0957 12.1738 51.2246 12.4023 51.4004 12.6367C51.7402 13.0938 52.2207 13.5273 52.8418 13.9375C53.6504 14.4648 54.2129 14.7285 54.5293 14.7285C55.209 14.7285 55.8008 14.5645 56.3047 14.2363C56.1641 14.7988 56.0938 15.1914 56.0938 15.4141C56.0938 15.7539 56.3633 16.1465 56.9023 16.5918C58.4141 17.6348 59.4453 18.5898 59.9961 19.457C60.5234 20.3008 60.7871 21.2383 60.7871 22.2695C60.7871 23.3008 60.5586 24.1855 60.1016 24.9238C59.6445 25.6504 59.0234 26.2773 58.2383 26.8047C56.6094 27.8945 54.6348 28.4395 52.3145 28.4395C50.7324 28.4395 49.2969 28.1523 48.0078 27.5781ZM47.3926 11.4766C47.0527 11.6406 46.8828 12.0977 46.8828 12.8477C46.8828 13.5859 47.123 14.2949 47.6035 14.9746C48.084 15.6426 48.8457 16.3984 49.8887 17.2422C50.1348 17.4297 50.2578 17.6113 50.2578 17.7871C50.2578 18.0566 50.2344 18.2734 50.1875 18.4375C50.3281 18.4023 50.5742 18.3672 50.9258 18.332C51.7812 18.25 52.8418 18.6484 54.1074 19.5273C56.123 20.7695 57.1309 22.0762 57.1309 23.4473C57.1309 23.9629 57.0605 24.3496 56.9199 24.6074C57.3418 24.5254 57.6641 24.168 57.8867 23.5352C57.9453 23.3477 57.9746 23.1543 57.9746 22.9551C57.9746 22.0059 57.459 21.0449 56.4277 20.0723C55.4082 19.0879 53.9375 18.1387 52.0156 17.2246C48.8281 15.6074 47.2871 13.6914 47.3926 11.4766ZM78.207 28.3516C77.4336 28.3516 76.748 28.1641 76.1504 27.7891C75.5527 28.1641 74.9961 28.3516 74.4805 28.3516C73.9766 28.3516 73.5605 28.3047 73.2324 28.2109C72.9043 28.1289 72.6172 28.0117 72.3711 27.8594C71.8672 27.5547 71.6152 27.1738 71.6152 26.7168C71.6152 26.4824 71.6797 26.2773 71.8086 26.1016C72.0664 26.3008 72.3945 26.4004 72.793 26.4004C73.8359 26.4004 74.5566 25.9551 74.9551 25.0645V16.4688C74.9551 15.9414 74.8438 15.5371 74.6211 15.2559C74.2695 14.7988 73.666 14.3652 72.8105 13.9551C73.5957 13.5918 74.1113 13.2754 74.3574 13.0059C74.7559 12.5488 74.9551 12.0391 74.9551 11.4766V4.05859C74.5566 3.15625 73.8359 2.70508 72.793 2.70508C72.3945 2.70508 72.0664 2.80469 71.8086 3.00391C71.6797 2.82812 71.6152 2.62891 71.6152 2.40625C71.6152 2.17188 71.6797 1.95508 71.8086 1.75586C71.9492 1.55664 72.1367 1.38672 72.3711 1.24609C72.9102 0.917969 73.5254 0.753906 74.2168 0.753906C74.9199 0.753906 75.5645 0.947266 76.1504 1.33398C76.7598 0.947266 77.4395 0.753906 78.1895 0.753906C79.0098 0.753906 79.7246 0.970703 80.334 1.4043C81.6348 0.853516 82.9297 0.578125 84.2188 0.578125C85.5078 0.578125 86.6797 0.707031 87.7344 0.964844C88.8008 1.21094 89.7617 1.5625 90.6172 2.01953C92.4805 3.00391 93.6406 4.28125 94.0977 5.85156C94.3555 6.71875 94.9121 7.36328 95.7676 7.78516C94.8184 8.44141 94.2324 9.19141 94.0098 10.0352C93.5176 11.8867 92.5215 13.0938 91.0215 13.6562C93.2246 14.2656 94.6602 15.707 95.3281 17.9805C95.5625 18.7891 96.1191 19.4512 96.998 19.9668C96.0957 20.4707 95.4922 21.2324 95.1875 22.252C94.8828 23.2715 94.3438 24.1914 93.5703 25.0117C92.8086 25.8203 91.918 26.4883 90.8984 27.0156C88.9297 28.0234 86.709 28.5273 84.2363 28.5273C82.7598 28.5273 81.4414 28.2637 80.2812 27.7363C79.6719 28.1465 78.9805 28.3516 78.207 28.3516ZM84.7109 12.8125C85.7422 12.8125 86.4746 12.5664 86.9082 12.0742C87.3652 11.5703 87.5938 10.7031 87.5938 9.47266V5.41211C87.5938 4.69727 87.2188 4.09375 86.4688 3.60156C85.8125 3.16797 85.2031 2.95117 84.6406 2.95117C84.0898 2.95117 83.6328 3.02148 83.2695 3.16211C82.918 3.29102 82.6016 3.47266 82.3203 3.70703C81.7227 4.19922 81.4238 4.79102 81.4238 5.48242V12.8125H84.7109ZM88.5957 3.35547C88.9941 4.24609 89.1934 5.54688 89.1934 7.25781C89.1934 9.77734 89.0293 11.4121 88.7012 12.1621C89.1934 12.0684 89.6094 11.5938 89.9492 10.7383C90.0781 10.4219 90.1719 10.0879 90.2305 9.73633C90.3008 9.38477 90.3535 9.11523 90.3887 8.92773C90.4355 8.72852 90.5 8.55859 90.582 8.41797C90.7578 8.125 91.0742 7.90234 91.5312 7.75C91.0625 7.59766 90.7695 7.43359 90.6523 7.25781C90.5 7.05859 90.377 6.69531 90.2832 6.16797C90.1895 5.64062 90.0781 5.21289 89.9492 4.88477C89.8203 4.54492 89.6797 4.26953 89.5273 4.05859C89.2344 3.63672 88.9238 3.40234 88.5957 3.35547ZM76.6426 23.3418C77.2285 23.1191 77.5508 22.3516 77.6094 21.0391C77.6797 19.7266 77.7148 17.9102 77.7148 15.5898C77.7148 13.2695 77.709 11.7285 77.6973 10.9668C77.6973 10.1934 77.6914 9.57227 77.6797 9.10352C77.6445 7.7207 77.5098 6.88867 77.2754 6.60742C77.0527 6.31445 76.8418 6.12109 76.6426 6.02734C76.6426 10.1055 76.5723 12.4258 76.4316 12.9883C76.2676 13.457 75.8691 13.791 75.2363 13.9902C75.9395 14.2363 76.3379 14.5352 76.4316 14.8867C76.5723 15.4492 76.6426 17.5059 76.6426 21.0566V23.3418ZM81.4238 23.4121C81.4238 24.2324 81.7344 24.9062 82.3555 25.4336C82.9531 25.9258 83.668 26.1719 84.5 26.1719C85.3086 26.1719 85.9883 25.9961 86.5391 25.6445C87.5938 24.9531 88.1211 24.1621 88.1211 23.2715V18.1211C88.1211 17.0547 87.7754 16.252 87.084 15.7129C86.498 15.2559 85.7305 15.0273 84.7812 15.0273H81.4238V23.4121ZM89.2988 15.5723C89.5801 16.2051 89.7207 17.6699 89.7207 19.9668C89.7207 22.873 89.6152 24.5781 89.4043 25.082C89.6504 25.0352 89.9023 24.7363 90.1602 24.1855C90.418 23.6348 90.5996 23.0664 90.7051 22.4805C90.8105 21.8945 90.8809 21.4961 90.916 21.2852C90.9629 21.0742 91.0273 20.8867 91.1094 20.7227C91.2969 20.3711 91.6133 20.1191 92.0586 19.9668C91.3555 19.7441 90.9395 19.2988 90.8105 18.6309C90.6934 17.9629 90.5762 17.4473 90.459 17.084C90.3418 16.7207 90.2188 16.4336 90.0898 16.2227C89.8672 15.8477 89.6035 15.6309 89.2988 15.5723ZM114.014 22.6914C114.271 22.1992 114.746 21.9531 115.438 21.9531C115.906 21.9531 116.27 22.1465 116.527 22.5332C116.738 22.8379 116.844 23.2129 116.844 23.6582C116.844 24.0918 116.732 24.5312 116.51 24.9766C116.287 25.4219 115.982 25.8262 115.596 26.1895C115.209 26.5527 114.764 26.875 114.26 27.1562C113.768 27.4375 113.24 27.6719 112.678 27.8594C111.518 28.2461 110.311 28.4395 109.057 28.4395C107.803 28.4395 106.625 28.2344 105.523 27.8242C104.434 27.4023 103.496 26.8164 102.711 26.0664C101.176 24.5898 100.238 22.5625 99.8984 19.9844C99.8164 19.4102 99.6816 19 99.4941 18.7539C99.1426 18.3203 98.5625 17.9043 97.7539 17.5059C98.7734 17.0488 99.4238 16.3164 99.7051 15.3086C99.7871 15.0273 99.8516 14.7461 99.8984 14.4648C100.191 12.4023 101.234 10.6445 103.027 9.19141C104.762 7.78516 106.701 7.08203 108.846 7.08203C111.072 7.08203 113 7.86719 114.629 9.4375C116.316 11.0547 117.16 13.041 117.16 15.3965C117.16 15.4785 117.154 15.5605 117.143 15.6426C117.143 15.7246 117.148 15.8008 117.16 15.8711C117.184 16.0234 117.277 16.1113 117.441 16.1348C117.652 16.4043 117.758 16.6914 117.758 16.9961C117.758 17.6992 117.383 18.1152 116.633 18.2441C116.445 18.2793 116.152 18.3262 115.754 18.3848L105.84 19.9668V21.6543C105.84 23.0137 106.25 24.0918 107.07 24.8887C107.844 25.6504 108.822 26.0312 110.006 26.0312C111.26 26.0312 112.268 25.7734 113.029 25.2578C113.744 24.7656 114.102 24.1211 114.102 23.3242C114.102 23.1367 114.072 22.9258 114.014 22.6914ZM110.938 17.0137V12.0918C110.938 11.3184 110.785 10.75 110.48 10.3867C109.941 9.76563 109.408 9.45508 108.881 9.45508C108.354 9.45508 107.914 9.53711 107.562 9.70117C107.211 9.85352 106.906 10.0996 106.648 10.4395C106.109 11.1543 105.84 12.2676 105.84 13.7793V17.8398L110.938 17.0137ZM113.539 16.5742V16.0293C113.539 13.8496 113.357 12.5312 112.994 12.0742C112.83 11.875 112.648 11.7285 112.449 11.6348V16.75L113.539 16.5742ZM102.975 23.3418C103.139 23.2129 103.221 23.0664 103.221 22.9023C103.221 22.6445 103.168 22.3164 103.062 21.918C102.582 20.0781 102.342 18.8008 102.342 18.0859C102.342 17.3594 102.365 16.7969 102.412 16.3984C102.459 15.9883 102.523 15.5781 102.605 15.168C102.746 14.3711 102.898 13.668 103.062 13.0586C103.168 12.6602 103.221 12.3906 103.221 12.25C103.221 11.9688 103.139 11.7637 102.975 11.6348C102.482 12.2207 102.107 13.0059 101.85 13.9902C101.592 14.9746 101.381 15.8418 101.217 16.5918C101.158 16.9082 100.812 17.2129 100.18 17.5059C100.812 17.7988 101.158 18.0918 101.217 18.3848C101.65 20.3652 102.008 21.625 102.289 22.1641C102.57 22.7031 102.799 23.0957 102.975 23.3418ZM132.348 26.3301C131.281 27.7363 129.682 28.4395 127.549 28.4395C124.947 28.4395 122.996 27.6602 121.695 26.1016C121.133 25.4336 120.746 24.6895 120.535 23.8691C120.418 23.377 120.213 23.002 119.92 22.7441C119.627 22.4746 119.264 22.2344 118.83 22.0234C119.674 21.6367 120.277 20.9102 120.641 19.8438C121.027 18.7188 121.672 17.9043 122.574 17.4004C123.547 16.873 124.619 16.5977 125.791 16.5742C126.963 16.5391 127.83 16.498 128.393 16.4512C128.955 16.4043 129.453 16.3281 129.887 16.2227C130.695 16.0352 131.328 15.6895 131.785 15.1855V12.5488C131.785 11.3887 131.545 10.5391 131.064 10C130.596 9.46094 129.875 9.19141 128.902 9.19141C127.941 9.19141 127.227 9.37305 126.758 9.73633C126.301 10.0879 126.072 10.5625 126.072 11.1602C126.072 12.0742 126.541 12.5195 127.479 12.4961C127.291 13.4102 126.799 13.8672 126.002 13.8672C125.768 13.8672 125.539 13.8262 125.316 13.7441V13.7969C125.316 14.1016 125.457 14.2949 125.738 14.377C125.445 14.8223 124.953 15.0391 124.262 15.0273C123.57 15.0156 123.031 14.6465 122.645 13.9199C122.469 13.9668 122.264 13.9902 122.029 13.9902C121.807 13.9902 121.555 13.9141 121.273 13.7617C121.004 13.6094 120.787 13.3984 120.623 13.1289C121.209 12.7773 121.566 12.2324 121.695 11.4941C121.836 10.5918 122.557 9.67773 123.857 8.75195C125.428 7.63867 127.432 7.08203 129.869 7.08203C133.912 7.08203 136.379 8.32422 137.27 10.8086C137.562 11.6406 137.709 12.625 137.709 13.7617V15.1855C137.709 15.7598 137.85 16.2285 138.131 16.5918C138.424 16.9551 138.916 17.2539 139.607 17.4883C138.869 17.8281 138.395 18.1328 138.184 18.4023C137.867 18.8125 137.709 19.2812 137.709 19.8086V25.082C138.049 25.9609 138.535 26.4004 139.168 26.4004C139.566 26.4004 139.895 26.3008 140.152 26.1016C140.316 26.3242 140.398 26.6055 140.398 26.9453C140.398 27.2734 140.229 27.5898 139.889 27.8945C139.561 28.1992 139.062 28.3516 138.395 28.3516C137.727 28.3516 137.105 28.1641 136.531 27.7891C136.027 28.1641 135.576 28.3516 135.178 28.3516C134.791 28.3516 134.451 28.3105 134.158 28.2285C133.877 28.1582 133.613 28.041 133.367 27.877C132.816 27.5137 132.477 26.998 132.348 26.3301ZM133.455 23.3418C134.135 23.0723 134.492 21.7773 134.527 19.457C134.527 18.9648 134.527 18.4023 134.527 17.7695C134.527 17.1367 134.521 16.5977 134.51 16.1523C134.51 15.6953 134.504 15.2617 134.492 14.8516C134.445 13.375 134.311 12.4961 134.088 12.2148C133.865 11.9219 133.654 11.7285 133.455 11.6348V23.3418ZM126.969 22.0938C126.969 22.5859 127.021 23.0664 127.127 23.5352C127.232 24.0039 127.391 24.4141 127.602 24.7656C128.07 25.5039 128.732 25.873 129.588 25.873C130.232 25.873 130.766 25.6094 131.188 25.082C131.586 24.5664 131.785 23.9043 131.785 23.0957V17.3652C131.035 17.7988 130.074 18.0977 128.902 18.2617C127.613 18.4609 126.969 19.7383 126.969 22.0938ZM124.332 26.0488C124.449 25.9668 124.508 25.8613 124.508 25.7324C124.508 25.5566 124.426 25.3105 124.262 24.9941C123.676 23.916 123.383 23.0312 123.383 22.3398C123.383 21.6484 123.406 21.1504 123.453 20.8457C123.512 20.541 123.582 20.2832 123.664 20.0723C123.758 19.8496 123.857 19.6562 123.963 19.4922C124.08 19.3281 124.18 19.1816 124.262 19.0527C124.414 18.7832 124.49 18.6016 124.49 18.5078C124.49 18.4023 124.438 18.3145 124.332 18.2441C123.852 18.4668 123.5 18.7305 123.277 19.0352C122.879 19.5742 122.586 20.2715 122.398 21.127C122.352 21.373 121.941 21.6719 121.168 22.0234C121.918 22.3633 122.328 22.6621 122.398 22.9199C122.797 24.3145 123.441 25.3574 124.332 26.0488ZM159.102 28.3516C157.449 28.3516 156.559 27.209 156.43 24.9238C155.832 26.002 155.023 26.8574 154.004 27.4902C152.996 28.123 151.906 28.4395 150.734 28.4395C149.574 28.4395 148.631 28.2812 147.904 27.9648C147.178 27.6484 146.574 27.1914 146.094 26.5938C145.156 25.4219 144.688 23.7578 144.688 21.6016V20.5117C144.688 19.1523 143.973 18.1445 142.543 17.4883C143.387 17.0781 143.926 16.7324 144.16 16.4512C144.512 16.0176 144.688 15.5312 144.688 14.9922V12.6191C144.688 11.623 144.348 11.084 143.668 11.002C143.469 10.9785 143.217 10.9668 142.912 10.9668C142.607 10.9668 142.326 11.0664 142.068 11.2656C141.904 11.043 141.822 10.8145 141.822 10.5801C141.822 10.334 141.881 10.0645 141.998 9.77148C142.127 9.4668 142.32 9.17969 142.578 8.91016C143.188 8.27734 143.896 7.96094 144.705 7.96094C145.514 7.96094 146.275 8.0957 146.99 8.36523C147.506 7.62695 148.115 7.25781 148.818 7.25781C150.025 7.25781 150.629 7.89062 150.629 9.15625V20.5996C150.629 22.8262 151.145 24.1621 152.176 24.6074C152.504 24.748 152.867 24.8184 153.266 24.8184C153.676 24.8184 154.045 24.7363 154.373 24.5723C154.701 24.3965 154.988 24.1621 155.234 23.8691C155.691 23.2949 155.984 22.5098 156.113 21.5137V12.6191C156.113 11.2832 155.568 10.6152 154.479 10.6152C154.08 10.6152 153.752 10.7148 153.494 10.9141C153.33 10.6914 153.248 10.4629 153.248 10.2285C153.248 9.98242 153.307 9.73047 153.424 9.47266C153.553 9.20313 153.746 8.95703 154.004 8.73438C154.578 8.21875 155.275 7.96094 156.096 7.96094C156.928 7.96094 157.701 8.0957 158.416 8.36523C158.932 7.62695 159.541 7.25781 160.244 7.25781C161.451 7.25781 162.055 7.89062 162.055 9.15625V14.9922C162.055 15.5312 162.16 15.9297 162.371 16.1875C162.746 16.6445 163.355 17.0781 164.199 17.4883C162.77 18.1445 162.055 19.1523 162.055 20.5117V25.0469C162.277 25.9492 162.764 26.4004 163.514 26.4004C163.912 26.4004 164.24 26.3008 164.498 26.1016C164.662 26.3242 164.744 26.6055 164.744 26.9453C164.744 27.2734 164.574 27.5898 164.234 27.8945C163.906 28.1992 163.385 28.3516 162.67 28.3516C161.967 28.3516 161.299 28.1641 160.666 27.7891C160.197 28.1641 159.676 28.3516 159.102 28.3516ZM157.783 23.3418C158.463 23.0723 158.82 21.7773 158.855 19.457C158.855 18.9648 158.855 18.4023 158.855 17.7695C158.855 17.1367 158.85 16.5977 158.838 16.1523C158.838 15.6953 158.832 15.2617 158.82 14.8516C158.773 13.375 158.639 12.4961 158.416 12.2148C158.193 11.9219 157.982 11.7285 157.783 11.6348V23.3418ZM147.271 17.4883L147.324 15.168C147.324 14.125 147.289 13.4336 147.219 13.0938C147.02 12.2031 146.738 11.7168 146.375 11.6348V12.7773C146.375 14.7578 146.328 15.9238 146.234 16.2754C146.152 16.6152 146.012 16.873 145.812 17.0488C145.625 17.2129 145.344 17.3594 144.969 17.4883C145.672 17.7344 146.07 18.0332 146.164 18.3848C146.305 18.9473 146.375 20.2188 146.375 22.1992V23.3418C146.727 23.2598 147.014 22.7383 147.236 21.7773C147.295 21.5078 147.324 20.8516 147.324 19.8086L147.271 17.4883ZM178.367 25.4336C178.59 25.1992 178.766 24.9062 178.895 24.5547C179.023 24.1914 179.088 23.8164 179.088 23.4297C179.088 23.0312 179.064 22.668 179.018 22.3398C179.1 22.1641 179.322 22.0293 179.686 21.9355C180.049 21.8301 180.289 21.7773 180.406 21.7773C180.852 21.7773 181.209 21.9473 181.479 22.2871C181.748 22.6152 181.883 23.0781 181.883 23.6758C181.883 24.2617 181.707 24.8418 181.355 25.416C181.016 25.9902 180.559 26.5 179.984 26.9453C178.707 27.9414 177.219 28.4395 175.52 28.4395C172.285 28.4395 170.141 27.2148 169.086 24.7656C168.699 23.8633 168.506 22.7324 168.506 21.373V19.2285C168.506 18.6777 167.902 18.0977 166.695 17.4883C167.902 16.7969 168.506 15.8652 168.506 14.6934V12.6191C168.506 11.2832 167.961 10.6152 166.871 10.6152C166.473 10.6152 166.145 10.7148 165.887 10.9141C165.723 10.6914 165.641 10.4629 165.641 10.2285C165.641 9.98242 165.682 9.71875 165.764 9.4375C165.857 9.14453 166.016 8.88086 166.238 8.64648C166.801 8.03711 167.674 7.82617 168.857 8.01367V7.45117C168.857 6.2207 169.168 5.13672 169.789 4.19922C170.34 3.35547 170.826 2.93359 171.248 2.93359C171.682 2.93359 172.016 3.08008 172.25 3.37305C172.449 2.44727 172.713 1.7793 173.041 1.36914C173.369 0.958984 173.838 0.753906 174.447 0.753906V8.08398H180.16C180.254 8.27148 180.301 8.58789 180.301 9.0332C180.301 9.4668 180.131 9.81836 179.791 10.0879C179.451 10.3457 179.041 10.4746 178.561 10.4746H174.447V22.375C174.447 24.4141 174.91 25.6094 175.836 25.9609C176.105 26.0547 176.393 26.1016 176.697 26.1016C177.014 26.1016 177.312 26.0488 177.594 25.9434C177.887 25.8262 178.145 25.6562 178.367 25.4336ZM170.193 23.3418C170.744 22.9902 171.055 22.2578 171.125 21.1445C171.172 20.3477 171.195 19.7266 171.195 19.2812C171.207 18.8359 171.213 18.4785 171.213 18.209C171.225 17.9277 171.23 17.7109 171.23 17.5586V16.8555C171.23 16.5156 171.225 16.082 171.213 15.5547C171.213 15.0156 171.207 14.4355 171.195 13.8145C171.195 13.1816 171.184 12.5781 171.16 12.0039C171.125 10.6211 171.072 9.77734 171.002 9.47266C170.861 8.79297 170.592 8.32422 170.193 8.06641V13.5508C170.193 15.1797 170.164 16.041 170.105 16.1348C170.059 16.2285 170.018 16.3398 169.982 16.4688C169.877 16.8203 169.479 17.1133 168.787 17.3477C169.49 17.5938 169.889 17.8926 169.982 18.2441C170.123 18.8066 170.193 20.125 170.193 22.1992V23.3418ZM203.416 9.87695C203.158 9.71289 202.748 9.63086 202.186 9.63086C201.061 9.63086 200.211 10.3926 199.637 11.916L199.092 13.4453C198.693 14.5586 198.488 15.3203 198.477 15.7305C198.477 16.1406 198.547 16.4746 198.688 16.7324C198.84 16.9785 199.174 17.2363 199.689 17.5059C198.424 17.8574 197.562 18.4492 197.105 19.2812C196.965 19.5391 196.842 19.8086 196.736 20.0898L193.818 28.0176C192.682 31.2871 191.627 33.502 190.654 34.6621C189.764 35.7285 188.65 36.2617 187.314 36.2617C186.295 36.2617 185.334 35.9336 184.432 35.2773C183.4 34.5391 182.885 33.6719 182.885 32.6758C182.885 32.0547 183.049 31.5801 183.377 31.252C183.705 30.9355 184.004 30.7773 184.273 30.7773C184.555 30.7773 184.748 30.7773 184.854 30.7773C184.959 30.7891 185.064 30.8125 185.17 30.8477C185.381 30.9414 185.58 31.1523 185.768 31.4805C185.521 31.9492 185.68 32.4648 186.242 33.0273C186.77 33.5781 187.262 33.8535 187.719 33.8535C188.188 33.8535 188.574 33.7656 188.879 33.5898C189.195 33.4141 189.477 33.1445 189.723 32.7812C190.262 31.9844 190.531 30.8418 190.531 29.3535C190.531 28.5449 190.314 27.6543 189.881 26.6816C189.764 26.3535 189.623 26.0078 189.459 25.6445L186.963 20.0195C186.693 19.4219 186.283 18.8945 185.732 18.4375C185.193 17.9688 184.584 17.6582 183.904 17.5059C184.713 17.0957 185.117 16.5566 185.117 15.8887C185.117 15.4082 184.924 14.6992 184.537 13.7617L183.5 11.2656C183.195 10.5859 182.943 10.1582 182.744 9.98242C182.393 9.70117 181.982 9.56055 181.514 9.56055C181.057 9.56055 180.699 9.66016 180.441 9.85938C180.301 9.71875 180.23 9.51367 180.23 9.24414C180.219 8.97461 180.248 8.75195 180.318 8.57617C180.389 8.38867 180.506 8.22461 180.67 8.08398C181.021 7.76758 181.525 7.60938 182.182 7.60938C182.85 7.60938 183.477 7.82031 184.062 8.24219C184.543 7.82031 185.129 7.60938 185.82 7.60938C186.512 7.60938 187.121 7.80273 187.648 8.18945C188.176 7.80273 188.768 7.60938 189.424 7.60938C190.08 7.60938 190.596 7.76758 190.971 8.08398C191.357 8.38867 191.557 8.69336 191.568 8.99805C191.58 9.45508 191.504 9.76563 191.34 9.92969C191.059 9.71875 190.766 9.61328 190.461 9.61328C190.156 9.61328 189.904 9.70117 189.705 9.87695C189.518 10.0527 189.436 10.3398 189.459 10.7383L193.52 21.707L197.369 10.4395C197.24 9.8418 196.812 9.54297 196.086 9.54297C195.629 9.54297 195.195 9.6543 194.785 9.87695C194.668 9.6543 194.609 9.36719 194.609 9.01562C194.621 8.66406 194.785 8.3418 195.102 8.04883C195.43 7.75586 195.869 7.60938 196.42 7.60938C196.982 7.60938 197.463 7.79688 197.861 8.17188C198.283 7.79688 198.758 7.60938 199.285 7.60938C199.812 7.60938 200.293 7.77344 200.727 8.10156C201.125 7.77344 201.564 7.60938 202.045 7.60938C202.537 7.60938 202.924 7.75 203.205 8.03125C203.498 8.3125 203.639 8.60547 203.627 8.91016C203.604 9.37891 203.533 9.70117 203.416 9.87695ZM186.488 11.6348C186.219 11.8105 186.084 12.0332 186.084 12.3027C186.096 12.5723 186.107 12.7832 186.119 12.9355C186.143 13.0762 186.178 13.2461 186.225 13.4453C186.33 13.8203 186.541 14.377 186.857 15.1152C187.186 15.8418 187.355 16.2988 187.367 16.4863C187.391 16.6621 187.332 16.8613 187.191 17.084C187.051 17.2949 186.881 17.4355 186.682 17.5059C187.432 17.6465 187.895 17.9102 188.07 18.2969C188.152 18.4609 188.27 18.7188 188.422 19.0703L189.617 21.7422C189.852 22.2812 190.098 22.8145 190.355 23.3418C190.836 22.7559 190.625 21.4082 189.723 19.2988L186.488 11.6348Z" fill="url(#paint0_linear_71_92)"/>
<path d="M8.93164 27.7891C8.33398 28.1641 7.6543 28.3516 6.89258 28.3516C6.13086 28.3516 5.45117 28.1641 4.85352 27.7891C4.25586 28.1641 3.69922 28.3516 3.18359 28.3516C2.67969 28.3516 2.26367 28.3047 1.93555 28.2109C1.60742 28.1289 1.32031 28.0117 1.07422 27.8594C0.570312 27.5547 0.318359 27.1738 0.318359 26.7168C0.318359 26.4824 0.382812 26.2773 0.511719 26.1016C0.769531 26.3008 1.09766 26.4004 1.49609 26.4004C2.53906 26.4004 3.25977 25.9551 3.6582 25.0645V16.4688C3.6582 15.9297 3.54688 15.5312 3.32422 15.2734C2.97266 14.8398 2.36914 14.4121 1.51367 13.9902C2.31055 13.627 2.82617 13.3047 3.06055 13.0234C3.45898 12.5664 3.6582 12.0508 3.6582 11.4766V4.05859C3.25977 3.15625 2.53906 2.70508 1.49609 2.70508C1.09766 2.70508 0.769531 2.80469 0.511719 3.00391C0.382812 2.82812 0.318359 2.62891 0.318359 2.40625C0.318359 2.17188 0.382812 1.95508 0.511719 1.75586C0.652344 1.55664 0.839844 1.38672 1.07422 1.24609C1.61328 0.917969 2.22852 0.753906 2.91992 0.753906C3.62305 0.753906 4.26758 0.947266 4.85352 1.33398C5.46289 0.947266 6.14258 0.753906 6.89258 0.753906C7.64258 0.753906 8.32227 0.947266 8.93164 1.33398C9.51758 0.947266 10.0684 0.753906 10.584 0.753906C11.0996 0.753906 11.5215 0.800781 11.8496 0.894531C12.1777 0.976563 12.4648 1.09375 12.7109 1.24609C13.2148 1.55078 13.4668 1.93164 13.4668 2.38867C13.4668 2.62305 13.4023 2.82812 13.2734 3.00391C13.0156 2.80469 12.6875 2.70508 12.2891 2.70508C11.2461 2.70508 10.5254 3.15625 10.127 4.05859V11.4766C10.127 12.0508 10.25 12.4785 10.4961 12.7598C10.8828 13.2168 11.4746 13.627 12.2715 13.9902C11.416 14.4121 10.8711 14.7578 10.6367 15.0273C10.2969 15.4492 10.127 15.9297 10.127 16.4688V25.0645C10.5254 25.9551 11.2461 26.4004 12.2891 26.4004C12.6875 26.4004 13.0156 26.3008 13.2734 26.1016C13.4023 26.2773 13.4668 26.4824 13.4668 26.7168C13.4668 26.9395 13.3965 27.1504 13.2559 27.3496C13.127 27.5488 12.9453 27.7188 12.7109 27.8594C12.1719 28.1875 11.5566 28.3516 10.8652 28.3516C10.1738 28.3516 9.5293 28.1641 8.93164 27.7891ZM5.3457 23.3418C5.93164 23.1191 6.25391 22.3516 6.3125 21.0391C6.38281 19.7266 6.41797 17.9102 6.41797 15.5898C6.41797 13.2695 6.41211 11.7285 6.40039 10.9668C6.40039 10.1934 6.39453 9.57227 6.38281 9.10352C6.34766 7.7207 6.21289 6.88867 5.97852 6.60742C5.75586 6.31445 5.54492 6.12109 5.3457 6.02734C5.3457 10.1055 5.27539 12.4258 5.13477 12.9883C4.9707 13.457 4.57227 13.791 3.93945 13.9902C4.64258 14.2363 5.04102 14.5352 5.13477 14.8867C5.27539 15.4492 5.3457 17.5059 5.3457 21.0566V23.3418ZM27.6875 25.4336C27.9102 25.1992 28.0859 24.9062 28.2148 24.5547C28.3438 24.1914 28.4082 23.8164 28.4082 23.4297C28.4082 23.0312 28.3848 22.668 28.3379 22.3398C28.4199 22.1641 28.6426 22.0293 29.0059 21.9355C29.3691 21.8301 29.6094 21.7773 29.7266 21.7773C30.1719 21.7773 30.5293 21.9473 30.7988 22.2871C31.0684 22.6152 31.2031 23.0781 31.2031 23.6758C31.2031 24.2617 31.0273 24.8418 30.6758 25.416C30.3359 25.9902 29.8789 26.5 29.3047 26.9453C28.0273 27.9414 26.5391 28.4395 24.8398 28.4395C21.6055 28.4395 19.4609 27.2148 18.4062 24.7656C18.0195 23.8633 17.8262 22.7324 17.8262 21.373V19.2285C17.8262 18.6777 17.2227 18.0977 16.0156 17.4883C17.2227 16.7969 17.8262 15.8652 17.8262 14.6934V12.6191C17.8262 11.2832 17.2812 10.6152 16.1914 10.6152C15.793 10.6152 15.4648 10.7148 15.207 10.9141C15.043 10.6914 14.9609 10.4629 14.9609 10.2285C14.9609 9.98242 15.002 9.71875 15.084 9.4375C15.1777 9.14453 15.3359 8.88086 15.5586 8.64648C16.1211 8.03711 16.9941 7.82617 18.1777 8.01367V7.45117C18.1777 6.2207 18.4883 5.13672 19.1094 4.19922C19.6602 3.35547 20.1465 2.93359 20.5684 2.93359C21.002 2.93359 21.3359 3.08008 21.5703 3.37305C21.7695 2.44727 22.0332 1.7793 22.3613 1.36914C22.6895 0.958984 23.1582 0.753906 23.7676 0.753906V8.08398H29.4805C29.5742 8.27148 29.6211 8.58789 29.6211 9.0332C29.6211 9.4668 29.4512 9.81836 29.1113 10.0879C28.7715 10.3457 28.3613 10.4746 27.8809 10.4746H23.7676V22.375C23.7676 24.4141 24.2305 25.6094 25.1562 25.9609C25.4258 26.0547 25.7129 26.1016 26.0176 26.1016C26.334 26.1016 26.6328 26.0488 26.9141 25.9434C27.207 25.8262 27.4648 25.6562 27.6875 25.4336ZM19.5137 23.3418C20.0645 22.9902 20.375 22.2578 20.4453 21.1445C20.4922 20.3477 20.5156 19.7266 20.5156 19.2812C20.5273 18.8359 20.5332 18.4785 20.5332 18.209C20.5449 17.9277 20.5508 17.7109 20.5508 17.5586V16.8555C20.5508 16.5156 20.5449 16.082 20.5332 15.5547C20.5332 15.0156 20.5273 14.4355 20.5156 13.8145C20.5156 13.1816 20.5039 12.5781 20.4805 12.0039C20.4453 10.6211 20.3926 9.77734 20.3223 9.47266C20.1816 8.79297 19.9121 8.32422 19.5137 8.06641V13.5508C19.5137 15.1797 19.4844 16.041 19.4258 16.1348C19.3789 16.2285 19.3379 16.3398 19.3027 16.4688C19.1973 16.8203 18.7988 17.1133 18.1074 17.3477C18.8105 17.5938 19.209 17.8926 19.3027 18.2441C19.4434 18.8066 19.5137 20.125 19.5137 22.1992V23.3418ZM31.9414 4.04102C32.7148 3.64258 33.2715 3.15625 33.6113 2.58203C34.3379 1.36328 35.3633 0.753906 36.6875 0.753906C38.0234 0.753906 39.0547 1.36914 39.7812 2.59961C40.1328 3.17383 40.6895 3.6543 41.4512 4.04102C40.5488 4.33398 39.916 4.99023 39.5527 6.00977C39.1895 7.0293 38.7852 7.91406 38.3398 8.66406C37.9062 9.41406 37.4434 10.0293 36.9512 10.5098C36.0137 11.4121 34.9766 11.8633 33.8398 11.8633C33.6055 11.8633 33.4004 11.793 33.2246 11.6523C33.0488 11.5117 32.9609 11.3242 32.9609 11.0898C34.1094 10.5625 34.9648 9.64258 35.5273 8.33008C35.7266 7.89648 35.8555 7.43359 35.9141 6.94141C34.9414 6.84766 34.168 6.33203 33.5938 5.39453C33.1836 4.73828 32.6328 4.28711 31.9414 4.04102ZM35.9668 5.76367C35.7207 5.29492 35.5977 4.84961 35.5977 4.42773C35.5977 3.99414 35.6035 3.70703 35.6152 3.56641C35.627 3.42578 35.6445 3.2793 35.668 3.12695C35.7266 2.76367 35.8203 2.48242 35.9492 2.2832C35.5391 2.42383 35.2285 2.59961 35.0176 2.81055C34.8184 3.02148 34.6602 3.19727 34.543 3.33789C34.3438 3.5957 34.0332 3.83008 33.6113 4.04102C33.916 4.2168 34.2031 4.45703 34.4727 4.76172C34.9531 5.3125 35.4512 5.64648 35.9668 5.76367ZM48.0078 27.5781C47.2109 28.3398 46.4434 28.7207 45.7051 28.7207C45.2949 28.7207 45.0137 28.5684 44.8613 28.2637C45.1309 27.9941 45.2656 27.7246 45.2656 27.4551C45.2656 27.1855 45.2246 26.9805 45.1426 26.8398L44.9141 26.4355L45.1953 26.9629C44.9141 26.834 44.6973 26.6172 44.5449 26.3125C44.3926 26.0078 44.3164 25.6387 44.3164 25.2051C44.3164 24.7598 44.5625 24.2559 45.0547 23.6934C44.8203 23.3652 44.7031 23.002 44.7031 22.6035C44.7031 22.2051 44.7676 21.877 44.8965 21.6191C45.0371 21.3496 45.2129 21.1094 45.4238 20.8984C45.8926 20.4531 46.3906 20.2305 46.918 20.2305C47.2695 20.2305 47.5215 20.3535 47.6738 20.5996C47.3574 20.9395 47.1992 21.4785 47.1992 22.2168C47.1992 22.9434 47.3223 23.5645 47.5684 24.0801C47.8262 24.5957 48.1719 25.0352 48.6055 25.3984C49.5195 26.1719 50.6445 26.5586 51.9805 26.5586C53.4688 26.5586 54.5 26.0137 55.0742 24.9238C55.2383 24.5957 55.3203 24.2676 55.3203 23.9395C55.3203 23.5996 55.2441 23.3008 55.0918 23.043C54.9395 22.7734 54.7402 22.5156 54.4941 22.2695C54.084 21.8711 53.457 21.4141 52.6133 20.8984C51.8047 20.3242 50.8496 20.0371 49.748 20.0371C49.0332 20.0371 48.5527 20.0957 48.3066 20.2129C48.459 19.8613 48.5352 19.5098 48.5352 19.1582C48.5352 18.8066 48.3008 18.4258 47.832 18.0156C47.3633 17.5938 46.9414 17.1719 46.5664 16.75C46.2031 16.3281 45.9102 15.9062 45.6875 15.4844C45.2422 14.6875 45.0195 13.8438 45.0195 12.9531C45.0195 12.0625 45.2012 11.2773 45.5645 10.5977C45.9395 9.90625 46.4609 9.31445 47.1289 8.82227C48.5234 7.7793 50.3105 7.25781 52.4902 7.25781C53.5449 7.25781 54.2656 7.30469 54.6523 7.39844C55.0508 7.49219 55.3672 7.58008 55.6016 7.66211C55.918 7.7793 56.3047 7.83789 56.7617 7.83789C57.2188 7.83789 57.5352 7.73828 57.7109 7.53906C57.8984 7.33984 57.9922 7.1582 57.9922 6.99414C57.9922 6.81836 57.9746 6.68359 57.9395 6.58984C58.0098 6.56641 58.1152 6.55469 58.2559 6.55469C58.3965 6.55469 58.5547 6.5957 58.7305 6.67773C58.918 6.75977 59.082 6.87109 59.2227 7.01172C59.5039 7.32812 59.6445 7.66797 59.6445 8.03125C59.6445 8.38281 59.5742 8.65234 59.4336 8.83984C59.7617 9.14453 59.9258 9.57812 59.9258 10.1406C59.9258 10.7031 59.6914 11.1777 59.2227 11.5645C59.3281 11.7754 59.3809 12.0332 59.3809 12.3379C59.3809 12.6426 59.2168 12.9355 58.8887 13.2168C58.5605 13.498 58.25 13.6387 57.957 13.6387C57.4531 13.6387 57.1133 13.5742 56.9375 13.4453C57.0898 13.0703 57.166 12.666 57.166 12.2324C57.166 11.7871 57.0488 11.3652 56.8145 10.9668C56.5801 10.5684 56.2812 10.2461 55.918 10C55.2383 9.53125 54.4297 9.29688 53.4922 9.29688C52.3086 9.29688 51.5117 9.67187 51.1016 10.4219C50.9727 10.6562 50.9082 10.9141 50.9082 11.1953C50.9082 11.4648 50.9434 11.7168 51.0137 11.9512C51.0957 12.1738 51.2246 12.4023 51.4004 12.6367C51.7402 13.0938 52.2207 13.5273 52.8418 13.9375C53.6504 14.4648 54.2129 14.7285 54.5293 14.7285C55.209 14.7285 55.8008 14.5645 56.3047 14.2363C56.1641 14.7988 56.0938 15.1914 56.0938 15.4141C56.0938 15.7539 56.3633 16.1465 56.9023 16.5918C58.4141 17.6348 59.4453 18.5898 59.9961 19.457C60.5234 20.3008 60.7871 21.2383 60.7871 22.2695C60.7871 23.3008 60.5586 24.1855 60.1016 24.9238C59.6445 25.6504 59.0234 26.2773 58.2383 26.8047C56.6094 27.8945 54.6348 28.4395 52.3145 28.4395C50.7324 28.4395 49.2969 28.1523 48.0078 27.5781ZM47.3926 11.4766C47.0527 11.6406 46.8828 12.0977 46.8828 12.8477C46.8828 13.5859 47.123 14.2949 47.6035 14.9746C48.084 15.6426 48.8457 16.3984 49.8887 17.2422C50.1348 17.4297 50.2578 17.6113 50.2578 17.7871C50.2578 18.0566 50.2344 18.2734 50.1875 18.4375C50.3281 18.4023 50.5742 18.3672 50.9258 18.332C51.7812 18.25 52.8418 18.6484 54.1074 19.5273C56.123 20.7695 57.1309 22.0762 57.1309 23.4473C57.1309 23.9629 57.0605 24.3496 56.9199 24.6074C57.3418 24.5254 57.6641 24.168 57.8867 23.5352C57.9453 23.3477 57.9746 23.1543 57.9746 22.9551C57.9746 22.0059 57.459 21.0449 56.4277 20.0723C55.4082 19.0879 53.9375 18.1387 52.0156 17.2246C48.8281 15.6074 47.2871 13.6914 47.3926 11.4766ZM78.207 28.3516C77.4336 28.3516 76.748 28.1641 76.1504 27.7891C75.5527 28.1641 74.9961 28.3516 74.4805 28.3516C73.9766 28.3516 73.5605 28.3047 73.2324 28.2109C72.9043 28.1289 72.6172 28.0117 72.3711 27.8594C71.8672 27.5547 71.6152 27.1738 71.6152 26.7168C71.6152 26.4824 71.6797 26.2773 71.8086 26.1016C72.0664 26.3008 72.3945 26.4004 72.793 26.4004C73.8359 26.4004 74.5566 25.9551 74.9551 25.0645V16.4688C74.9551 15.9414 74.8438 15.5371 74.6211 15.2559C74.2695 14.7988 73.666 14.3652 72.8105 13.9551C73.5957 13.5918 74.1113 13.2754 74.3574 13.0059C74.7559 12.5488 74.9551 12.0391 74.9551 11.4766V4.05859C74.5566 3.15625 73.8359 2.70508 72.793 2.70508C72.3945 2.70508 72.0664 2.80469 71.8086 3.00391C71.6797 2.82812 71.6152 2.62891 71.6152 2.40625C71.6152 2.17188 71.6797 1.95508 71.8086 1.75586C71.9492 1.55664 72.1367 1.38672 72.3711 1.24609C72.9102 0.917969 73.5254 0.753906 74.2168 0.753906C74.9199 0.753906 75.5645 0.947266 76.1504 1.33398C76.7598 0.947266 77.4395 0.753906 78.1895 0.753906C79.0098 0.753906 79.7246 0.970703 80.334 1.4043C81.6348 0.853516 82.9297 0.578125 84.2188 0.578125C85.5078 0.578125 86.6797 0.707031 87.7344 0.964844C88.8008 1.21094 89.7617 1.5625 90.6172 2.01953C92.4805 3.00391 93.6406 4.28125 94.0977 5.85156C94.3555 6.71875 94.9121 7.36328 95.7676 7.78516C94.8184 8.44141 94.2324 9.19141 94.0098 10.0352C93.5176 11.8867 92.5215 13.0938 91.0215 13.6562C93.2246 14.2656 94.6602 15.707 95.3281 17.9805C95.5625 18.7891 96.1191 19.4512 96.998 19.9668C96.0957 20.4707 95.4922 21.2324 95.1875 22.252C94.8828 23.2715 94.3438 24.1914 93.5703 25.0117C92.8086 25.8203 91.918 26.4883 90.8984 27.0156C88.9297 28.0234 86.709 28.5273 84.2363 28.5273C82.7598 28.5273 81.4414 28.2637 80.2812 27.7363C79.6719 28.1465 78.9805 28.3516 78.207 28.3516ZM84.7109 12.8125C85.7422 12.8125 86.4746 12.5664 86.9082 12.0742C87.3652 11.5703 87.5938 10.7031 87.5938 9.47266V5.41211C87.5938 4.69727 87.2188 4.09375 86.4688 3.60156C85.8125 3.16797 85.2031 2.95117 84.6406 2.95117C84.0898 2.95117 83.6328 3.02148 83.2695 3.16211C82.918 3.29102 82.6016 3.47266 82.3203 3.70703C81.7227 4.19922 81.4238 4.79102 81.4238 5.48242V12.8125H84.7109ZM88.5957 3.35547C88.9941 4.24609 89.1934 5.54688 89.1934 7.25781C89.1934 9.77734 89.0293 11.4121 88.7012 12.1621C89.1934 12.0684 89.6094 11.5938 89.9492 10.7383C90.0781 10.4219 90.1719 10.0879 90.2305 9.73633C90.3008 9.38477 90.3535 9.11523 90.3887 8.92773C90.4355 8.72852 90.5 8.55859 90.582 8.41797C90.7578 8.125 91.0742 7.90234 91.5312 7.75C91.0625 7.59766 90.7695 7.43359 90.6523 7.25781C90.5 7.05859 90.377 6.69531 90.2832 6.16797C90.1895 5.64062 90.0781 5.21289 89.9492 4.88477C89.8203 4.54492 89.6797 4.26953 89.5273 4.05859C89.2344 3.63672 88.9238 3.40234 88.5957 3.35547ZM76.6426 23.3418C77.2285 23.1191 77.5508 22.3516 77.6094 21.0391C77.6797 19.7266 77.7148 17.9102 77.7148 15.5898C77.7148 13.2695 77.709 11.7285 77.6973 10.9668C77.6973 10.1934 77.6914 9.57227 77.6797 9.10352C77.6445 7.7207 77.5098 6.88867 77.2754 6.60742C77.0527 6.31445 76.8418 6.12109 76.6426 6.02734C76.6426 10.1055 76.5723 12.4258 76.4316 12.9883C76.2676 13.457 75.8691 13.791 75.2363 13.9902C75.9395 14.2363 76.3379 14.5352 76.4316 14.8867C76.5723 15.4492 76.6426 17.5059 76.6426 21.0566V23.3418ZM81.4238 23.4121C81.4238 24.2324 81.7344 24.9062 82.3555 25.4336C82.9531 25.9258 83.668 26.1719 84.5 26.1719C85.3086 26.1719 85.9883 25.9961 86.5391 25.6445C87.5938 24.9531 88.1211 24.1621 88.1211 23.2715V18.1211C88.1211 17.0547 87.7754 16.252 87.084 15.7129C86.498 15.2559 85.7305 15.0273 84.7812 15.0273H81.4238V23.4121ZM89.2988 15.5723C89.5801 16.2051 89.7207 17.6699 89.7207 19.9668C89.7207 22.873 89.6152 24.5781 89.4043 25.082C89.6504 25.0352 89.9023 24.7363 90.1602 24.1855C90.418 23.6348 90.5996 23.0664 90.7051 22.4805C90.8105 21.8945 90.8809 21.4961 90.916 21.2852C90.9629 21.0742 91.0273 20.8867 91.1094 20.7227C91.2969 20.3711 91.6133 20.1191 92.0586 19.9668C91.3555 19.7441 90.9395 19.2988 90.8105 18.6309C90.6934 17.9629 90.5762 17.4473 90.459 17.084C90.3418 16.7207 90.2188 16.4336 90.0898 16.2227C89.8672 15.8477 89.6035 15.6309 89.2988 15.5723ZM114.014 22.6914C114.271 22.1992 114.746 21.9531 115.438 21.9531C115.906 21.9531 116.27 22.1465 116.527 22.5332C116.738 22.8379 116.844 23.2129 116.844 23.6582C116.844 24.0918 116.732 24.5312 116.51 24.9766C116.287 25.4219 115.982 25.8262 115.596 26.1895C115.209 26.5527 114.764 26.875 114.26 27.1562C113.768 27.4375 113.24 27.6719 112.678 27.8594C111.518 28.2461 110.311 28.4395 109.057 28.4395C107.803 28.4395 106.625 28.2344 105.523 27.8242C104.434 27.4023 103.496 26.8164 102.711 26.0664C101.176 24.5898 100.238 22.5625 99.8984 19.9844C99.8164 19.4102 99.6816 19 99.4941 18.7539C99.1426 18.3203 98.5625 17.9043 97.7539 17.5059C98.7734 17.0488 99.4238 16.3164 99.7051 15.3086C99.7871 15.0273 99.8516 14.7461 99.8984 14.4648C100.191 12.4023 101.234 10.6445 103.027 9.19141C104.762 7.78516 106.701 7.08203 108.846 7.08203C111.072 7.08203 113 7.86719 114.629 9.4375C116.316 11.0547 117.16 13.041 117.16 15.3965C117.16 15.4785 117.154 15.5605 117.143 15.6426C117.143 15.7246 117.148 15.8008 117.16 15.8711C117.184 16.0234 117.277 16.1113 117.441 16.1348C117.652 16.4043 117.758 16.6914 117.758 16.9961C117.758 17.6992 117.383 18.1152 116.633 18.2441C116.445 18.2793 116.152 18.3262 115.754 18.3848L105.84 19.9668V21.6543C105.84 23.0137 106.25 24.0918 107.07 24.8887C107.844 25.6504 108.822 26.0312 110.006 26.0312C111.26 26.0312 112.268 25.7734 113.029 25.2578C113.744 24.7656 114.102 24.1211 114.102 23.3242C114.102 23.1367 114.072 22.9258 114.014 22.6914ZM110.938 17.0137V12.0918C110.938 11.3184 110.785 10.75 110.48 10.3867C109.941 9.76563 109.408 9.45508 108.881 9.45508C108.354 9.45508 107.914 9.53711 107.562 9.70117C107.211 9.85352 106.906 10.0996 106.648 10.4395C106.109 11.1543 105.84 12.2676 105.84 13.7793V17.8398L110.938 17.0137ZM113.539 16.5742V16.0293C113.539 13.8496 113.357 12.5312 112.994 12.0742C112.83 11.875 112.648 11.7285 112.449 11.6348V16.75L113.539 16.5742ZM102.975 23.3418C103.139 23.2129 103.221 23.0664 103.221 22.9023C103.221 22.6445 103.168 22.3164 103.062 21.918C102.582 20.0781 102.342 18.8008 102.342 18.0859C102.342 17.3594 102.365 16.7969 102.412 16.3984C102.459 15.9883 102.523 15.5781 102.605 15.168C102.746 14.3711 102.898 13.668 103.062 13.0586C103.168 12.6602 103.221 12.3906 103.221 12.25C103.221 11.9688 103.139 11.7637 102.975 11.6348C102.482 12.2207 102.107 13.0059 101.85 13.9902C101.592 14.9746 101.381 15.8418 101.217 16.5918C101.158 16.9082 100.812 17.2129 100.18 17.5059C100.812 17.7988 101.158 18.0918 101.217 18.3848C101.65 20.3652 102.008 21.625 102.289 22.1641C102.57 22.7031 102.799 23.0957 102.975 23.3418ZM132.348 26.3301C131.281 27.7363 129.682 28.4395 127.549 28.4395C124.947 28.4395 122.996 27.6602 121.695 26.1016C121.133 25.4336 120.746 24.6895 120.535 23.8691C120.418 23.377 120.213 23.002 119.92 22.7441C119.627 22.4746 119.264 22.2344 118.83 22.0234C119.674 21.6367 120.277 20.9102 120.641 19.8438C121.027 18.7188 121.672 17.9043 122.574 17.4004C123.547 16.873 124.619 16.5977 125.791 16.5742C126.963 16.5391 127.83 16.498 128.393 16.4512C128.955 16.4043 129.453 16.3281 129.887 16.2227C130.695 16.0352 131.328 15.6895 131.785 15.1855V12.5488C131.785 11.3887 131.545 10.5391 131.064 10C130.596 9.46094 129.875 9.19141 128.902 9.19141C127.941 9.19141 127.227 9.37305 126.758 9.73633C126.301 10.0879 126.072 10.5625 126.072 11.1602C126.072 12.0742 126.541 12.5195 127.479 12.4961C127.291 13.4102 126.799 13.8672 126.002 13.8672C125.768 13.8672 125.539 13.8262 125.316 13.7441V13.7969C125.316 14.1016 125.457 14.2949 125.738 14.377C125.445 14.8223 124.953 15.0391 124.262 15.0273C123.57 15.0156 123.031 14.6465 122.645 13.9199C122.469 13.9668 122.264 13.9902 122.029 13.9902C121.807 13.9902 121.555 13.9141 121.273 13.7617C121.004 13.6094 120.787 13.3984 120.623 13.1289C121.209 12.7773 121.566 12.2324 121.695 11.4941C121.836 10.5918 122.557 9.67773 123.857 8.75195C125.428 7.63867 127.432 7.08203 129.869 7.08203C133.912 7.08203 136.379 8.32422 137.27 10.8086C137.562 11.6406 137.709 12.625 137.709 13.7617V15.1855C137.709 15.7598 137.85 16.2285 138.131 16.5918C138.424 16.9551 138.916 17.2539 139.607 17.4883C138.869 17.8281 138.395 18.1328 138.184 18.4023C137.867 18.8125 137.709 19.2812 137.709 19.8086V25.082C138.049 25.9609 138.535 26.4004 139.168 26.4004C139.566 26.4004 139.895 26.3008 140.152 26.1016C140.316 26.3242 140.398 26.6055 140.398 26.9453C140.398 27.2734 140.229 27.5898 139.889 27.8945C139.561 28.1992 139.062 28.3516 138.395 28.3516C137.727 28.3516 137.105 28.1641 136.531 27.7891C136.027 28.1641 135.576 28.3516 135.178 28.3516C134.791 28.3516 134.451 28.3105 134.158 28.2285C133.877 28.1582 133.613 28.041 133.367 27.877C132.816 27.5137 132.477 26.998 132.348 26.3301ZM133.455 23.3418C134.135 23.0723 134.492 21.7773 134.527 19.457C134.527 18.9648 134.527 18.4023 134.527 17.7695C134.527 17.1367 134.521 16.5977 134.51 16.1523C134.51 15.6953 134.504 15.2617 134.492 14.8516C134.445 13.375 134.311 12.4961 134.088 12.2148C133.865 11.9219 133.654 11.7285 133.455 11.6348V23.3418ZM126.969 22.0938C126.969 22.5859 127.021 23.0664 127.127 23.5352C127.232 24.0039 127.391 24.4141 127.602 24.7656C128.07 25.5039 128.732 25.873 129.588 25.873C130.232 25.873 130.766 25.6094 131.188 25.082C131.586 24.5664 131.785 23.9043 131.785 23.0957V17.3652C131.035 17.7988 130.074 18.0977 128.902 18.2617C127.613 18.4609 126.969 19.7383 126.969 22.0938ZM124.332 26.0488C124.449 25.9668 124.508 25.8613 124.508 25.7324C124.508 25.5566 124.426 25.3105 124.262 24.9941C123.676 23.916 123.383 23.0312 123.383 22.3398C123.383 21.6484 123.406 21.1504 123.453 20.8457C123.512 20.541 123.582 20.2832 123.664 20.0723C123.758 19.8496 123.857 19.6562 123.963 19.4922C124.08 19.3281 124.18 19.1816 124.262 19.0527C124.414 18.7832 124.49 18.6016 124.49 18.5078C124.49 18.4023 124.438 18.3145 124.332 18.2441C123.852 18.4668 123.5 18.7305 123.277 19.0352C122.879 19.5742 122.586 20.2715 122.398 21.127C122.352 21.373 121.941 21.6719 121.168 22.0234C121.918 22.3633 122.328 22.6621 122.398 22.9199C122.797 24.3145 123.441 25.3574 124.332 26.0488ZM159.102 28.3516C157.449 28.3516 156.559 27.209 156.43 24.9238C155.832 26.002 155.023 26.8574 154.004 27.4902C152.996 28.123 151.906 28.4395 150.734 28.4395C149.574 28.4395 148.631 28.2812 147.904 27.9648C147.178 27.6484 146.574 27.1914 146.094 26.5938C145.156 25.4219 144.688 23.7578 144.688 21.6016V20.5117C144.688 19.1523 143.973 18.1445 142.543 17.4883C143.387 17.0781 143.926 16.7324 144.16 16.4512C144.512 16.0176 144.688 15.5312 144.688 14.9922V12.6191C144.688 11.623 144.348 11.084 143.668 11.002C143.469 10.9785 143.217 10.9668 142.912 10.9668C142.607 10.9668 142.326 11.0664 142.068 11.2656C141.904 11.043 141.822 10.8145 141.822 10.5801C141.822 10.334 141.881 10.0645 141.998 9.77148C142.127 9.4668 142.32 9.17969 142.578 8.91016C143.188 8.27734 143.896 7.96094 144.705 7.96094C145.514 7.96094 146.275 8.0957 146.99 8.36523C147.506 7.62695 148.115 7.25781 148.818 7.25781C150.025 7.25781 150.629 7.89062 150.629 9.15625V20.5996C150.629 22.8262 151.145 24.1621 152.176 24.6074C152.504 24.748 152.867 24.8184 153.266 24.8184C153.676 24.8184 154.045 24.7363 154.373 24.5723C154.701 24.3965 154.988 24.1621 155.234 23.8691C155.691 23.2949 155.984 22.5098 156.113 21.5137V12.6191C156.113 11.2832 155.568 10.6152 154.479 10.6152C154.08 10.6152 153.752 10.7148 153.494 10.9141C153.33 10.6914 153.248 10.4629 153.248 10.2285C153.248 9.98242 153.307 9.73047 153.424 9.47266C153.553 9.20313 153.746 8.95703 154.004 8.73438C154.578 8.21875 155.275 7.96094 156.096 7.96094C156.928 7.96094 157.701 8.0957 158.416 8.36523C158.932 7.62695 159.541 7.25781 160.244 7.25781C161.451 7.25781 162.055 7.89062 162.055 9.15625V14.9922C162.055 15.5312 162.16 15.9297 162.371 16.1875C162.746 16.6445 163.355 17.0781 164.199 17.4883C162.77 18.1445 162.055 19.1523 162.055 20.5117V25.0469C162.277 25.9492 162.764 26.4004 163.514 26.4004C163.912 26.4004 164.24 26.3008 164.498 26.1016C164.662 26.3242 164.744 26.6055 164.744 26.9453C164.744 27.2734 164.574 27.5898 164.234 27.8945C163.906 28.1992 163.385 28.3516 162.67 28.3516C161.967 28.3516 161.299 28.1641 160.666 27.7891C160.197 28.1641 159.676 28.3516 159.102 28.3516ZM157.783 23.3418C158.463 23.0723 158.82 21.7773 158.855 19.457C158.855 18.9648 158.855 18.4023 158.855 17.7695C158.855 17.1367 158.85 16.5977 158.838 16.1523C158.838 15.6953 158.832 15.2617 158.82 14.8516C158.773 13.375 158.639 12.4961 158.416 12.2148C158.193 11.9219 157.982 11.7285 157.783 11.6348V23.3418ZM147.271 17.4883L147.324 15.168C147.324 14.125 147.289 13.4336 147.219 13.0938C147.02 12.2031 146.738 11.7168 146.375 11.6348V12.7773C146.375 14.7578 146.328 15.9238 146.234 16.2754C146.152 16.6152 146.012 16.873 145.812 17.0488C145.625 17.2129 145.344 17.3594 144.969 17.4883C145.672 17.7344 146.07 18.0332 146.164 18.3848C146.305 18.9473 146.375 20.2188 146.375 22.1992V23.3418C146.727 23.2598 147.014 22.7383 147.236 21.7773C147.295 21.5078 147.324 20.8516 147.324 19.8086L147.271 17.4883ZM178.367 25.4336C178.59 25.1992 178.766 24.9062 178.895 24.5547C179.023 24.1914 179.088 23.8164 179.088 23.4297C179.088 23.0312 179.064 22.668 179.018 22.3398C179.1 22.1641 179.322 22.0293 179.686 21.9355C180.049 21.8301 180.289 21.7773 180.406 21.7773C180.852 21.7773 181.209 21.9473 181.479 22.2871C181.748 22.6152 181.883 23.0781 181.883 23.6758C181.883 24.2617 181.707 24.8418 181.355 25.416C181.016 25.9902 180.559 26.5 179.984 26.9453C178.707 27.9414 177.219 28.4395 175.52 28.4395C172.285 28.4395 170.141 27.2148 169.086 24.7656C168.699 23.8633 168.506 22.7324 168.506 21.373V19.2285C168.506 18.6777 167.902 18.0977 166.695 17.4883C167.902 16.7969 168.506 15.8652 168.506 14.6934V12.6191C168.506 11.2832 167.961 10.6152 166.871 10.6152C166.473 10.6152 166.145 10.7148 165.887 10.9141C165.723 10.6914 165.641 10.4629 165.641 10.2285C165.641 9.98242 165.682 9.71875 165.764 9.4375C165.857 9.14453 166.016 8.88086 166.238 8.64648C166.801 8.03711 167.674 7.82617 168.857 8.01367V7.45117C168.857 6.2207 169.168 5.13672 169.789 4.19922C170.34 3.35547 170.826 2.93359 171.248 2.93359C171.682 2.93359 172.016 3.08008 172.25 3.37305C172.449 2.44727 172.713 1.7793 173.041 1.36914C173.369 0.958984 173.838 0.753906 174.447 0.753906V8.08398H180.16C180.254 8.27148 180.301 8.58789 180.301 9.0332C180.301 9.4668 180.131 9.81836 179.791 10.0879C179.451 10.3457 179.041 10.4746 178.561 10.4746H174.447V22.375C174.447 24.4141 174.91 25.6094 175.836 25.9609C176.105 26.0547 176.393 26.1016 176.697 26.1016C177.014 26.1016 177.312 26.0488 177.594 25.9434C177.887 25.8262 178.145 25.6562 178.367 25.4336ZM170.193 23.3418C170.744 22.9902 171.055 22.2578 171.125 21.1445C171.172 20.3477 171.195 19.7266 171.195 19.2812C171.207 18.8359 171.213 18.4785 171.213 18.209C171.225 17.9277 171.23 17.7109 171.23 17.5586V16.8555C171.23 16.5156 171.225 16.082 171.213 15.5547C171.213 15.0156 171.207 14.4355 171.195 13.8145C171.195 13.1816 171.184 12.5781 171.16 12.0039C171.125 10.6211 171.072 9.77734 171.002 9.47266C170.861 8.79297 170.592 8.32422 170.193 8.06641V13.5508C170.193 15.1797 170.164 16.041 170.105 16.1348C170.059 16.2285 170.018 16.3398 169.982 16.4688C169.877 16.8203 169.479 17.1133 168.787 17.3477C169.49 17.5938 169.889 17.8926 169.982 18.2441C170.123 18.8066 170.193 20.125 170.193 22.1992V23.3418ZM203.416 9.87695C203.158 9.71289 202.748 9.63086 202.186 9.63086C201.061 9.63086 200.211 10.3926 199.637 11.916L199.092 13.4453C198.693 14.5586 198.488 15.3203 198.477 15.7305C198.477 16.1406 198.547 16.4746 198.688 16.7324C198.84 16.9785 199.174 17.2363 199.689 17.5059C198.424 17.8574 197.562 18.4492 197.105 19.2812C196.965 19.5391 196.842 19.8086 196.736 20.0898L193.818 28.0176C192.682 31.2871 191.627 33.502 190.654 34.6621C189.764 35.7285 188.65 36.2617 187.314 36.2617C186.295 36.2617 185.334 35.9336 184.432 35.2773C183.4 34.5391 182.885 33.6719 182.885 32.6758C182.885 32.0547 183.049 31.5801 183.377 31.252C183.705 30.9355 184.004 30.7773 184.273 30.7773C184.555 30.7773 184.748 30.7773 184.854 30.7773C184.959 30.7891 185.064 30.8125 185.17 30.8477C185.381 30.9414 185.58 31.1523 185.768 31.4805C185.521 31.9492 185.68 32.4648 186.242 33.0273C186.77 33.5781 187.262 33.8535 187.719 33.8535C188.188 33.8535 188.574 33.7656 188.879 33.5898C189.195 33.4141 189.477 33.1445 189.723 32.7812C190.262 31.9844 190.531 30.8418 190.531 29.3535C190.531 28.5449 190.314 27.6543 189.881 26.6816C189.764 26.3535 189.623 26.0078 189.459 25.6445L186.963 20.0195C186.693 19.4219 186.283 18.8945 185.732 18.4375C185.193 17.9688 184.584 17.6582 183.904 17.5059C184.713 17.0957 185.117 16.5566 185.117 15.8887C185.117 15.4082 184.924 14.6992 184.537 13.7617L183.5 11.2656C183.195 10.5859 182.943 10.1582 182.744 9.98242C182.393 9.70117 181.982 9.56055 181.514 9.56055C181.057 9.56055 180.699 9.66016 180.441 9.85938C180.301 9.71875 180.23 9.51367 180.23 9.24414C180.219 8.97461 180.248 8.75195 180.318 8.57617C180.389 8.38867 180.506 8.22461 180.67 8.08398C181.021 7.76758 181.525 7.60938 182.182 7.60938C182.85 7.60938 183.477 7.82031 184.062 8.24219C184.543 7.82031 185.129 7.60938 185.82 7.60938C186.512 7.60938 187.121 7.80273 187.648 8.18945C188.176 7.80273 188.768 7.60938 189.424 7.60938C190.08 7.60938 190.596 7.76758 190.971 8.08398C191.357 8.38867 191.557 8.69336 191.568 8.99805C191.58 9.45508 191.504 9.76563 191.34 9.92969C191.059 9.71875 190.766 9.61328 190.461 9.61328C190.156 9.61328 189.904 9.70117 189.705 9.87695C189.518 10.0527 189.436 10.3398 189.459 10.7383L193.52 21.707L197.369 10.4395C197.24 9.8418 196.812 9.54297 196.086 9.54297C195.629 9.54297 195.195 9.6543 194.785 9.87695C194.668 9.6543 194.609 9.36719 194.609 9.01562C194.621 8.66406 194.785 8.3418 195.102 8.04883C195.43 7.75586 195.869 7.60938 196.42 7.60938C196.982 7.60938 197.463 7.79688 197.861 8.17188C198.283 7.79688 198.758 7.60938 199.285 7.60938C199.812 7.60938 200.293 7.77344 200.727 8.10156C201.125 7.77344 201.564 7.60938 202.045 7.60938C202.537 7.60938 202.924 7.75 203.205 8.03125C203.498 8.3125 203.639 8.60547 203.627 8.91016C203.604 9.37891 203.533 9.70117 203.416 9.87695ZM186.488 11.6348C186.219 11.8105 186.084 12.0332 186.084 12.3027C186.096 12.5723 186.107 12.7832 186.119 12.9355C186.143 13.0762 186.178 13.2461 186.225 13.4453C186.33 13.8203 186.541 14.377 186.857 15.1152C187.186 15.8418 187.355 16.2988 187.367 16.4863C187.391 16.6621 187.332 16.8613 187.191 17.084C187.051 17.2949 186.881 17.4355 186.682 17.5059C187.432 17.6465 187.895 17.9102 188.07 18.2969C188.152 18.4609 188.27 18.7188 188.422 19.0703L189.617 21.7422C189.852 22.2812 190.098 22.8145 190.355 23.3418C190.836 22.7559 190.625 21.4082 189.723 19.2988L186.488 11.6348Z" fill="url(#paint1_linear_71_92)"/>
<defs>
<linearGradient id="paint0_linear_71_92" x1="-1" y1="15" x2="203" y2="15" gradientUnits="userSpaceOnUse">
<stop/>
<stop offset="1"/>
</linearGradient>
<linearGradient id="paint1_linear_71_92" x1="-1" y1="15" x2="203" y2="15" gradientUnits="userSpaceOnUse">
<stop stop-color="#FF0844"/>
<stop offset="1" stop-color="#FFB199"/>
</linearGradient>
</defs>
</svg>
