<svg width="346" height="346" viewBox="0 0 346 346" fill="none" xmlns="http://www.w3.org/2000/svg">
<path opacity="0.94" d="M134.809 67.1979C135.316 57.524 147.906 54.1505 153.182 62.2749L188.211 116.214C190.57 119.848 195.001 121.548 199.186 120.427L261.31 103.781C270.667 101.274 277.766 112.205 271.669 119.734L231.194 169.716C228.468 173.083 228.219 177.822 230.579 181.456L265.608 235.395C270.884 243.519 262.681 253.649 253.637 250.177L193.594 227.129C189.549 225.576 184.965 226.804 182.239 230.171L141.764 280.154C135.667 287.682 123.499 283.011 124.006 273.337L127.372 209.11C127.599 204.784 125.014 200.803 120.969 199.251L60.9257 176.202C51.8819 172.731 52.564 159.714 61.9212 157.207L124.045 140.561C128.23 139.44 131.216 135.751 131.443 131.425L134.809 67.1979Z" fill="url(#paint0_linear_71_198)"/>
<g filter="url(#filter0_f_71_198)">
<circle cx="173.049" cy="172.641" r="11.0103" transform="rotate(-15 173.049 172.641)" fill="white"/>
</g>
<g filter="url(#filter1_f_71_198)">
<path d="M138.59 75.3866C138.688 68.6612 142.183 58.3458 155.383 70.8872C151.081 68.6402 141.7 66.3943 138.59 75.3866Z" fill="white"/>
</g>
<g filter="url(#filter2_f_71_198)">
<path d="M67.8034 175.117C62.0279 171.67 54.8421 163.485 72.3029 158.325C68.2061 160.926 61.5707 167.927 67.8034 175.117Z" fill="white"/>
</g>
<g filter="url(#filter3_f_71_198)">
<path d="M253.503 110.972C259.376 107.694 270.057 105.563 265.796 123.265C265.591 118.416 262.846 109.169 253.503 110.972Z" fill="white"/>
</g>
<g filter="url(#filter4_f_71_198)">
<path d="M257.401 230.274C262.088 235.099 266.91 244.865 248.709 245.33C253.34 243.877 261.561 238.832 257.401 230.274Z" fill="white"/>
</g>
<g filter="url(#filter5_f_71_198)">
<path d="M143.668 270.948C140.221 276.723 132.036 283.909 126.876 266.448C129.478 270.545 136.479 277.18 143.668 270.948Z" fill="white"/>
</g>
<g filter="url(#filter6_f_71_198)">
<path d="M163.718 155.594L163.291 166.444L160.857 167.096C160.728 167.13 160.608 167.121 160.498 167.068C160.387 167.015 160.281 166.905 160.182 166.738L157.414 162.128C157.283 161.921 157.159 161.716 157.042 161.513C156.932 161.308 156.824 161.099 156.719 160.885C156.734 161.123 156.743 161.362 156.745 161.603C156.754 161.842 156.753 162.084 156.743 162.328L156.627 167.691C156.62 168.052 156.452 168.276 156.124 168.364L153.806 168.985L148.012 159.802L150.407 159.16C150.62 159.103 150.81 159.107 150.98 159.172C151.154 159.229 151.286 159.325 151.378 159.459L153.586 163.681C153.761 164 153.924 164.312 154.074 164.617C154.223 164.915 154.367 165.218 154.504 165.526C154.502 165.182 154.503 164.84 154.509 164.5C154.519 164.152 154.533 163.793 154.551 163.423L154.601 158.585C154.613 158.423 154.677 158.275 154.793 158.14C154.907 157.999 155.06 157.903 155.253 157.851L156.586 157.494C156.799 157.437 156.99 157.441 157.159 157.506C157.333 157.563 157.466 157.659 157.557 157.793L159.961 161.973C160.149 162.289 160.331 162.595 160.507 162.893C160.69 163.189 160.864 163.491 161.03 163.799C160.995 163.463 160.97 163.125 160.954 162.784C160.939 162.443 160.93 162.086 160.927 161.714L160.786 156.938C160.797 156.776 160.861 156.628 160.977 156.493C161.091 156.352 161.245 156.256 161.438 156.204L163.718 155.594ZM167.849 154.486L170.533 164.503L167.539 165.305L164.855 155.289L167.849 154.486ZM167.423 151.66C167.487 151.899 167.499 152.137 167.459 152.375C167.418 152.607 167.335 152.826 167.211 153.032C167.085 153.232 166.922 153.41 166.723 153.567C166.528 153.716 166.305 153.824 166.054 153.891C165.809 153.956 165.568 153.973 165.332 153.939C165.093 153.9 164.87 153.825 164.661 153.715C164.457 153.598 164.279 153.449 164.127 153.268C163.98 153.08 163.874 152.867 163.81 152.628C163.745 152.384 163.729 152.143 163.762 151.906C163.802 151.668 163.88 151.447 163.998 151.243C164.122 151.037 164.279 150.86 164.467 150.713C164.655 150.566 164.872 150.46 165.117 150.394C165.368 150.327 165.615 150.309 165.858 150.341C166.108 150.37 166.338 150.443 166.548 150.559C166.759 150.675 166.941 150.827 167.094 151.013C167.248 151.2 167.357 151.416 167.423 151.66ZM176.246 163.138C175.77 163.266 175.33 163.311 174.927 163.274C174.528 163.229 174.169 163.115 173.851 162.931C173.537 162.739 173.268 162.48 173.042 162.154C172.817 161.827 172.645 161.442 172.526 160.998L171.138 155.821L170.288 156.048C170.134 156.09 169.989 156.077 169.853 156.01C169.716 155.936 169.622 155.802 169.57 155.609L169.257 154.44L170.768 153.704L170.702 151.103C170.697 150.773 170.874 150.56 171.235 150.463L172.8 150.044L173.584 152.97L176.066 152.305L176.615 154.353L174.133 155.018L175.466 159.993C175.528 160.225 175.634 160.403 175.785 160.528C175.941 160.645 176.125 160.675 176.337 160.618C176.447 160.589 176.534 160.555 176.6 160.517C176.67 160.471 176.728 160.428 176.772 160.388C176.822 160.34 176.866 160.301 176.906 160.269C176.951 160.23 177.005 160.201 177.07 160.184C177.16 160.16 177.237 160.163 177.3 160.195C177.369 160.218 177.444 160.267 177.526 160.341L178.815 161.518C178.506 161.911 178.13 162.247 177.687 162.524C177.241 162.795 176.761 163 176.246 163.138ZM180.581 152.017C180.859 151.611 181.182 151.259 181.551 150.96C181.924 150.653 182.404 150.421 182.99 150.264C183.537 150.117 184.046 150.084 184.516 150.165C184.991 150.238 185.419 150.407 185.801 150.67C186.18 150.927 186.507 151.271 186.781 151.702C187.053 152.126 187.263 152.611 187.41 153.159L189.115 159.524L186.121 160.326L184.415 153.961C184.284 153.472 184.07 153.122 183.772 152.912C183.472 152.695 183.103 152.646 182.666 152.763C182.337 152.851 182.047 153.005 181.795 153.224C181.548 153.435 181.321 153.696 181.115 154.007L183.03 161.155L180.035 161.957L176.161 147.497L179.155 146.695L180.581 152.017Z" fill="white"/>
</g>
<g filter="url(#filter7_d_71_198)">
<path d="M163.718 155.594L163.291 166.444L160.857 167.096C160.728 167.13 160.608 167.121 160.498 167.068C160.387 167.015 160.281 166.905 160.182 166.738L157.414 162.128C157.283 161.921 157.159 161.716 157.042 161.513C156.932 161.308 156.824 161.099 156.719 160.885C156.734 161.123 156.743 161.362 156.745 161.603C156.754 161.842 156.753 162.084 156.743 162.328L156.627 167.691C156.62 168.052 156.452 168.276 156.124 168.364L153.806 168.985L148.012 159.802L150.407 159.16C150.62 159.103 150.81 159.107 150.98 159.172C151.154 159.229 151.286 159.325 151.378 159.459L153.586 163.681C153.761 164 153.924 164.312 154.074 164.617C154.223 164.915 154.367 165.218 154.504 165.526C154.502 165.182 154.503 164.84 154.509 164.5C154.519 164.152 154.533 163.793 154.551 163.423L154.601 158.585C154.613 158.423 154.677 158.275 154.793 158.14C154.907 157.999 155.06 157.903 155.253 157.851L156.586 157.494C156.799 157.437 156.99 157.441 157.159 157.506C157.333 157.563 157.466 157.659 157.557 157.793L159.961 161.973C160.149 162.289 160.331 162.595 160.507 162.893C160.69 163.189 160.864 163.491 161.03 163.799C160.995 163.463 160.97 163.125 160.954 162.784C160.939 162.443 160.93 162.086 160.927 161.714L160.786 156.938C160.797 156.776 160.861 156.628 160.977 156.493C161.091 156.352 161.245 156.256 161.438 156.204L163.718 155.594ZM167.849 154.486L170.533 164.503L167.539 165.305L164.855 155.289L167.849 154.486ZM167.423 151.66C167.487 151.899 167.499 152.137 167.459 152.375C167.418 152.607 167.335 152.826 167.211 153.032C167.085 153.232 166.922 153.41 166.723 153.567C166.528 153.716 166.305 153.824 166.054 153.891C165.809 153.956 165.568 153.973 165.332 153.939C165.093 153.9 164.87 153.825 164.661 153.715C164.457 153.598 164.279 153.449 164.127 153.268C163.98 153.08 163.874 152.867 163.81 152.628C163.745 152.384 163.729 152.143 163.762 151.906C163.802 151.668 163.88 151.447 163.998 151.243C164.122 151.037 164.279 150.86 164.467 150.713C164.655 150.566 164.872 150.46 165.117 150.394C165.368 150.327 165.615 150.309 165.858 150.341C166.108 150.37 166.338 150.443 166.548 150.559C166.759 150.675 166.941 150.827 167.094 151.013C167.248 151.2 167.357 151.416 167.423 151.66ZM176.246 163.138C175.77 163.266 175.33 163.311 174.927 163.274C174.528 163.229 174.169 163.115 173.851 162.931C173.537 162.739 173.268 162.48 173.042 162.154C172.817 161.827 172.645 161.442 172.526 160.998L171.138 155.821L170.288 156.048C170.134 156.09 169.989 156.077 169.853 156.01C169.716 155.936 169.622 155.802 169.57 155.609L169.257 154.44L170.768 153.704L170.702 151.103C170.697 150.773 170.874 150.56 171.235 150.463L172.8 150.044L173.584 152.97L176.066 152.305L176.615 154.353L174.133 155.018L175.466 159.993C175.528 160.225 175.634 160.403 175.785 160.528C175.941 160.645 176.125 160.675 176.337 160.618C176.447 160.589 176.534 160.555 176.6 160.517C176.67 160.471 176.728 160.428 176.772 160.388C176.822 160.34 176.866 160.301 176.906 160.269C176.951 160.23 177.005 160.201 177.07 160.184C177.16 160.16 177.237 160.163 177.3 160.195C177.369 160.218 177.444 160.267 177.526 160.341L178.815 161.518C178.506 161.911 178.13 162.247 177.687 162.524C177.241 162.795 176.761 163 176.246 163.138ZM180.581 152.017C180.859 151.611 181.182 151.259 181.551 150.96C181.924 150.653 182.404 150.421 182.99 150.264C183.537 150.117 184.046 150.084 184.516 150.165C184.991 150.238 185.419 150.407 185.801 150.67C186.18 150.927 186.507 151.271 186.781 151.702C187.053 152.126 187.263 152.611 187.41 153.159L189.115 159.524L186.121 160.326L184.415 153.961C184.284 153.472 184.07 153.122 183.772 152.912C183.472 152.695 183.103 152.646 182.666 152.763C182.337 152.851 182.047 153.005 181.795 153.224C181.548 153.435 181.321 153.696 181.115 154.007L183.03 161.155L180.035 161.957L176.161 147.497L179.155 146.695L180.581 152.017Z" fill="white"/>
</g>
<g filter="url(#filter8_f_71_198)">
<path d="M146.783 132.592L147.738 136.156L152.549 134.867L153.224 137.388L148.414 138.677L149.881 144.154L146.597 145.034L142.826 130.961L151.886 128.533L152.559 131.044L146.783 132.592ZM156.987 133.171C157.151 132.547 157.392 132.027 157.708 131.611C158.031 131.193 158.453 130.914 158.975 130.775C159.425 130.654 159.821 130.662 160.161 130.798L160.558 133.052C160.564 133.203 160.535 133.314 160.472 133.386C160.415 133.457 160.322 133.509 160.193 133.544C160.141 133.558 160.073 133.572 159.987 133.588C159.902 133.604 159.813 133.621 159.721 133.639C159.628 133.65 159.532 133.666 159.434 133.685C159.34 133.696 159.254 133.712 159.177 133.733C158.739 133.85 158.419 134.06 158.218 134.363C158.022 134.664 157.889 135.044 157.82 135.505L159.45 141.59L156.456 142.392L153.772 132.376L155.549 131.9C155.697 131.86 155.823 131.84 155.926 131.84C156.036 131.838 156.131 131.857 156.211 131.898C156.296 131.931 156.366 131.988 156.423 132.069C156.486 132.149 156.547 132.25 156.607 132.372L156.987 133.171ZM168.228 132.581C168.165 132.343 168.07 132.12 167.946 131.912C167.827 131.702 167.674 131.529 167.486 131.393C167.302 131.249 167.083 131.152 166.828 131.103C166.573 131.054 166.285 131.073 165.963 131.159C165.396 131.311 164.996 131.594 164.762 132.009C164.526 132.417 164.439 132.941 164.5 133.58L168.228 132.581ZM164.927 135.329C165.248 136.14 165.666 136.681 166.179 136.95C166.692 137.213 167.273 137.258 167.923 137.084C168.271 136.99 168.559 136.868 168.788 136.717C169.017 136.566 169.214 136.413 169.379 136.259C169.551 136.102 169.707 135.96 169.845 135.833C169.99 135.705 170.153 135.616 170.333 135.568C170.572 135.504 170.775 135.543 170.944 135.684L172.101 136.523C171.886 136.96 171.629 137.34 171.329 137.662C171.034 137.976 170.713 138.248 170.368 138.478C170.027 138.701 169.673 138.886 169.305 139.032C168.945 139.184 168.595 139.305 168.253 139.397C167.551 139.585 166.861 139.649 166.183 139.589C165.509 139.522 164.88 139.324 164.295 138.998C163.717 138.67 163.203 138.207 162.753 137.61C162.31 137.011 161.969 136.267 161.731 135.378C161.552 134.708 161.494 134.044 161.559 133.385C161.631 132.724 161.818 132.111 162.123 131.546C162.433 130.98 162.856 130.484 163.39 130.057C163.931 129.629 164.585 129.313 165.351 129.107C166.015 128.93 166.648 128.871 167.25 128.93C167.859 128.988 168.413 129.16 168.911 129.448C169.415 129.734 169.854 130.134 170.226 130.648C170.603 131.155 170.889 131.768 171.082 132.489C171.142 132.715 171.182 132.901 171.2 133.048C171.219 133.195 171.214 133.317 171.185 133.414C171.156 133.512 171.1 133.589 171.019 133.645C170.944 133.7 170.839 133.745 170.703 133.781L164.927 135.329ZM178.642 129.791C178.578 129.552 178.484 129.329 178.359 129.121C178.241 128.911 178.088 128.738 177.899 128.603C177.716 128.458 177.497 128.362 177.242 128.313C176.987 128.264 176.699 128.282 176.377 128.369C175.81 128.52 175.41 128.804 175.176 129.218C174.94 129.627 174.853 130.15 174.914 130.79L178.642 129.791ZM175.341 132.539C175.662 133.35 176.079 133.89 176.593 134.16C177.106 134.423 177.687 134.467 178.337 134.293C178.685 134.2 178.973 134.078 179.202 133.927C179.431 133.776 179.628 133.623 179.793 133.468C179.965 133.312 180.121 133.17 180.259 133.043C180.404 132.915 180.567 132.826 180.747 132.778C180.985 132.714 181.189 132.753 181.358 132.894L182.515 133.733C182.3 134.17 182.043 134.549 181.743 134.871C181.447 135.185 181.127 135.457 180.782 135.688C180.441 135.91 180.087 136.095 179.719 136.242C179.359 136.394 179.009 136.515 178.667 136.607C177.965 136.795 177.275 136.859 176.597 136.799C175.923 136.731 175.293 136.534 174.709 136.207C174.131 135.879 173.617 135.416 173.167 134.819C172.724 134.22 172.383 133.476 172.145 132.588C171.965 131.918 171.908 131.254 171.973 130.594C172.044 129.933 172.232 129.32 172.536 128.756C172.847 128.189 173.27 127.693 173.804 127.267C174.345 126.839 174.999 126.522 175.765 126.317C176.429 126.139 177.061 126.08 177.664 126.14C178.273 126.197 178.827 126.37 179.325 126.657C179.829 126.943 180.268 127.343 180.64 127.858C181.017 128.364 181.303 128.978 181.496 129.699C181.556 129.924 181.596 130.111 181.614 130.257C181.633 130.404 181.628 130.526 181.599 130.624C181.57 130.721 181.514 130.798 181.433 130.855C181.358 130.909 181.253 130.955 181.117 130.991L175.341 132.539Z" fill="white"/>
</g>
<g filter="url(#filter9_d_71_198)">
<path d="M146.783 132.592L147.738 136.156L152.549 134.867L153.224 137.388L148.414 138.677L149.881 144.154L146.597 145.034L142.826 130.961L151.886 128.533L152.559 131.044L146.783 132.592ZM156.987 133.171C157.151 132.547 157.392 132.027 157.708 131.611C158.031 131.193 158.453 130.914 158.975 130.775C159.425 130.654 159.821 130.662 160.161 130.798L160.558 133.052C160.564 133.203 160.535 133.314 160.472 133.386C160.415 133.457 160.322 133.509 160.193 133.544C160.141 133.558 160.073 133.572 159.987 133.588C159.902 133.604 159.813 133.621 159.721 133.639C159.628 133.65 159.532 133.666 159.434 133.685C159.34 133.696 159.254 133.712 159.177 133.733C158.739 133.85 158.419 134.06 158.218 134.363C158.022 134.664 157.889 135.044 157.82 135.505L159.45 141.59L156.456 142.392L153.772 132.376L155.549 131.9C155.697 131.86 155.823 131.84 155.926 131.84C156.036 131.838 156.131 131.857 156.211 131.898C156.296 131.931 156.366 131.988 156.423 132.069C156.486 132.149 156.547 132.25 156.607 132.372L156.987 133.171ZM168.228 132.581C168.165 132.343 168.07 132.12 167.946 131.912C167.827 131.702 167.674 131.529 167.486 131.393C167.302 131.249 167.083 131.152 166.828 131.103C166.573 131.054 166.285 131.073 165.963 131.159C165.396 131.311 164.996 131.594 164.762 132.009C164.526 132.417 164.439 132.941 164.5 133.58L168.228 132.581ZM164.927 135.329C165.248 136.14 165.666 136.681 166.179 136.95C166.692 137.213 167.273 137.258 167.923 137.084C168.271 136.99 168.559 136.868 168.788 136.717C169.017 136.566 169.214 136.413 169.379 136.259C169.551 136.102 169.707 135.96 169.845 135.833C169.99 135.705 170.153 135.616 170.333 135.568C170.572 135.504 170.775 135.543 170.944 135.684L172.101 136.523C171.886 136.96 171.629 137.34 171.329 137.662C171.034 137.976 170.713 138.248 170.368 138.478C170.027 138.701 169.673 138.886 169.305 139.032C168.945 139.184 168.595 139.305 168.253 139.397C167.551 139.585 166.861 139.649 166.183 139.589C165.509 139.522 164.88 139.324 164.295 138.998C163.717 138.67 163.203 138.207 162.753 137.61C162.31 137.011 161.969 136.267 161.731 135.378C161.552 134.708 161.494 134.044 161.559 133.385C161.631 132.724 161.818 132.111 162.123 131.546C162.433 130.98 162.856 130.484 163.39 130.057C163.931 129.629 164.585 129.313 165.351 129.107C166.015 128.93 166.648 128.871 167.25 128.93C167.859 128.988 168.413 129.16 168.911 129.448C169.415 129.734 169.854 130.134 170.226 130.648C170.603 131.155 170.889 131.768 171.082 132.489C171.142 132.715 171.182 132.901 171.2 133.048C171.219 133.195 171.214 133.317 171.185 133.414C171.156 133.512 171.1 133.589 171.019 133.645C170.944 133.7 170.839 133.745 170.703 133.781L164.927 135.329ZM178.642 129.791C178.578 129.552 178.484 129.329 178.359 129.121C178.241 128.911 178.088 128.738 177.899 128.603C177.716 128.458 177.497 128.362 177.242 128.313C176.987 128.264 176.699 128.282 176.377 128.369C175.81 128.52 175.41 128.804 175.176 129.218C174.94 129.627 174.853 130.15 174.914 130.79L178.642 129.791ZM175.341 132.539C175.662 133.35 176.079 133.89 176.593 134.16C177.106 134.423 177.687 134.467 178.337 134.293C178.685 134.2 178.973 134.078 179.202 133.927C179.431 133.776 179.628 133.623 179.793 133.468C179.965 133.312 180.121 133.17 180.259 133.043C180.404 132.915 180.567 132.826 180.747 132.778C180.985 132.714 181.189 132.753 181.358 132.894L182.515 133.733C182.3 134.17 182.043 134.549 181.743 134.871C181.447 135.185 181.127 135.457 180.782 135.688C180.441 135.91 180.087 136.095 179.719 136.242C179.359 136.394 179.009 136.515 178.667 136.607C177.965 136.795 177.275 136.859 176.597 136.799C175.923 136.731 175.293 136.534 174.709 136.207C174.131 135.879 173.617 135.416 173.167 134.819C172.724 134.22 172.383 133.476 172.145 132.588C171.965 131.918 171.908 131.254 171.973 130.594C172.044 129.933 172.232 129.32 172.536 128.756C172.847 128.189 173.27 127.693 173.804 127.267C174.345 126.839 174.999 126.522 175.765 126.317C176.429 126.139 177.061 126.08 177.664 126.14C178.273 126.197 178.827 126.37 179.325 126.657C179.829 126.943 180.268 127.343 180.64 127.858C181.017 128.364 181.303 128.978 181.496 129.699C181.556 129.924 181.596 130.111 181.614 130.257C181.633 130.404 181.628 130.526 181.599 130.624C181.57 130.721 181.514 130.798 181.433 130.855C181.358 130.909 181.253 130.955 181.117 130.991L175.341 132.539Z" fill="white"/>
</g>
<g filter="url(#filter10_f_71_198)">
<path d="M156.615 216.89C159.155 215.744 160.093 213.931 159.429 211.452C159.178 210.518 158.684 209.866 157.946 209.494C157.22 209.102 156.324 208.85 155.259 208.739L156.615 216.89ZM148.067 193.972C147.357 194.283 146.774 194.62 146.32 194.984C145.881 195.343 145.542 195.718 145.302 196.111C145.078 196.498 144.945 196.905 144.904 197.33C144.858 197.739 144.891 198.153 145.003 198.572C145.258 199.522 145.771 200.212 146.542 200.644C147.309 201.06 148.23 201.339 149.303 201.483L148.067 193.972ZM154.111 201.748C154.944 201.766 155.783 201.809 156.63 201.875C157.471 201.926 158.294 202.033 159.097 202.198C159.912 202.341 160.686 202.557 161.418 202.844C162.167 203.126 162.849 203.513 163.463 204.004C164.094 204.491 164.644 205.094 165.113 205.814C165.582 206.534 165.954 207.409 166.23 208.439C166.64 209.968 166.769 211.478 166.616 212.968C166.459 214.443 166.021 215.837 165.304 217.151C164.582 218.448 163.585 219.621 162.313 220.67C161.036 221.702 159.484 222.541 157.655 223.186L158.168 226.258C158.256 226.717 158.163 227.174 157.887 227.627C157.632 228.092 157.223 228.4 156.66 228.551L153.907 229.289L153.057 224.185C151.124 224.375 149.21 224.318 147.317 224.015C145.436 223.691 143.771 223.145 142.323 222.376L143.742 218.399C143.862 218.073 144.059 217.779 144.334 217.516C144.62 217.232 144.948 217.04 145.318 216.941C145.705 216.838 146.127 216.836 146.586 216.938C147.04 217.023 147.539 217.148 148.084 217.313C148.64 217.457 149.241 217.607 149.886 217.762C150.544 217.896 151.26 217.963 152.037 217.962L150.491 208.619C149.245 208.607 147.985 208.54 146.709 208.416C145.45 208.287 144.262 207.976 143.146 207.481C142.03 206.986 141.029 206.245 140.143 205.257C139.273 204.265 138.608 202.908 138.146 201.185C137.805 199.914 137.731 198.605 137.922 197.26C138.114 195.914 138.572 194.627 139.295 193.398C140.034 192.165 141.046 191.048 142.331 190.048C143.612 189.032 145.173 188.225 147.015 187.628L146.562 184.877C146.473 184.417 146.559 183.963 146.818 183.514C147.089 183.044 147.506 182.734 148.07 182.583L150.823 181.846L151.632 186.702C153.457 186.558 155.086 186.682 156.52 187.074C157.97 187.462 159.239 187.95 160.329 188.538L159.212 191.71C159.046 192.186 158.844 192.56 158.606 192.83C158.38 193.081 158.073 193.258 157.687 193.361C157.446 193.426 157.141 193.447 156.772 193.425C156.416 193.383 156.023 193.333 155.593 193.275C155.16 193.202 154.694 193.137 154.195 193.081C153.709 193.004 153.197 192.96 152.659 192.949L154.111 201.748ZM183.656 201.207L181.198 192.031C181.047 191.468 180.901 190.86 180.761 190.207C180.632 189.534 180.513 188.833 180.404 188.103L174.601 203.634L183.656 201.207ZM193.799 198.49L194.925 202.691C195.024 203.062 194.981 203.418 194.797 203.761C194.629 204.099 194.311 204.331 193.844 204.456L191.671 205.039L193.839 213.128L187.319 214.875L185.151 206.786L171 210.577C170.533 210.702 170.068 210.672 169.604 210.486C169.156 210.295 168.826 209.995 168.613 209.586L166.85 206.099L177.263 179.86L184.411 177.944L190.176 199.46L193.799 198.49ZM201.011 185.014C201.951 188.524 204.047 189.843 207.299 188.971C208.893 188.544 209.989 187.741 210.588 186.563C211.198 185.364 211.29 183.968 210.863 182.374C210.634 181.521 210.305 180.807 209.875 180.232C209.457 179.636 208.964 179.182 208.397 178.868C207.845 178.55 207.226 178.362 206.537 178.305C205.849 178.248 205.135 178.318 204.394 178.517C203.638 178.72 202.998 179.038 202.476 179.471C201.965 179.884 201.563 180.38 201.27 180.959C200.992 181.533 200.827 182.173 200.775 182.877C200.733 183.561 200.812 184.273 201.011 185.014ZM209.976 194.517C210.128 194.183 210.274 193.86 210.414 193.546C210.554 193.232 210.679 192.923 210.787 192.618C209.517 193.804 207.94 194.649 206.057 195.153C204.914 195.46 203.717 195.565 202.466 195.469C201.211 195.356 200.004 195.007 198.846 194.42C197.704 193.828 196.673 192.975 195.753 191.858C194.832 190.741 194.139 189.314 193.673 187.575C193.246 185.981 193.133 184.399 193.333 182.827C193.549 181.25 194.054 179.786 194.848 178.435C195.658 177.079 196.737 175.892 198.087 174.875C199.432 173.842 201.038 173.075 202.906 172.575C204.805 172.066 206.581 171.9 208.234 172.079C209.886 172.257 211.368 172.731 212.679 173.502C214.005 174.268 215.137 175.302 216.072 176.604C217.02 177.886 217.726 179.396 218.192 181.135C218.809 183.437 219.015 185.59 218.81 187.595C218.605 189.6 218.139 191.562 217.411 193.483L212.715 206.285C212.502 206.842 212.092 207.374 211.486 207.882C210.896 208.385 210.167 208.753 209.297 208.986L202.391 210.837L209.976 194.517Z" fill="white"/>
</g>
<g filter="url(#filter11_d_71_198)">
<path d="M156.615 216.89C159.155 215.744 160.093 213.931 159.429 211.452C159.178 210.518 158.684 209.866 157.946 209.494C157.22 209.102 156.324 208.85 155.259 208.739L156.615 216.89ZM148.067 193.972C147.357 194.283 146.774 194.62 146.32 194.984C145.881 195.343 145.542 195.718 145.302 196.111C145.078 196.498 144.945 196.905 144.904 197.33C144.858 197.739 144.891 198.153 145.003 198.572C145.258 199.522 145.771 200.212 146.542 200.644C147.309 201.06 148.23 201.339 149.303 201.483L148.067 193.972ZM154.111 201.748C154.944 201.766 155.783 201.809 156.63 201.875C157.471 201.926 158.294 202.033 159.097 202.198C159.912 202.341 160.686 202.557 161.418 202.844C162.167 203.126 162.849 203.513 163.463 204.004C164.094 204.491 164.644 205.094 165.113 205.814C165.582 206.534 165.954 207.409 166.23 208.439C166.64 209.968 166.769 211.478 166.616 212.968C166.459 214.443 166.021 215.837 165.304 217.151C164.582 218.448 163.585 219.621 162.313 220.67C161.036 221.702 159.484 222.541 157.655 223.186L158.168 226.258C158.256 226.717 158.163 227.174 157.887 227.627C157.632 228.092 157.223 228.4 156.66 228.551L153.907 229.289L153.057 224.185C151.124 224.375 149.21 224.318 147.317 224.015C145.436 223.691 143.771 223.145 142.323 222.376L143.742 218.399C143.862 218.073 144.059 217.779 144.334 217.516C144.62 217.232 144.948 217.04 145.318 216.941C145.705 216.838 146.127 216.836 146.586 216.938C147.04 217.023 147.539 217.148 148.084 217.313C148.64 217.457 149.241 217.607 149.886 217.762C150.544 217.896 151.26 217.963 152.037 217.962L150.491 208.619C149.245 208.607 147.985 208.54 146.709 208.416C145.45 208.287 144.262 207.976 143.146 207.481C142.03 206.986 141.029 206.245 140.143 205.257C139.273 204.265 138.608 202.908 138.146 201.185C137.805 199.914 137.731 198.605 137.922 197.26C138.114 195.914 138.572 194.627 139.295 193.398C140.034 192.165 141.046 191.048 142.331 190.048C143.612 189.032 145.173 188.225 147.015 187.628L146.562 184.877C146.473 184.417 146.559 183.963 146.818 183.514C147.089 183.044 147.506 182.734 148.07 182.583L150.823 181.846L151.632 186.702C153.457 186.558 155.086 186.682 156.52 187.074C157.97 187.462 159.239 187.95 160.329 188.538L159.212 191.71C159.046 192.186 158.844 192.56 158.606 192.83C158.38 193.081 158.073 193.258 157.687 193.361C157.446 193.426 157.141 193.447 156.772 193.425C156.416 193.383 156.023 193.333 155.593 193.275C155.16 193.202 154.694 193.137 154.195 193.081C153.709 193.004 153.197 192.96 152.659 192.949L154.111 201.748ZM183.656 201.207L181.198 192.031C181.047 191.468 180.901 190.86 180.761 190.207C180.632 189.534 180.513 188.833 180.404 188.103L174.601 203.634L183.656 201.207ZM193.799 198.49L194.925 202.691C195.024 203.062 194.981 203.418 194.797 203.761C194.629 204.099 194.311 204.331 193.844 204.456L191.671 205.039L193.839 213.128L187.319 214.875L185.151 206.786L171 210.577C170.533 210.702 170.068 210.672 169.604 210.486C169.156 210.295 168.826 209.995 168.613 209.586L166.85 206.099L177.263 179.86L184.411 177.944L190.176 199.46L193.799 198.49ZM201.011 185.014C201.951 188.524 204.047 189.843 207.299 188.971C208.893 188.544 209.989 187.741 210.588 186.563C211.198 185.364 211.29 183.968 210.863 182.374C210.634 181.521 210.305 180.807 209.875 180.232C209.457 179.636 208.964 179.182 208.397 178.868C207.845 178.55 207.226 178.362 206.537 178.305C205.849 178.248 205.135 178.318 204.394 178.517C203.638 178.72 202.998 179.038 202.476 179.471C201.965 179.884 201.563 180.38 201.27 180.959C200.992 181.533 200.827 182.173 200.775 182.877C200.733 183.561 200.812 184.273 201.011 185.014ZM209.976 194.517C210.128 194.183 210.274 193.86 210.414 193.546C210.554 193.232 210.679 192.923 210.787 192.618C209.517 193.804 207.94 194.649 206.057 195.153C204.914 195.46 203.717 195.565 202.466 195.469C201.211 195.356 200.004 195.007 198.846 194.42C197.704 193.828 196.673 192.975 195.753 191.858C194.832 190.741 194.139 189.314 193.673 187.575C193.246 185.981 193.133 184.399 193.333 182.827C193.549 181.25 194.054 179.786 194.848 178.435C195.658 177.079 196.737 175.892 198.087 174.875C199.432 173.842 201.038 173.075 202.906 172.575C204.805 172.066 206.581 171.9 208.234 172.079C209.886 172.257 211.368 172.731 212.679 173.502C214.005 174.268 215.137 175.302 216.072 176.604C217.02 177.886 217.726 179.396 218.192 181.135C218.809 183.437 219.015 185.59 218.81 187.595C218.605 189.6 218.139 191.562 217.411 193.483L212.715 206.285C212.502 206.842 212.092 207.374 211.486 207.882C210.896 208.385 210.167 208.753 209.297 208.986L202.391 210.837L209.976 194.517Z" fill="white"/>
</g>
<defs>
<filter id="filter0_f_71_198" x="122.036" y="121.628" width="102.026" height="102.026" filterUnits="userSpaceOnUse" color-interpolation-filters="sRGB">
<feFlood flood-opacity="0" result="BackgroundImageFix"/>
<feBlend mode="normal" in="SourceGraphic" in2="BackgroundImageFix" result="shape"/>
<feGaussianBlur stdDeviation="20" result="effect1_foregroundBlur_71_198"/>
</filter>
<filter id="filter1_f_71_198" x="129.59" y="55.9822" width="34.7923" height="28.4045" filterUnits="userSpaceOnUse" color-interpolation-filters="sRGB">
<feFlood flood-opacity="0" result="BackgroundImageFix"/>
<feBlend mode="normal" in="SourceGraphic" in2="BackgroundImageFix" result="shape"/>
<feGaussianBlur stdDeviation="4.5" result="effect1_foregroundBlur_71_198"/>
</filter>
<filter id="filter2_f_71_198" x="52.311" y="149.325" width="28.9919" height="34.7922" filterUnits="userSpaceOnUse" color-interpolation-filters="sRGB">
<feFlood flood-opacity="0" result="BackgroundImageFix"/>
<feBlend mode="normal" in="SourceGraphic" in2="BackgroundImageFix" result="shape"/>
<feGaussianBlur stdDeviation="4.5" result="effect1_foregroundBlur_71_198"/>
</filter>
<filter id="filter3_f_71_198" x="244.503" y="99.7493" width="31.2716" height="32.5154" filterUnits="userSpaceOnUse" color-interpolation-filters="sRGB">
<feFlood flood-opacity="0" result="BackgroundImageFix"/>
<feBlend mode="normal" in="SourceGraphic" in2="BackgroundImageFix" result="shape"/>
<feGaussianBlur stdDeviation="4.5" result="effect1_foregroundBlur_71_198"/>
</filter>
<filter id="filter4_f_71_198" x="239.709" y="221.274" width="30.9923" height="33.0557" filterUnits="userSpaceOnUse" color-interpolation-filters="sRGB">
<feFlood flood-opacity="0" result="BackgroundImageFix"/>
<feBlend mode="normal" in="SourceGraphic" in2="BackgroundImageFix" result="shape"/>
<feGaussianBlur stdDeviation="4.5" result="effect1_foregroundBlur_71_198"/>
</filter>
<filter id="filter5_f_71_198" x="117.876" y="257.448" width="34.7922" height="28.9917" filterUnits="userSpaceOnUse" color-interpolation-filters="sRGB">
<feFlood flood-opacity="0" result="BackgroundImageFix"/>
<feBlend mode="normal" in="SourceGraphic" in2="BackgroundImageFix" result="shape"/>
<feGaussianBlur stdDeviation="4.5" result="effect1_foregroundBlur_71_198"/>
</filter>
<filter id="filter6_f_71_198" x="136.805" y="135.006" width="62.3512" height="44.967" filterUnits="userSpaceOnUse" color-interpolation-filters="sRGB">
<feFlood flood-opacity="0" result="BackgroundImageFix"/>
<feBlend mode="normal" in="SourceGraphic" in2="BackgroundImageFix" result="shape"/>
<feGaussianBlur stdDeviation="5" result="effect1_foregroundBlur_71_198"/>
</filter>
<filter id="filter7_d_71_198" x="142.805" y="145.006" width="50.3512" height="32.967" filterUnits="userSpaceOnUse" color-interpolation-filters="sRGB">
<feFlood flood-opacity="0" result="BackgroundImageFix"/>
<feColorMatrix in="SourceAlpha" type="matrix" values="0 0 0 0 0 0 0 0 0 0 0 0 0 0 0 0 0 0 127 0" result="hardAlpha"/>
<feOffset dy="4"/>
<feGaussianBlur stdDeviation="2"/>
<feComposite in2="hardAlpha" operator="out"/>
<feColorMatrix type="matrix" values="0 0 0 0 0 0 0 0 0 0 0 0 0 0 0 0 0 0 0.25 0"/>
<feBlend mode="normal" in2="BackgroundImageFix" result="effect1_dropShadow_71_198"/>
<feBlend mode="normal" in="SourceGraphic" in2="effect1_dropShadow_71_198" result="shape"/>
</filter>
<filter id="filter8_f_71_198" x="132.826" y="111.208" width="60.2071" height="43.9802" filterUnits="userSpaceOnUse" color-interpolation-filters="sRGB">
<feFlood flood-opacity="0" result="BackgroundImageFix"/>
<feBlend mode="normal" in="SourceGraphic" in2="BackgroundImageFix" result="shape"/>
<feGaussianBlur stdDeviation="5" result="effect1_foregroundBlur_71_198"/>
</filter>
<filter id="filter9_d_71_198" x="138.826" y="121.208" width="48.2071" height="31.9802" filterUnits="userSpaceOnUse" color-interpolation-filters="sRGB">
<feFlood flood-opacity="0" result="BackgroundImageFix"/>
<feColorMatrix in="SourceAlpha" type="matrix" values="0 0 0 0 0 0 0 0 0 0 0 0 0 0 0 0 0 0 127 0" result="hardAlpha"/>
<feOffset dy="4"/>
<feGaussianBlur stdDeviation="2"/>
<feComposite in2="hardAlpha" operator="out"/>
<feColorMatrix type="matrix" values="0 0 0 0 0 0 0 0 0 0 0 0 0 0 0 0 0 0 0.25 0"/>
<feBlend mode="normal" in2="BackgroundImageFix" result="effect1_dropShadow_71_198"/>
<feBlend mode="normal" in="SourceGraphic" in2="effect1_dropShadow_71_198" result="shape"/>
</filter>
<filter id="filter10_f_71_198" x="122.76" y="154.956" width="113.164" height="86.7664" filterUnits="userSpaceOnUse" color-interpolation-filters="sRGB">
<feFlood flood-opacity="0" result="BackgroundImageFix"/>
<feBlend mode="normal" in="SourceGraphic" in2="BackgroundImageFix" result="shape"/>
<feGaussianBlur stdDeviation="5" result="effect1_foregroundBlur_71_198"/>
</filter>
<filter id="filter11_d_71_198" x="128.76" y="164.956" width="101.164" height="74.7664" filterUnits="userSpaceOnUse" color-interpolation-filters="sRGB">
<feFlood flood-opacity="0" result="BackgroundImageFix"/>
<feColorMatrix in="SourceAlpha" type="matrix" values="0 0 0 0 0 0 0 0 0 0 0 0 0 0 0 0 0 0 127 0" result="hardAlpha"/>
<feOffset dy="4"/>
<feGaussianBlur stdDeviation="2"/>
<feComposite in2="hardAlpha" operator="out"/>
<feColorMatrix type="matrix" values="0 0 0 0 0 0 0 0 0 0 0 0 0 0 0 0 0 0 0.25 0"/>
<feBlend mode="normal" in2="BackgroundImageFix" result="effect1_dropShadow_71_198"/>
<feBlend mode="normal" in="SourceGraphic" in2="effect1_dropShadow_71_198" result="shape"/>
</filter>
<linearGradient id="paint0_linear_71_198" x1="99.1317" y1="194.327" x2="246.542" y2="150.394" gradientUnits="userSpaceOnUse">
<stop stop-color="#FFB199"/>
<stop offset="1" stop-color="#FF0844"/>
</linearGradient>
</defs>
</svg>
